<?xml version="1.0" encoding="UTF-8" standalone="no"?>
<!-- Created with Inkscape (http://www.inkscape.org/) -->

<svg
   xmlns:dc="http://purl.org/dc/elements/1.1/"
   xmlns:cc="http://creativecommons.org/ns#"
   xmlns:rdf="http://www.w3.org/1999/02/22-rdf-syntax-ns#"
   xmlns:svg="http://www.w3.org/2000/svg"
   xmlns="http://www.w3.org/2000/svg"
   xmlns:sodipodi="http://sodipodi.sourceforge.net/DTD/sodipodi-0.dtd"
   xmlns:inkscape="http://www.inkscape.org/namespaces/inkscape"
   version="1.1"
   id="svg94406"
   xml:space="preserve"
   width="1000"
   height="666.66669"
   viewBox="0 0 1000 666.66669"
   sodipodi:docname="header_bg1.svg"
   inkscape:version="0.92.4 (5da689c313, 2019-01-14)"><metadata
     id="metadata94412"><rdf:RDF><cc:Work
         rdf:about=""><dc:format>image/svg+xml</dc:format><dc:type
           rdf:resource="http://purl.org/dc/dcmitype/StillImage" /><dc:title></dc:title></cc:Work></rdf:RDF></metadata><defs
     id="defs94410"><clipPath
       clipPathUnits="userSpaceOnUse"
       id="clipPath94606"><path
         d="M 6443.11,4384.86 H 3219.56 c -404.14,-507.04 -538,-1262.28 -290.84,-1608.26 270.47,-378.61 556.86,-232.29 737.9,-430.16 254.37,-278.03 40.54,-681.59 310.91,-852.53 224.23,-141.78 509.64,-54.6 780.05,32.58 279.23,90.02 542.47,180.05 705.83,17.96 385.52,-382.53 755.43,-452.23 1014.69,-403.84 v 3209.25 c 0,19.33 -15.67,35 -34.99,35"
         id="path94604"
         inkscape:connector-curvature="0" /></clipPath><clipPath
       clipPathUnits="userSpaceOnUse"
       id="clipPath94632"><path
         d="M 6443.11,4384.86 H 3219.56 c -404.14,-507.04 -538,-1262.28 -290.84,-1608.26 270.47,-378.61 556.86,-232.29 737.9,-430.16 254.37,-278.03 40.54,-681.59 310.91,-852.53 224.23,-141.78 509.64,-54.6 780.05,32.58 279.23,90.02 542.47,180.05 705.83,17.96 385.52,-382.53 755.43,-452.23 1014.69,-403.84 v 3209.25 c 0,19.33 -15.67,35 -34.99,35"
         id="path94630"
         inkscape:connector-curvature="0" /></clipPath><clipPath
       clipPathUnits="userSpaceOnUse"
       id="clipPath94638"><path
         d="m 5558.8,2984.85 c -4.06,0 -8.48,0.66 -13.28,2.09 -57.47,17.21 -33.31,90.36 -26.15,110.57 26.14,-8.35 85.75,-33.46 85.75,-33.46 0,0 -1.79,-79.21 -46.32,-79.2"
         id="path94636"
         inkscape:connector-curvature="0" /></clipPath><clipPath
       clipPathUnits="userSpaceOnUse"
       id="clipPath94650"><path
         d="M 6443.11,4384.86 H 3219.56 c -404.14,-507.04 -538,-1262.28 -290.84,-1608.26 270.47,-378.61 556.86,-232.29 737.9,-430.16 254.37,-278.03 40.54,-681.59 310.91,-852.53 224.23,-141.78 509.64,-54.6 780.05,32.58 279.23,90.02 542.47,180.05 705.83,17.96 385.52,-382.53 755.43,-452.23 1014.69,-403.84 v 3209.25 c 0,19.33 -15.67,35 -34.99,35"
         id="path94648"
         inkscape:connector-curvature="0" /></clipPath><clipPath
       clipPathUnits="userSpaceOnUse"
       id="clipPath94662"><path
         d="M 6443.11,4384.86 H 3219.56 c -404.14,-507.04 -538,-1262.28 -290.84,-1608.26 270.47,-378.61 556.86,-232.29 737.9,-430.16 254.37,-278.03 40.54,-681.59 310.91,-852.53 224.23,-141.78 509.64,-54.6 780.05,32.58 279.23,90.02 542.47,180.05 705.83,17.96 385.52,-382.53 755.43,-452.23 1014.69,-403.84 v 3209.25 c 0,19.33 -15.67,35 -34.99,35"
         id="path94660"
         inkscape:connector-curvature="0" /></clipPath><clipPath
       clipPathUnits="userSpaceOnUse"
       id="clipPath94668"><path
         d="m 5366.41,2984.85 c -44.54,0 -46.31,79.2 -46.31,79.2 0,0 59.6,25.11 85.74,33.46 7.16,-20.21 31.32,-93.36 -26.15,-110.57 -4.8,-1.43 -9.22,-2.09 -13.28,-2.09"
         id="path94666"
         inkscape:connector-curvature="0" /></clipPath><clipPath
       clipPathUnits="userSpaceOnUse"
       id="clipPath94680"><path
         d="M 6443.11,4384.86 H 3219.56 c -404.14,-507.04 -538,-1262.28 -290.84,-1608.26 270.47,-378.61 556.86,-232.29 737.9,-430.16 254.37,-278.03 40.54,-681.59 310.91,-852.53 224.23,-141.78 509.64,-54.6 780.05,32.58 279.23,90.02 542.47,180.05 705.83,17.96 385.52,-382.53 755.43,-452.23 1014.69,-403.84 v 3209.25 c 0,19.33 -15.67,35 -34.99,35"
         id="path94678"
         inkscape:connector-curvature="0" /></clipPath><clipPath
       clipPathUnits="userSpaceOnUse"
       id="clipPath94754"><path
         d="M 6443.11,4384.86 H 3219.56 c -404.14,-507.04 -538,-1262.28 -290.84,-1608.26 270.47,-378.61 556.86,-232.29 737.9,-430.16 254.37,-278.03 40.54,-681.59 310.91,-852.53 224.23,-141.78 509.64,-54.6 780.05,32.58 279.23,90.02 542.47,180.05 705.83,17.96 385.52,-382.53 755.43,-452.23 1014.69,-403.84 v 3209.25 c 0,19.33 -15.67,35 -34.99,35"
         id="path94752"
         inkscape:connector-curvature="0" /></clipPath><clipPath
       clipPathUnits="userSpaceOnUse"
       id="clipPath94760"><path
         d="m 4757.01,2800.59 c -30.73,0 -42.06,72.4 -12.34,78.35 9.99,1.99 19.59,3.06 28.46,3.06 25.86,0 45.54,-9.08 51,-30.7 7.33,-29.03 -32.26,-46.75 -64.77,-50.57 -0.79,-0.09 -1.58,-0.14 -2.35,-0.14"
         id="path94758"
         inkscape:connector-curvature="0" /></clipPath><clipPath
       clipPathUnits="userSpaceOnUse"
       id="clipPath94772"><path
         d="M 6443.11,4384.86 H 3219.56 c -404.14,-507.04 -538,-1262.28 -290.84,-1608.26 270.47,-378.61 556.86,-232.29 737.9,-430.16 254.37,-278.03 40.54,-681.59 310.91,-852.53 224.23,-141.78 509.64,-54.6 780.05,32.58 279.23,90.02 542.47,180.05 705.83,17.96 385.52,-382.53 755.43,-452.23 1014.69,-403.84 v 3209.25 c 0,19.33 -15.67,35 -34.99,35"
         id="path94770"
         inkscape:connector-curvature="0" /></clipPath><clipPath
       clipPathUnits="userSpaceOnUse"
       id="clipPath94784"><path
         d="M 6443.11,4384.86 H 3219.56 c -404.14,-507.04 -538,-1262.28 -290.84,-1608.26 270.47,-378.61 556.86,-232.29 737.9,-430.16 254.37,-278.03 40.54,-681.59 310.91,-852.53 224.23,-141.78 509.64,-54.6 780.05,32.58 279.23,90.02 542.47,180.05 705.83,17.96 385.52,-382.53 755.43,-452.23 1014.69,-403.84 v 3209.25 c 0,19.33 -15.67,35 -34.99,35"
         id="path94782"
         inkscape:connector-curvature="0" /></clipPath><clipPath
       clipPathUnits="userSpaceOnUse"
       id="clipPath94790"><path
         d="m 4663.46,2872.57 c -67.1,0 -50.33,85.32 -50.33,85.32 0,0 79.97,23.38 114.48,26.9 3.58,-26.85 18.64,-105.61 -56.9,-111.91 -2.51,-0.21 -4.93,-0.31 -7.25,-0.31"
         id="path94788"
         inkscape:connector-curvature="0" /></clipPath><clipPath
       clipPathUnits="userSpaceOnUse"
       id="clipPath94802"><path
         d="M 6443.11,4384.86 H 3219.56 c -404.14,-507.04 -538,-1262.28 -290.84,-1608.26 270.47,-378.61 556.86,-232.29 737.9,-430.16 254.37,-278.03 40.54,-681.59 310.91,-852.53 224.23,-141.78 509.64,-54.6 780.05,32.58 279.23,90.02 542.47,180.05 705.83,17.96 385.52,-382.53 755.43,-452.23 1014.69,-403.84 v 3209.25 c 0,19.33 -15.67,35 -34.99,35"
         id="path94800"
         inkscape:connector-curvature="0" /></clipPath><clipPath
       clipPathUnits="userSpaceOnUse"
       id="clipPath94814"><path
         d="M 6443.11,4384.86 H 3219.56 c -404.14,-507.04 -538,-1262.28 -290.84,-1608.26 270.47,-378.61 556.86,-232.29 737.9,-430.16 254.37,-278.03 40.54,-681.59 310.91,-852.53 224.23,-141.78 509.64,-54.6 780.05,32.58 279.23,90.02 542.47,180.05 705.83,17.96 385.52,-382.53 755.43,-452.23 1014.69,-403.84 v 3209.25 c 0,19.33 -15.67,35 -34.99,35"
         id="path94812"
         inkscape:connector-curvature="0" /></clipPath><clipPath
       clipPathUnits="userSpaceOnUse"
       id="clipPath94820"><path
         d="m 4876.65,2872.57 c -2.31,0 -4.73,0.1 -7.25,0.31 -75.52,6.3 -60.46,85.06 -56.88,111.91 34.5,-3.52 114.47,-26.9 114.47,-26.9 0,0 16.78,-85.32 -50.34,-85.32"
         id="path94818"
         inkscape:connector-curvature="0" /></clipPath><clipPath
       clipPathUnits="userSpaceOnUse"
       id="clipPath94832"><path
         d="M 6443.11,4384.86 H 3219.56 c -404.14,-507.04 -538,-1262.28 -290.84,-1608.26 270.47,-378.61 556.86,-232.29 737.9,-430.16 254.37,-278.03 40.54,-681.59 310.91,-852.53 224.23,-141.78 509.64,-54.6 780.05,32.58 279.23,90.02 542.47,180.05 705.83,17.96 385.52,-382.53 755.43,-452.23 1014.69,-403.84 v 3209.25 c 0,19.33 -15.67,35 -34.99,35"
         id="path94830"
         inkscape:connector-curvature="0" /></clipPath></defs><sodipodi:namedview
     pagecolor="#ffffff"
     bordercolor="#666666"
     borderopacity="1"
     objecttolerance="10"
     gridtolerance="10"
     guidetolerance="10"
     inkscape:pageopacity="0"
     inkscape:pageshadow="2"
     inkscape:window-width="1920"
     inkscape:window-height="1016"
     id="namedview94408"
     showgrid="false"
     inkscape:zoom="0.87504462"
     inkscape:cx="500"
     inkscape:cy="319.48722"
     inkscape:window-x="0"
     inkscape:window-y="27"
     inkscape:window-maximized="1"
     inkscape:current-layer="g95132" /><g
     id="g94414"
     inkscape:groupmode="layer"
     inkscape:label="ink_ext_XXXXXX"
     transform="matrix(1.3333333,0,0,-1.3333333,0,666.66667)"><g
       id="g94416"
       transform="scale(0.1)"><g
         id="g95132"
         transform="matrix(1.3942656,0,0,1.4028366,-1465.6396,-1122.8)"><path
           inkscape:connector-curvature="0"
           id="path94418"
           style="fill:#f4f4f2;fill-opacity:1;fill-rule:nonzero;stroke:none"
           d="M 0,0 H 7500 V 5000 H 0 Z" /><path
           inkscape:connector-curvature="0"
           id="path94420"
           style="fill:#f4f4f2;fill-opacity:1;fill-rule:nonzero;stroke:none"
           d="M 6574.57,614.949 H 1188.76 c -12.76,0 -23.92,6.832 -30.04,17.031 5.25,-3.148 11.41,-4.96 17.98,-4.96 h 5385.81 c 19.33,0 35,15.671 35,35 v 3567.21 c 0,6.57 -1.81,12.72 -4.96,17.97 10.2,-6.11 17.02,-17.28 17.02,-30.04 V 649.949 c 0,-19.32 -15.66,-35 -35,-35" /><path
           inkscape:connector-curvature="0"
           id="path94422"
           style="fill:#eaeae7;fill-opacity:1;fill-rule:nonzero;stroke:none"
           d="M 6562.51,627.02 H 1176.7 c -6.57,0 -12.73,1.812 -17.98,4.96 -4.94,2.969 -9.09,7.122 -12.06,12.059 5.25,-3.148 11.4,-4.957 17.97,-4.957 h 5385.82 c 19.32,0 35,15.68 35,35 V 4241.29 c 0,6.57 -1.81,12.72 -4.96,17.97 4.94,-2.96 9.09,-7.12 12.06,-12.06 3.15,-5.25 4.96,-11.4 4.96,-17.97 V 662.02 c 0,-19.329 -15.67,-35 -35,-35" /><path
           inkscape:connector-curvature="0"
           id="path94424"
           style="fill:#e0e1de;fill-opacity:1;fill-rule:nonzero;stroke:none"
           d="M 6550.45,639.082 H 1164.63 c -6.57,0 -12.72,1.809 -17.97,4.957 -4.94,2.973 -9.1,7.121 -12.06,12.07 5.25,-3.16 11.4,-4.968 17.97,-4.968 h 5385.81 c 19.33,0 35,15.679 35,35 V 4253.36 c 0,6.57 -1.81,12.71 -4.96,17.97 4.95,-2.97 9.1,-7.12 12.07,-12.07 3.15,-5.25 4.96,-11.4 4.96,-17.97 V 674.082 c 0,-19.32 -15.68,-35 -35,-35" /><path
           inkscape:connector-curvature="0"
           id="path94426"
           style="fill:#d5d7d4;fill-opacity:1;fill-rule:nonzero;stroke:none"
           d="M 6538.38,651.141 H 1152.57 c -6.57,0 -12.72,1.808 -17.97,4.968 -4.95,2.961 -9.1,7.121 -12.07,12.063 5.26,-3.152 11.41,-4.961 17.98,-4.961 h 5385.81 c 19.32,0 35,15.668 35,35 V 4265.41 c 0,6.58 -1.82,12.73 -4.97,17.98 4.95,-2.96 9.1,-7.11 12.07,-12.06 3.15,-5.26 4.96,-11.4 4.96,-17.97 V 686.141 c 0,-19.321 -15.67,-35 -35,-35" /><path
           inkscape:connector-curvature="0"
           id="path94428"
           style="fill:#cccdcb;fill-opacity:1;fill-rule:nonzero;stroke:none"
           d="M 6526.32,663.211 H 1140.51 c -6.57,0 -12.72,1.809 -17.98,4.961 -4.94,2.969 -9.1,7.117 -12.06,12.066 5.25,-3.148 11.4,-4.968 17.97,-4.968 h 5385.82 c 19.32,0 35,15.679 35,35 v 3567.21 c 0,6.57 -1.81,12.72 -4.96,17.97 4.94,-2.97 9.09,-7.11 12.05,-12.06 3.15,-5.25 4.97,-11.4 4.97,-17.98 V 698.211 c 0,-19.332 -15.68,-35 -35,-35" /><path
           inkscape:connector-curvature="0"
           id="path94430"
           style="fill:#c1c2c0;fill-opacity:1;fill-rule:nonzero;stroke:none"
           d="M 6514.26,675.27 H 1128.44 c -6.57,0 -12.72,1.82 -17.97,4.968 -4.95,2.961 -9.1,7.114 -12.06,12.063 5.25,-3.16 11.4,-4.969 17.97,-4.969 h 5385.81 c 19.33,0 35,15.68 35,35 V 4289.55 c 0,6.57 -1.81,12.72 -4.97,17.97 4.95,-2.97 9.11,-7.12 12.08,-12.07 3.15,-5.25 4.96,-11.4 4.96,-17.97 V 710.27 c 0,-19.321 -15.68,-35 -35,-35" /><path
           inkscape:connector-curvature="0"
           id="path94432"
           style="fill:#b8bab8;fill-opacity:1;fill-rule:nonzero;stroke:none"
           d="M 6502.19,687.332 H 1116.38 c -6.57,0 -12.72,1.809 -17.97,4.969 -4.95,2.961 -9.1,7.121 -12.07,12.058 5.25,-3.14 11.4,-4.961 17.98,-4.961 h 5385.81 c 19.33,0 35,15.672 35,35 V 4301.61 c 0,6.57 -1.81,12.72 -4.96,17.97 4.94,-2.96 9.09,-7.12 12.05,-12.06 3.16,-5.25 4.97,-11.4 4.97,-17.97 V 722.332 c 0,-19.32 -15.67,-35 -35,-35" /><path
           inkscape:connector-curvature="0"
           id="path94434"
           style="fill:#afb1ae;fill-opacity:1;fill-rule:nonzero;stroke:none"
           d="M 6490.13,699.398 H 1104.32 c -6.58,0 -12.73,1.821 -17.98,4.961 -4.94,2.973 -9.1,7.121 -12.06,12.071 5.25,-3.149 11.4,-4.961 17.98,-4.961 h 5385.81 c 19.32,0 35,15.66 35,34.992 V 4313.67 c 0,6.57 -1.81,12.72 -4.96,17.97 4.94,-2.96 9.09,-7.11 12.06,-12.06 3.15,-5.25 4.96,-11.4 4.96,-17.97 V 734.398 c 0,-19.328 -15.67,-35 -35,-35" /><path
           inkscape:connector-curvature="0"
           id="path94436"
           style="fill:#a5a8a6;fill-opacity:1;fill-rule:nonzero;stroke:none"
           d="M 6478.07,711.469 H 1092.26 c -6.58,0 -12.73,1.812 -17.98,4.961 -4.95,2.961 -9.1,7.109 -12.06,12.062 5.25,-3.152 11.4,-4.961 17.97,-4.961 H 6466 c 19.33,0 35,15.668 35,35 V 4325.74 c 0,6.57 -1.82,12.72 -4.97,17.97 4.95,-2.96 9.11,-7.12 12.08,-12.07 3.15,-5.25 4.96,-11.4 4.96,-17.97 V 746.461 c 0,-19.332 -15.68,-34.992 -35,-34.992" /><path
           inkscape:connector-curvature="0"
           id="path94438"
           style="fill:#9b9e9c;fill-opacity:1;fill-rule:nonzero;stroke:none"
           d="M 6466,723.531 H 1080.19 c -6.57,0 -12.72,1.809 -17.97,4.961 -4.95,2.957 -9.1,7.11 -12.06,12.059 5.25,-3.153 11.4,-4.961 17.97,-4.961 h 5385.8 c 19.34,0 35,15.672 35,35 V 4337.8 c 0,6.57 -1.81,12.72 -4.96,17.97 4.95,-2.96 9.1,-7.11 12.06,-12.06 3.15,-5.25 4.97,-11.4 4.97,-17.97 V 758.531 c 0,-19.332 -15.67,-35 -35,-35" /><path
           inkscape:connector-curvature="0"
           id="path94440"
           style="fill:#929493;fill-opacity:1;fill-rule:nonzero;stroke:none"
           d="m 6453.93,735.59 h -5385.8 c -6.57,0 -12.72,1.808 -17.97,4.961 -4.52,2.699 -8.37,6.39 -11.26,10.781 5.07,-2.863 10.93,-4.492 17.16,-4.492 h 5387.05 c 19.32,0 34.99,15.66 34.99,35 v 358.77 0 3209.25 c 0,6.06 -1.53,11.75 -4.24,16.72 4.09,-2.84 7.55,-6.53 10.11,-10.81 3.15,-5.25 4.96,-11.4 4.96,-17.97 V 770.59 c 0,-19.328 -15.66,-35 -35,-35" /><path
           inkscape:connector-curvature="0"
           id="path94442"
           style="fill:#8a8d8c;fill-opacity:1;fill-rule:nonzero;stroke:none"
           d="m 1021.06,782.66 v 0 3567.2 c 0,19.34 15.67,35 35,35 h 5385.81 v 0 H 3219.56 v 0 h -2163.5 c -19.33,0 -35,-15.67 -35,-35 V 782.66" /><path
           inkscape:connector-curvature="0"
           id="path94444"
           style="fill:#ffffff;fill-opacity:1;fill-rule:nonzero;stroke:none"
           d="M 6443.11,746.84 H 1056.06 c -19.33,0 -35,15.66 -35,35 v 3568.02 c 0,19.33 15.67,35 35,35 h 5387.05 c 19.32,0 34.99,-15.67 34.99,-35 V 781.84 c 0,-19.34 -15.67,-35 -34.99,-35" /><path
           inkscape:connector-curvature="0"
           id="path94446"
           style="fill:#d0efec;fill-opacity:1;fill-rule:nonzero;stroke:none"
           d="M 6443.11,4384.86 H 3219.56 c -404.14,-507.04 -538,-1262.28 -290.84,-1608.26 270.47,-378.61 556.86,-232.29 737.9,-430.16 254.37,-278.03 40.54,-681.59 310.91,-852.53 224.23,-141.78 509.64,-54.6 780.05,32.58 279.23,90.02 542.47,180.05 705.83,17.96 385.52,-382.53 755.43,-452.23 1014.69,-403.84 v 3209.25 c 0,19.33 -15.67,35 -34.99,35" /><path
           inkscape:connector-curvature="0"
           id="path94448"
           style="fill:#d0efec;fill-opacity:1;fill-rule:nonzero;stroke:none"
           d="m 3146.3,4391.1 c -273.04,-342.72 -425.59,-794.85 -425.68,-1166.27 0.03,-192.41 40.95,-363.45 128.68,-486.35 69.62,-97.47 140.65,-161.59 210.85,-205.76 105.32,-66.27 208.36,-87.57 300.96,-111.2 46.33,-11.81 90.06,-24.19 130.47,-42.76 40.42,-18.58 77.54,-43.25 111.2,-80.01 63.55,-69.49 97.82,-146.61 117.91,-226.69 30.16,-120.1 27.75,-246.59 43.58,-360.58 7.96,-57 20.55,-110.98 44.64,-159.39 24.06,-48.4 59.82,-91.08 113.06,-124.7 89.45,-56.58 188.32,-78.08 291.19,-78.06 165.84,0.06 342.63,55.38 512.93,110.24 170.22,54.95 334.1,109.37 471.83,109.27 46.37,0 89.72,-6.11 129.5,-20.19 39.79,-14.09 76.06,-36.1 108.56,-68.34 324.5,-322.04 639.51,-428.69 890.19,-428.65 54.49,0 105.93,5.03 153.77,13.96 l -3.67,19.66 c -46.63,-8.7 -96.84,-13.62 -150.1,-13.62 -244.95,0.04 -554.5,103.84 -876.1,422.85 -34.55,34.3 -73.59,58.01 -115.98,72.99 -42.38,15 -88.06,21.34 -136.17,21.34 -142.87,-0.1 -307.76,-55.44 -477.97,-110.24 -170.12,-54.89 -345.41,-109.33 -506.79,-109.27 -100.17,0.02 -194.78,20.79 -280.5,74.96 -66.85,42.37 -103.31,98.27 -125.27,164.27 -32.92,98.93 -31.43,220.34 -45.64,344.27 -7.16,61.96 -18.35,124.61 -40.2,185.42 -21.83,60.8 -54.39,119.77 -104.02,174 -47.47,51.93 -102.17,81.36 -160.76,102.08 -87.97,31.07 -184.81,43.44 -284.87,83.9 -100.05,40.47 -203.78,108.46 -306.33,251.88 -84.36,117.99 -124.98,285.07 -124.95,474.72 -0.1,366.05 151.23,815.08 421.32,1153.8 l -15.64,12.47" /><path
           inkscape:connector-curvature="0"
           id="path94588"
           style="fill:#ffffff;fill-opacity:1;fill-rule:nonzero;stroke:none"
           d="m 3413.89,4061.82 h 350.57 c 0,0 -18.68,45.97 -58.91,22.98 -11.49,70.41 -80.46,64.66 -102.01,12.93 -28.74,89.08 -91.67,75.61 -113.23,0.9 -66.94,14.22 -76.42,-36.81 -76.42,-36.81" /><path
           inkscape:connector-curvature="0"
           id="path94590"
           style="fill:#ffffff;fill-opacity:1;fill-rule:nonzero;stroke:none"
           d="m 5714.9585,3438.468 h 483.95 c 0,0 -25.78,63.47 -81.32,31.74 -15.87,97.18 -111.08,89.25 -140.82,17.85 -39.67,122.97 -126.55,104.36 -156.31,1.22 -92.4,19.64 -105.5,-50.81 -105.5,-50.81" /><path
           inkscape:connector-curvature="0"
           id="path94592"
           style="fill:#ffffff;fill-opacity:1;fill-rule:nonzero;stroke:none"
           d="m 3435.52,3172.53 h 582.67 c 0,0 -31.04,76.42 -97.91,38.21 -19.1,117.01 -133.73,107.46 -169.55,21.5 -47.76,148.05 -152.37,125.65 -188.19,1.47 -111.26,23.64 -127.02,-61.18 -127.02,-61.18" /></g></g></g></svg>