<?xml version="1.0" encoding="UTF-8" standalone="no"?>
<!-- Created with Inkscape (http://www.inkscape.org/) -->

<svg
   xmlns:dc="http://purl.org/dc/elements/1.1/"
   xmlns:cc="http://creativecommons.org/ns#"
   xmlns:rdf="http://www.w3.org/1999/02/22-rdf-syntax-ns#"
   xmlns:svg="http://www.w3.org/2000/svg"
   xmlns="http://www.w3.org/2000/svg"
   xmlns:sodipodi="http://sodipodi.sourceforge.net/DTD/sodipodi-0.dtd"
   xmlns:inkscape="http://www.inkscape.org/namespaces/inkscape"
   width="200"
   height="200"
   viewBox="0 0 52.916665 52.916668"
   version="1.1"
   id="svg5091"
   inkscape:version="0.92.4 (5da689c313, 2019-01-14)"
   sodipodi:docname="icon_seo_g.svg">
  <defs
     id="defs5085" />
  <sodipodi:namedview
     id="base"
     pagecolor="#ffffff"
     bordercolor="#666666"
     borderopacity="1.0"
     inkscape:pageopacity="0.0"
     inkscape:pageshadow="2"
     inkscape:zoom="2.8284271"
     inkscape:cx="80.854971"
     inkscape:cy="58.179064"
     inkscape:document-units="px"
     inkscape:current-layer="layer1"
     showgrid="false"
     units="px"
     inkscape:pagecheckerboard="true"
     inkscape:window-width="1920"
     inkscape:window-height="1016"
     inkscape:window-x="0"
     inkscape:window-y="27"
     inkscape:window-maximized="1" />
  <metadata
     id="metadata5088">
    <rdf:RDF>
      <cc:Work
         rdf:about="">
        <dc:format>image/svg+xml</dc:format>
        <dc:type
           rdf:resource="http://purl.org/dc/dcmitype/StillImage" />
        <dc:title></dc:title>
      </cc:Work>
    </rdf:RDF>
  </metadata>
  <g
     inkscape:label="Layer 1"
     inkscape:groupmode="layer"
     id="layer1"
     transform="translate(0,-244.08332)">
    <g
       id="g1104"
       transform="matrix(0.01592833,0,0,-0.01592833,-232.10726,528.83842)">
      <path
         d="m 14686.2,15910.4 h 726.8 c -27.4,45.3 -50.5,92.3 -69.5,140.7 h -657.3 c -8.9,0 -16.1,7.2 -16.1,16.1 0,8.9 7.2,16.1 16.1,16.1 h 645.3 c -24.6,70.4 -40.7,143.2 -48,216.7 h -643.9 c -1.4,-27.7 -2.2,-55.7 -2.2,-83.8 0,-110.7 11.4,-218.8 32.8,-323.2 0,0.4 -0.1,0.8 -0.1,1.3 0,8.9 7.2,16.1 16.1,16.1"
         style="fill:#ffffff;fill-opacity:1;fill-rule:nonzero;stroke:none"
         id="path1106"
         inkscape:connector-curvature="0" />
    </g>
    <g
       id="g1108"
       transform="matrix(0.01587877,0,0,-0.01587877,-232.10726,528.83842)">
      <path
         d="m 16266.1,15505.4 c -129.3,0 -254.5,26 -369.8,75.3 h -1059.1 c 23,-48.4 48.4,-95.5 76,-141.1 h 1181.2 c 9,0 16.2,-7.2 16.2,-16.2 0,-8.9 -7.2,-16.1 -16.2,-16.1 h -1161.2 c 31.3,-49 65.1,-96 101.3,-141.2 h 1059.9 c 9,0 16.2,-7.2 16.2,-16.1 0,-9 -7.2,-16.2 -16.2,-16.2 h -1033.3 c 42.1,-49.7 87.1,-96.9 134.9,-141.1 h 898.4 c 9,0 16.2,-7.3 16.2,-16.2 0,-8.9 -7.2,-16.1 -16.2,-16.1 h -862.5 c 58.9,-51.5 121.6,-98.7 187.7,-141.2 h 674.8 c 9,0 16.2,-7.2 16.2,-16.2 0,-8.9 -7.2,-16.1 -16.2,-16.1 h -622.1 c 237.9,-140.2 515.3,-220.7 811.4,-220.7 5.4,0 10.9,0.1 16.3,0.2 v 839.7 c -11.2,-0.4 -22.6,-0.7 -33.9,-0.7"
         style="fill:#ffffff;fill-opacity:1;fill-rule:nonzero;stroke:none"
         id="path1110"
         inkscape:connector-curvature="0" />
    </g>
    <g
       id="g1112"
       transform="matrix(0.01552632,0,0,-0.01552632,-232.10726,528.83842)">
      <path
         d="m 15832.8,16289.3 h -766.3 c -7.1,0 -13.1,4.5 -15.4,10.7 10.9,-52.7 24.4,-104.4 40.3,-155.1 h 858.4 c -44.3,45.1 -83.4,93.5 -117,144.4"
         style="fill:#ffffff;fill-opacity:1;fill-rule:nonzero;stroke:none"
         id="path1114"
         inkscape:connector-curvature="0" />
    </g>
    <g
       id="g1116"
       transform="matrix(0.0154194,0,0,-0.0154194,-232.10726,528.83842)">
      <path
         d="m 16094.7,16223.6 h -887.8 c 16.7,-49.6 35.8,-98.1 57,-145.4 H 16300 c -73.7,38.9 -142.7,87.6 -205.3,145.4"
         style="fill:#ffffff;fill-opacity:1;fill-rule:nonzero;stroke:none"
         id="path1118"
         inkscape:connector-curvature="0" />
    </g>
    <g
       id="g1120"
       transform="matrix(0.01571655,0,0,-0.01571655,-232.10726,528.83842)">
      <path
         d="m 14884.1,16300 c -9.1,0 -16.4,-7.3 -16.4,-16.3 0,-9 7.3,-16.3 16.4,-16.3 h 666.1 c -4.2,10.8 -8.3,21.7 -12.1,32.6 h -654"
         style="fill:#93cce5;fill-opacity:1;fill-rule:nonzero;stroke:none"
         id="path1122"
         inkscape:connector-curvature="0" />
    </g>
    <g
       id="g1124"
       transform="matrix(0.01554756,0,0,-0.01554756,-232.10726,528.83842)">
      <path
         d="m 15045.8,16267 h 765.3 c -7.2,10.9 -14,21.9 -20.7,33 h -744.6 c -9.1,0 -16.5,-7.4 -16.5,-16.5 0,-0.5 0.2,-0.9 0.2,-1.4 0.3,-1.4 0.6,-2.9 1,-4.4 2.3,-6.2 8.3,-10.7 15.3,-10.7"
         style="fill:#93cce5;fill-opacity:1;fill-rule:nonzero;stroke:none"
         id="path1126"
         inkscape:connector-curvature="0" />
    </g>
    <g
       id="g1128"
       transform="matrix(0.01537856,0,0,-0.01537856,-232.10726,528.83842)">
      <path
         d="m 16108.7,16294.1 c -2,2 -3.8,3.9 -5.7,5.9 h -866.6 c 3.5,-11.2 7.1,-22.3 10.9,-33.4 h 890.1 c -9.7,9 -19.3,18.1 -28.7,27.5"
         style="fill:#93cce5;fill-opacity:1;fill-rule:nonzero;stroke:none"
         id="path1130"
         inkscape:connector-curvature="0" />
    </g>
    <g
       id="g1132"
       transform="matrix(0.01548548,0,0,-0.01548548,-232.10726,528.83842)">
      <path
         d="m 16230.4,16009.6 h -1031.6 c 4.9,-11.1 10,-22.2 15.3,-33.1 H 16300 c -23.6,10.1 -46.8,21.1 -69.6,33.1"
         style="fill:#93cce5;fill-opacity:1;fill-rule:nonzero;stroke:none"
         id="path1134"
         inkscape:connector-curvature="0" />
    </g>
    <g
       id="g1136"
       transform="matrix(0.01569428,0,0,-0.01569428,-232.10726,528.83842)">
      <path
         d="m 16300,15604.8 c 0,9 -7.3,16.3 -16.3,16.3 h -1195.2 c 6.6,-11 13.4,-21.9 20.3,-32.7 h 1174.9 c 9,0 16.3,7.3 16.3,16.4"
         style="fill:#93cce5;fill-opacity:1;fill-rule:nonzero;stroke:none"
         id="path1138"
         inkscape:connector-curvature="0" />
    </g>
    <g
       id="g1140"
       transform="matrix(0.01569428,0,0,-0.01569428,-232.10726,528.83842)">
      <path
         d="m 16300,15429.3 c 0,9 -7.3,16.3 -16.3,16.3 h -1072.4 c 8.8,-11 17.7,-21.9 26.9,-32.7 h 1045.5 c 9,0 16.3,7.3 16.3,16.4"
         style="fill:#93cce5;fill-opacity:1;fill-rule:nonzero;stroke:none"
         id="path1142"
         inkscape:connector-curvature="0" />
    </g>
    <g
       id="g1144"
       transform="matrix(0.01569428,0,0,-0.01569428,-232.10726,528.83842)">
      <path
         d="m 16300,15253.7 c 0,9.1 -7.3,16.4 -16.3,16.4 h -909.1 c 12,-11.1 24,-22 36.3,-32.7 h 872.8 c 9,0 16.3,7.3 16.3,16.3"
         style="fill:#93cce5;fill-opacity:1;fill-rule:nonzero;stroke:none"
         id="path1146"
         inkscape:connector-curvature="0" />
    </g>
    <g
       id="g1148"
       transform="matrix(0.01569428,0,0,-0.01569428,-232.10726,528.83842)">
      <path
         d="m 16300,15078.2 c 0,9.1 -7.3,16.4 -16.3,16.4 h -682.8 c 17.5,-11.3 35.3,-22.1 53.3,-32.7 h 629.5 c 9,0 16.3,7.3 16.3,16.3"
         style="fill:#93cce5;fill-opacity:1;fill-rule:nonzero;stroke:none"
         id="path1150"
         inkscape:connector-curvature="0" />
    </g>
    <g
       id="g1152"
       transform="matrix(0.01688636,0,0,-0.01688636,-232.10726,528.83842)">
      <path
         d="m 15787.1,14972.9 c -131.3,-131.3 -305.9,-203.6 -491.5,-203.6 -185.7,0 -360.2,72.3 -491.5,203.6 -5.1,5.1 -10.1,10.3 -15,15.5 -1.2,1.3 -2.4,2.6 -3.6,4 -4.1,4.3 -8,8.6 -11.8,13 -0.9,1 -1.8,2 -2.7,3 -71.8,82.5 -120.9,178 -147.2,278.3 -0.7,2.5 -1.3,4.9 -1.9,7.3 -0.9,3.6 -1.8,7.2 -2.6,10.8 -26.8,113.5 -25.2,233.9 7.7,350 0.3,1 0.7,1.8 1,2.7 31.4,109.4 90.1,212.4 176.1,298.4 131.3,131.3 305.8,203.6 491.5,203.6 185.6,0 360.2,-72.3 491.5,-203.6 271,-271 271,-712 0,-983 z m 186.4,3 c 115,159 170.1,355.1 155.2,551.9 -15,198.9 -101,386.2 -242.3,527.5 -157.8,157.8 -367.7,244.7 -590.8,244.7 -223.2,0 -433,-86.9 -590.9,-244.7 -325.7,-325.8 -325.7,-855.9 0,-1181.7 157.8,-157.8 367.6,-244.7 590.8,-244.7 177,0 345.9,54.5 488.6,157.5 4.3,3.1 9.3,4.7 14.3,4.7 6.2,0 12.4,-2.5 17.2,-7.2 l 162.1,-162.1 160.5,160.5 -162.2,162.1 c -8.4,8.5 -9.4,21.8 -2.5,31.5"
         style="fill:#ffffff;fill-opacity:1;fill-rule:nonzero;stroke:none"
         id="path1154"
         inkscape:connector-curvature="0" />
    </g>
    <g
       id="g1156"
       transform="matrix(0.01715878,0,0,-0.01715878,-232.10726,528.83842)">
      <path
         d="m 15965.7,14528.7 c -22.6,0 -43.9,-8.8 -59.8,-24.8 l -138.1,-138.1 c -16,-16 -24.8,-37.2 -24.8,-59.8 0,-22.6 8.8,-43.8 24.8,-59.8 l 293,-293 c 90.5,81.7 171,174.5 239.2,276.2 l -274.5,274.5 c -16,16 -37.2,24.8 -59.8,24.8"
         style="fill:#93cce5;fill-opacity:1;fill-rule:nonzero;stroke:none"
         id="path1158"
         inkscape:connector-curvature="0" />
    </g>
    <g
       id="g1160"
       transform="matrix(0.01618597,0,0,-0.01618597,-232.10726,528.83842)">
      <path
         d="m 15303.8,16300 c -18.2,-71.6 -24.2,-144.6 -18.8,-216.3 h 668.8 c 14.1,0 25.4,-11.4 25.4,-25.4 0,-14 -11.3,-25.3 -25.4,-25.3 h -663 c 10.7,-70.5 32.4,-139.1 64.6,-203 h 598.4 c 14.1,0 25.4,-11.3 25.4,-25.3 0,-14 -11.3,-25.4 -25.4,-25.4 h -570.1 c 27.1,-44 59.5,-85.2 96.9,-122.6 30,-30 62.4,-56.8 96.6,-80.3 h 376.6 c 14.1,0 25.4,-11.4 25.4,-25.4 0,-14 -11.3,-25.3 -25.4,-25.3 h -289 c 90.1,-43.5 189.6,-66.5 292.6,-66.5 0.1,0 0.1,0 0.1,0 77.7,0 153.9,13.1 226.7,39.1 v 801.7 h -880.4"
         style="fill:#93cce5;fill-opacity:1;fill-rule:nonzero;stroke:none"
         id="path1162"
         inkscape:connector-curvature="0" />
    </g>
    <g
       id="g1164"
       transform="matrix(0.01597111,0,0,-0.01597111,-232.10726,528.83842)">
      <path
         d="m 16168.4,16248.6 c 14.2,0 25.7,11.5 25.7,25.7 0,14.2 -11.5,25.7 -25.7,25.7 h -677.8 -2.6 c 1.4,-17.2 3.4,-34.3 6.1,-51.4 h 2.3 672"
         style="fill:#ffffff;fill-opacity:1;fill-rule:nonzero;stroke:none"
         id="path1166"
         inkscape:connector-curvature="0" />
    </g>
    <g
       id="g1168"
       transform="matrix(0.01586738,0,0,-0.01586738,-232.10726,528.83842)">
      <path
         d="m 16300,16122 c 0,14.3 -11.6,25.8 -25.9,25.8 h -610.5 -1.8 c 8.9,-17.5 18.5,-34.8 29,-51.7 h 1.7 581.6 c 14.3,0 25.9,11.6 25.9,25.9"
         style="fill:#ffffff;fill-opacity:1;fill-rule:nonzero;stroke:none"
         id="path1170"
         inkscape:connector-curvature="0" />
    </g>
    <g
       id="g1172"
       transform="matrix(0.01586738,0,0,-0.01586738,-232.10726,528.83842)">
      <path
         d="m 16300,15863.2 c 0,14.3 -11.6,25.9 -25.9,25.9 h -384.1 -2.8 c 28.2,-19.6 57.5,-36.8 87.7,-51.7 h 4.4 294.8 c 14.3,0 25.9,11.6 25.9,25.8"
         style="fill:#ffffff;fill-opacity:1;fill-rule:nonzero;stroke:none"
         id="path1174"
         inkscape:connector-curvature="0" />
    </g>
    <g
       id="g1794"
       transform="matrix(0.01592915,0,0,-0.01592915,-232.10726,528.83842)">
      <path
         d="m 16248.5,15457 v -837 c 17.2,0.2 34.4,0.6 51.5,1.3 v 839.1 c -17.1,-1.5 -34.3,-2.7 -51.5,-3.4"
         style="fill:#594a42;fill-opacity:1;fill-rule:nonzero;stroke:none"
         id="path1796"
         inkscape:connector-curvature="0" />
    </g>
    <g
       id="g1798"
       transform="matrix(0.01597861,0,0,-0.01597861,-232.10726,528.83842)">
      <path
         d="m 15231.5,16300 h -634.4 c -1.5,-17.1 -2.7,-34.2 -3.6,-51.4 h 641.8 c -1.7,17.1 -3,34.2 -3.8,51.4"
         style="fill:#594a42;fill-opacity:1;fill-rule:nonzero;stroke:none"
         id="path1800"
         inkscape:connector-curvature="0" />
    </g>
    <g
       id="g1802"
       transform="matrix(0.01693674,0,0,-0.01693674,-232.10726,528.83842)">
      <path
         d="m 15930.2,14578.3 -161.7,161.7 c -4.7,4.7 -10.9,7.1 -17.1,7.1 -5,0 -9.9,-1.5 -14.2,-4.6 -142.3,-102.8 -310.7,-157.1 -487.2,-157.1 -222.5,0 -431.7,86.6 -589,243.9 -324.8,324.9 -324.8,853.4 0,1178.2 157.4,157.4 366.6,244 589.1,244 222.5,0 431.7,-86.6 589.1,-244 140.8,-140.8 226.6,-327.6 241.6,-525.9 14.8,-196.2 -40.1,-391.7 -154.7,-550.3 -7,-9.6 -6,-22.9 2.4,-31.3 l 161.7,-161.6 z m -1556.7,751.2 c 6.9,-69.2 22,-137.6 45.2,-203.8 3.5,-10.2 7.3,-20.3 11.2,-30.3 17.9,-45.5 39.6,-89.8 65.3,-132.4 6.1,-10.1 12.4,-20.3 19.1,-30.2 30.8,-46.7 66.6,-91.1 107.2,-132.4 1.7,-1.8 3.4,-3.6 5.3,-5.3 8.4,-8.6 17.2,-16.8 26,-25 57,-52.6 119.8,-96.9 186.9,-132.3 20.8,-11 42,-21.1 63.6,-30.3 108.1,-46.3 225.6,-70.6 346.7,-70.6 10.7,0 21.3,0.2 31.8,0.6 16.3,0.6 32.4,1.7 48.5,3.1 150.5,13.5 293.4,64.8 418.4,150.7 l 158.1,-158.2 c 6.4,20.7 17.7,39.6 33.4,55.3 l 139.9,139.9 c 15.8,15.7 34.7,27 55.3,33.4 l -158.2,158.2 c 113.2,164.7 167.1,364.6 151.9,565.3 -15.9,209.9 -106.6,407.6 -255.6,556.6 -166.6,166.5 -387.9,258.2 -623.4,258.2 -235.5,0 -456.9,-91.7 -623.3,-258.2 -182.2,-182.2 -267.8,-424.8 -256.9,-663.9 0.7,-16.2 1.9,-32.3 3.6,-48.4"
         style="fill:#594a42;fill-opacity:1;fill-rule:nonzero;stroke:none"
         id="path1804"
         inkscape:connector-curvature="0" />
    </g>
    <g
       id="g1806"
       transform="matrix(0.01674086,0,0,-0.01674086,-232.10726,528.83842)">
      <path
         d="m 15924.3,16094.6 c -132.4,132.5 -308.4,205.4 -495.8,205.4 -187.2,0 -363.3,-72.9 -495.7,-205.4 -86.7,-86.7 -145.9,-190.7 -177.6,-300.9 3.7,9 12.6,15.1 22.6,15.1 h 33.5 c 31.1,91.8 83.1,178.1 156.2,251.2 123.2,123.1 286.9,191 461,191 174.2,0 338,-67.9 461.1,-191 254.3,-254.3 254.3,-668 0,-922.2 -56.6,-56.7 -121.9,-101.6 -192.8,-133.6 v -36.7 c 0,-10.1 -6.2,-19.2 -15.7,-22.8 -80.8,-31.1 -165.7,-46.9 -252.6,-46.9 0,0 0,0 0,0 -187.3,0 -363.3,72.9 -495.7,205.3 132.4,-132.4 308.5,-205.4 495.7,-205.4 187.4,0 363.4,73 495.8,205.4 273.4,273.4 273.4,718.2 0,991.5"
         style="fill:#594a42;fill-opacity:1;fill-rule:nonzero;stroke:none"
         id="path1808"
         inkscape:connector-curvature="0" />
    </g>
    <g
       id="g1810"
       transform="matrix(0.0158367,0,0,-0.0158367,-232.10726,528.83842)">
      <path
         d="m 15593.1,16300 c 28.1,-107 80.5,-208.8 157,-296.8 -75.3,86.6 -128.4,188.5 -157,296.8"
         style="fill:#594a42;fill-opacity:1;fill-rule:nonzero;stroke:none"
         id="path1812"
         inkscape:connector-curvature="0" />
    </g>
    <g
       id="g1814"
       transform="matrix(0.01585537,0,0,-0.01585537,-232.10726,528.83842)">
      <path
         d="m 15572.7,16288.6 c -1,3.8 -1.9,7.6 -2.8,11.4 0.9,-3.8 1.8,-7.6 2.8,-11.4"
         style="fill:#594a42;fill-opacity:1;fill-rule:nonzero;stroke:none"
         id="path1816"
         inkscape:connector-curvature="0" />
    </g>
    <g
       id="g1818"
       transform="matrix(0.0155452,0,0,-0.0155452,-232.10726,528.83842)">
      <path
         d="m 16061.1,16285.8 c -4.4,4.7 -8.7,9.4 -12.8,14.2 4.1,-4.8 8.4,-9.5 12.8,-14.2"
         style="fill:#594a42;fill-opacity:1;fill-rule:nonzero;stroke:none"
         id="path1820"
         inkscape:connector-curvature="0" />
    </g>
    <g
       id="g1822"
       transform="matrix(0.01552755,0,0,-0.01552755,-232.10726,528.83842)">
      <path
         d="m 16083.3,16300 c 5.3,-5.7 10.7,-11.3 16.2,-16.8 -5.5,5.5 -10.9,11.1 -16.2,16.8"
         style="fill:#594a42;fill-opacity:1;fill-rule:nonzero;stroke:none"
         id="path1824"
         inkscape:connector-curvature="0" />
    </g>
    <g
       id="g1826"
       transform="matrix(0.01718669,0,0,-0.01718669,-232.10726,528.83842)">
      <path
         d="m 15939.7,14552.8 c -13.4,0 -26.5,-2 -39,-5.8 -20.3,-6.3 -39,-17.4 -54.5,-32.9 l -137.8,-137.9 c -15.5,-15.5 -26.7,-34.1 -32.9,-54.5 -3.8,-12.5 -5.9,-25.6 -5.9,-39 0,-35.3 13.8,-68.5 38.8,-93.4 l 290.1,-290.2 c 12.3,10.3 24.3,20.7 36.1,31.4 l -292.4,292.5 c -16,16 -24.8,37.2 -24.8,59.7 0,22.6 8.8,43.8 24.8,59.7 l 137.8,137.9 c 15.9,15.9 37.1,24.7 59.7,24.7 22.6,0 43.8,-8.8 59.7,-24.7 l 274.1,-274.1 c 9.1,13.5 17.8,27.2 26.5,41.1 l -266.8,266.8 c -25,24.9 -58.2,38.7 -93.5,38.7"
         style="fill:#594a42;fill-opacity:1;fill-rule:nonzero;stroke:none"
         id="path1828"
         inkscape:connector-curvature="0" />
    </g>
    <g
       id="g1830"
       transform="matrix(0.01623635,0,0,-0.01623635,-232.10726,528.83842)">
      <path
         d="m 16134,15450.2 c -72.6,-25.8 -148.5,-38.9 -226,-38.9 0,0 0,0 -0.1,0 -102.7,0 -201.9,22.9 -291.7,66.2 h -4.3 c -29.5,14.6 -58.1,31.5 -85.6,50.6 h 2.6 c -34.1,23.4 -66.4,50.1 -96.3,80.1 -37.3,37.3 -69.6,78.3 -96.6,122.2 h -1.7 c -10.3,16.5 -19.7,33.4 -28.4,50.5 h 1.8 c -32,63.7 -53.7,132.1 -64.4,202.3 h -2.3 c -2.6,16.8 -4.6,33.7 -5.9,50.6 h 2.5 c -5.4,71.5 0.6,144.3 18.8,215.6 h 877.6 z m -226.1,-89.5 c 0.1,0 0.1,0 0.1,0 89.5,0 177.1,16.3 260.3,48.3 9.8,3.8 16.3,13.2 16.3,23.6 v 37.8 804.3 c 0,14 -11.4,25.3 -25.3,25.3 h -887.8 -34.5 c -10.3,0 -19.4,-6.3 -23.3,-15.6 -0.4,-0.9 -0.8,-1.8 -1.1,-2.8 -34.2,-120.8 -35.9,-246 -8,-364 0.9,-3.8 1.8,-7.5 2.7,-11.2 0.7,-2.5 1.3,-5.1 2,-7.6 27.9,-105.7 79.7,-205 153.1,-289.5 1,-1 1.8,-2.1 2.8,-3.1 4,-4.6 8.1,-9.1 12.2,-13.6 1.3,-1.3 2.6,-2.7 3.8,-4.1 5.2,-5.4 10.3,-10.8 15.6,-16.1 136.5,-136.5 318,-211.7 511.1,-211.7"
         style="fill:#594a42;fill-opacity:1;fill-rule:nonzero;stroke:none"
         id="path1832"
         inkscape:connector-curvature="0" />
    </g>
    <g
       id="g1834"
       transform="matrix(0.01741991,0,0,-0.01741991,-232.10726,528.83842)">
      <path
         d="m 15226.7,16206.3 c -2.5,0 -5.1,0.4 -7.7,1.1 -48.5,13.2 -98.4,23.9 -148.2,31.9 -16,2.5 -27,17.6 -24.4,33.7 2.6,16.1 17.7,27 33.7,24.4 51.9,-8.3 103.8,-19.4 154.3,-33.2 15.7,-4.2 25,-20.4 20.7,-36.1 -3.5,-13.1 -15.4,-21.8 -28.4,-21.8"
         style="fill:#594a42;fill-opacity:1;fill-rule:nonzero;stroke:none"
         id="path1836"
         inkscape:connector-curvature="0" />
    </g>
    <g
       id="g1838"
       transform="matrix(0.01745367,0,0,-0.01745367,-232.10726,528.83842)">
      <path
         d="m 14814.4,13313.4 c -396.8,0 -769.8,154.6 -1050.4,435.2 -280.6,280.6 -435.2,653.6 -435.2,1050.4 0,396.9 154.6,769.9 435.2,1050.5 280.6,280.6 653.6,435.1 1050.4,435.1 16.3,0 29.4,-13.1 29.4,-29.4 0,-16.2 -13.1,-29.4 -29.4,-29.4 -381.1,0 -739.4,-148.4 -1008.9,-417.9 -269.5,-269.4 -417.9,-627.7 -417.9,-1008.9 0,-381.1 148.4,-739.4 417.9,-1008.9 269.5,-269.5 627.8,-417.9 1008.9,-417.9 381.2,0 739.4,148.4 1008.9,417.9 269.5,269.5 417.9,627.8 417.9,1008.9 0,267.4 -74.4,528 -215.1,753.8 -136.8,219.6 -330.7,398 -560.5,516.1 -14.5,7.5 -20.1,25.2 -12.7,39.6 7.4,14.5 25.1,20.1 39.5,12.7 239.3,-122.9 441.1,-308.7 583.6,-537.4 146.6,-235 224,-506.4 224,-784.8 0,-396.8 -154.5,-769.8 -435.1,-1050.4 -280.6,-280.6 -653.6,-435.2 -1050.5,-435.2"
         style="fill:#594a42;fill-opacity:1;fill-rule:nonzero;stroke:none"
         id="path1840"
         inkscape:connector-curvature="0" />
    </g>
    <g
       id="g1842"
       transform="matrix(0.01734244,0,0,-0.01734244,-232.10726,528.83842)">
      <path
         d="m 15476.1,16262.4 c 0,-20.8 -16.8,-37.7 -37.6,-37.7 -20.8,0 -37.7,16.9 -37.7,37.7 0,20.8 16.9,37.6 37.7,37.6 20.8,0 37.6,-16.8 37.6,-37.6"
         style="fill:#594a42;fill-opacity:1;fill-rule:nonzero;stroke:none"
         id="path1844"
         inkscape:connector-curvature="0" />
    </g>
    <path
       style="opacity:1;fill:#5fd35f;fill-opacity:1;stroke-width:0;stroke-miterlimit:4;stroke-dasharray:none"
       d="m 153.61666,160.2943 c -8.15594,-8.18652 -9.45544,-9.63801 -9.66801,-10.79883 -0.45794,-2.50063 0.42895,-3.88022 6.11653,-9.51456 8.29324,-8.2156 7.70372,-8.31962 19.51865,3.44386 l 8.64901,8.61134 -1.69086,2.47466 c -2.11092,3.08944 -7.44234,9.29638 -10.88956,12.67783 l -2.61332,2.56346 z"
       id="path7158"
       inkscape:connector-curvature="0"
       transform="matrix(0.26458333,0,0,0.26458333,0,244.08332)" />
    <path
       style="opacity:1;fill:#5fd35f;fill-opacity:1;stroke-width:0;stroke-miterlimit:4;stroke-dasharray:none"
       d="m 94.72142,130.1472 c -3.368381,-0.34758 -7.451715,-1.32797 -10.507691,-2.52285 l -2.121321,-0.82943 8.662058,-0.17678 c 4.764132,-0.0972 8.860932,-0.30549 9.104,-0.46281 0.704004,-0.45564 0.540224,-2.28814 -0.241922,-2.70673 -0.432042,-0.23122 -5.009237,-0.36599 -12.430098,-0.36599 H 75.44021 l -1.873445,-1.44535 c -2.434409,-1.87814 -6.454533,-6.12126 -8.064863,-8.51222 l -1.270548,-1.88647 17.73095,-0.17678 c 15.723266,-0.15676 17.77122,-0.24064 18.086586,-0.74077 0.53621,-0.85036 0.0236,-2.32513 -0.893663,-2.57091 -0.43965,-0.11781 -8.961943,-0.21637 -18.93843,-0.21902 l -18.139067,-0.005 -0.877393,-1.98394 C 60.332362,103.57967 58.883872,98.876756 58.4629,96.654491 l -0.217668,-1.149049 h 20.603324 c 21.704884,0 21.451854,0.01877 21.451854,-1.59099 0,-1.610529 0.2663,-1.59099 -21.684396,-1.59099 H 57.780148 l 0.189759,-4.507806 c 0.104367,-2.479293 0.386097,-5.422625 0.626065,-6.540738 l 0.436307,-2.032932 h 26.821249 26.821252 v 24.366774 24.36677 l -1.68696,0.56031 c -4.36426,1.44958 -11.236763,2.13037 -16.2664,1.61136 z"
       id="path7160"
       inkscape:connector-curvature="0"
       transform="matrix(0.26458333,0,0,0.26458333,0,244.08332)" />
    <path
       style="opacity:1;fill:#5fd35f;fill-opacity:1;stroke-width:0;stroke-miterlimit:4;stroke-dasharray:none"
       d="m 8.022973,119.3703 v -0.88389 h 21.333229 21.33323 l 0.402726,0.88389 0.402722,0.88388 H 29.758927 8.022973 Z"
       id="path7164"
       inkscape:connector-curvature="0"
       transform="matrix(0.26458333,0,0,0.26458333,0,244.08332)" />
    <path
       style="opacity:1;fill:#5fd35f;fill-opacity:1;stroke-width:0;stroke-miterlimit:4;stroke-dasharray:none"
       d="m 6.5063177,108.94047 c -0.1832808,-0.70087 -0.010848,-0.70711 19.5397423,-0.70711 19.427314,0 19.727442,0.0107 19.909568,0.70711 0.183282,0.70087 0.01085,0.70711 -19.539743,0.70711 -19.427315,0 -19.7274422,-0.0107 -19.9095673,-0.70711 z"
       id="path7166"
       inkscape:connector-curvature="0"
       transform="matrix(0.26458333,0,0,0.26458333,0,244.08332)" />
    <path
       style="opacity:1;fill:#5fd35f;fill-opacity:1;stroke-width:0;stroke-miterlimit:4;stroke-dasharray:none"
       d="m 10.748958,129.80012 c -0.183578,-0.70201 -0.01085,-0.70711 23.945599,-0.70711 23.6815,0 24.142417,0.0132 24.770434,0.70711 0.639342,0.70646 0.617527,0.70711 -23.945598,0.70711 -24.288182,0 -24.587758,-0.009 -24.770435,-0.70711 z"
       id="path7168"
       inkscape:connector-curvature="0"
       transform="matrix(0.26458333,0,0,0.26458333,0,244.08332)" />
    <path
       style="opacity:1;fill:#5fd35f;fill-opacity:1;stroke-width:0;stroke-miterlimit:4;stroke-dasharray:none"
       d="m 15.10648,140.42997 c -0.201296,-0.37613 -0.365993,-0.77388 -0.365993,-0.88389 0,-0.11001 13.085895,-0.19283 29.079767,-0.18404 l 29.079766,0.016 1.59099,0.85194 1.590991,0.85193 -30.304764,0.016 c -29.608139,0.0156 -30.313177,2.6e-4 -30.670757,-0.66788 z"
       id="path7170"
       inkscape:connector-curvature="0"
       transform="matrix(0.26458333,0,0,0.26458333,0,244.08332)" />
    <path
       style="opacity:1;fill:#5fd35f;fill-opacity:1;stroke-width:0;stroke-miterlimit:4;stroke-dasharray:none"
       d="m 20.835941,150.66457 c -0.24123,-0.38627 -0.438599,-0.78402 -0.438599,-0.88389 0,-0.25879 67.708394,-0.22609 68.383664,0.033 0.307588,0.11804 0.559247,0.51578 0.559247,0.88389 0,0.65203 -0.876855,0.66928 -34.032855,0.66928 -33.572466,0 -34.038791,-0.01 -34.471457,-0.70231 z"
       id="path7174"
       inkscape:connector-curvature="0"
       transform="matrix(0.26458333,0,0,0.26458333,0,244.08332)" />
    <path
       style="opacity:1;fill:#5fd35f;fill-opacity:1;stroke-width:0;stroke-miterlimit:4;stroke-dasharray:none"
       d="m 28.762439,161.32891 c -0.322807,-0.3567 -0.586923,-0.75534 -0.586923,-0.88587 0,-0.13053 13.773131,-0.23733 30.606959,-0.23733 h 30.606957 l -0.112978,0.7955 -0.112978,0.79549 -29.907057,0.0904 c -28.621457,0.0865 -29.932286,0.0625 -30.49398,-0.55817 z"
       id="path7176"
       inkscape:connector-curvature="0"
       transform="matrix(0.26458333,0,0,0.26458333,0,244.08332)" />
    <path
       style="opacity:1;fill:#5fd35f;fill-opacity:1;stroke-width:0;stroke-miterlimit:4;stroke-dasharray:none"
       d="m 38.890222,171.35233 -0.991988,-0.87421 25.632621,0.0787 25.632621,0.0787 0.112978,0.79549 0.112978,0.7955 H 64.635821 39.882209 Z"
       id="path7178"
       inkscape:connector-curvature="0"
       transform="matrix(0.26458333,0,0,0.26458333,0,244.08332)" />
    <path
       style="opacity:1;fill:#5fd35f;fill-opacity:1;stroke-width:0;stroke-miterlimit:4;stroke-dasharray:none"
       d="m 53.808137,181.92363 -1.414213,-0.84664 18.497754,-0.006 18.497754,-0.006 -0.112978,0.7955 -0.112978,0.79549 -16.970563,0.057 -16.970562,0.057 z"
       id="path7180"
       inkscape:connector-curvature="0"
       transform="matrix(0.26458333,0,0,0.26458333,0,244.08332)" />
  </g>
</svg>
