<?xml version="1.0" encoding="UTF-8" standalone="no"?>
<!-- Created with Inkscape (http://www.inkscape.org/) -->

<svg
   xmlns:dc="http://purl.org/dc/elements/1.1/"
   xmlns:cc="http://creativecommons.org/ns#"
   xmlns:rdf="http://www.w3.org/1999/02/22-rdf-syntax-ns#"
   xmlns:svg="http://www.w3.org/2000/svg"
   xmlns="http://www.w3.org/2000/svg"
   xmlns:sodipodi="http://sodipodi.sourceforge.net/DTD/sodipodi-0.dtd"
   xmlns:inkscape="http://www.inkscape.org/namespaces/inkscape"
   width="200"
   height="200"
   viewBox="0 0 52.916665 52.916668"
   version="1.1"
   id="svg2208"
   inkscape:version="0.92.4 (5da689c313, 2019-01-14)"
   sodipodi:docname="icon_music.svg">
  <defs
     id="defs2202" />
  <sodipodi:namedview
     id="base"
     pagecolor="#ffffff"
     bordercolor="#666666"
     borderopacity="1.0"
     inkscape:pageopacity="0.0"
     inkscape:pageshadow="2"
     inkscape:zoom="0.35"
     inkscape:cx="-185.71429"
     inkscape:cy="560"
     inkscape:document-units="px"
     inkscape:current-layer="layer1"
     showgrid="false"
     units="px"
     inkscape:pagecheckerboard="true"
     inkscape:window-width="1920"
     inkscape:window-height="1016"
     inkscape:window-x="0"
     inkscape:window-y="27"
     inkscape:window-maximized="1" />
  <metadata
     id="metadata2205">
    <rdf:RDF>
      <cc:Work
         rdf:about="">
        <dc:format>image/svg+xml</dc:format>
        <dc:type
           rdf:resource="http://purl.org/dc/dcmitype/StillImage" />
        <dc:title></dc:title>
      </cc:Work>
    </rdf:RDF>
  </metadata>
  <g
     inkscape:label="Layer 1"
     inkscape:groupmode="layer"
     id="layer1"
     transform="translate(0,-244.08332)">
    <path
       d="m 17.791064,286.82581 h -1.812852 v -4.04372 h 1.812852 v 4.04372"
       style="fill:#81c9c0;fill-opacity:1;fill-rule:nonzero;stroke:none;stroke-width:0.01026064"
       id="path1356"
       inkscape:connector-curvature="0" />
    <path
       d="m 24.192371,274.71722 c 0,0.84138 -0.624359,1.52371 -1.394523,1.52371 v 0 c -0.770164,0 -1.394422,-0.68233 -1.394422,-1.52371 v -7.25017 c 0,-0.84137 0.624258,-1.52268 1.394422,-1.52268 v 0 c 0.770164,0 1.394523,0.68131 1.394523,1.52268 v 7.25017"
       style="fill:#81c9c0;fill-opacity:1;fill-rule:nonzero;stroke:none;stroke-width:0.01026064"
       id="path1358"
       inkscape:connector-curvature="0" />
    <path
       d="m 19.439744,275.55449 c -2.243082,0 -4.061369,-1.81818 -4.061369,-4.06116 v -0.80238 c 0,-2.24298 1.818287,-4.06117 4.061369,-4.06117 h 1.963682 v 8.92471 h -1.963682"
       style="fill:#ffffff;fill-opacity:1;fill-rule:nonzero;stroke:none;stroke-width:0.01026064"
       id="path1360"
       inkscape:connector-curvature="0" />
    <path
       d="m 35.125606,286.82581 h 1.812848 v -4.04372 h -1.812848 v 4.04372"
       style="fill:#81c9c0;fill-opacity:1;fill-rule:nonzero;stroke:none;stroke-width:0.01026064"
       id="path1362"
       inkscape:connector-curvature="0" />
    <path
       d="m 28.724294,274.71722 c 0,0.84138 0.624363,1.52371 1.394423,1.52371 v 0 c 0.770164,0 1.394524,-0.68233 1.394524,-1.52371 v -7.25017 c 0,-0.84137 -0.62436,-1.52268 -1.394524,-1.52268 v 0 c -0.77006,0 -1.394423,0.68131 -1.394423,1.52268 v 7.25017"
       style="fill:#81c9c0;fill-opacity:1;fill-rule:nonzero;stroke:none;stroke-width:0.01026064"
       id="path1364"
       inkscape:connector-curvature="0" />
    <path
       d="m 33.476923,275.55449 c 2.242979,0 4.061369,-1.81818 4.061369,-4.06116 v -0.80238 c 0,-2.24298 -1.81839,-4.06117 -4.061369,-4.06117 h -1.963682 v 8.92471 h 1.963682"
       style="fill:#ffffff;fill-opacity:1;fill-rule:nonzero;stroke:none;stroke-width:0.01026064"
       id="path1366"
       inkscape:connector-curvature="0" />
    <path
       d="m 15.378375,271.49333 v 11.28876 h 3.012527 v -7.36919 c -1.733743,-0.46276 -3.012527,-2.03982 -3.012527,-3.91957"
       style="fill:#ffffff;fill-opacity:1;fill-rule:nonzero;stroke:none;stroke-width:0.01026064"
       id="path1368"
       inkscape:connector-curvature="0" />
    <path
       d="m 34.525768,275.4129 v 7.36919 h 3.012629 v -11.28876 c 0,1.87975 -1.278887,3.45681 -3.012629,3.91957"
       style="fill:#ffffff;fill-opacity:1;fill-rule:nonzero;stroke:none;stroke-width:0.01026064"
       id="path1370"
       inkscape:connector-curvature="0" />
    <path
       d="m 37.089288,255.10502 h -1.456604 v 5.82805 c -0.475783,-0.0811 -1.019393,-0.0308 -1.55428,0.17238 -1.258675,0.47815 -1.991491,1.62323 -1.636676,2.55593 0.354814,0.93372 1.662736,1.30207 2.921513,0.82393 1.048947,-0.39914 1.731998,-1.26001 1.72543,-2.07676 h 5.82e-4 v -5.48842 h 4.999294 v 5.87833 c -0.475786,-0.0811 -1.019291,-0.0318 -1.554283,0.17238 -1.258672,0.47814 -1.991488,1.6222 -1.636676,2.55592 0.354814,0.93269 1.662841,1.30208 2.921516,0.82291 1.048944,-0.39812 1.732099,-1.26001 1.72543,-2.07573 h 5.82e-4 v -7.35381 -0.45865 -1.35646 h -6.455895"
       style="fill:#81c9c0;fill-opacity:1;fill-rule:nonzero;stroke:none;stroke-width:0.01026064"
       id="path1372"
       inkscape:connector-curvature="0" />
    <path
       d="M 28.085569,251.24292 H 24.07181 v 5.82804 c -0.475786,-0.0811 -1.019291,-0.0308 -1.554283,0.17238 -1.258672,0.47815 -1.991488,1.62324 -1.636677,2.55593 0.354815,0.93372 1.662842,1.30208 2.921517,0.82393 1.049048,-0.39914 1.732099,-1.26001 1.72543,-2.07676 h 5.81e-4 v -5.48841 h 2.557055 v -1.81511"
       style="fill:#81c9c0;fill-opacity:1;fill-rule:nonzero;stroke:none;stroke-width:0.01026064"
       id="path1374"
       inkscape:connector-curvature="0" />
    <path
       d="m 33.14058,246.5261 c -0.04453,0 -0.08978,-0.006 -0.134824,-0.0185 -0.845786,-0.22984 -1.714247,-0.41658 -2.581068,-0.5551 -0.279806,-0.0452 -0.470245,-0.30782 -0.425404,-0.58794 0.04474,-0.28011 0.308639,-0.46994 0.587523,-0.42582 0.902834,0.14468 1.807107,0.33963 2.688086,0.57871 0.273344,0.0749 0.434846,0.35604 0.360559,0.63 -0.06218,0.22881 -0.269036,0.37862 -0.494872,0.37862"
       style="fill:#594a42;fill-opacity:1;fill-rule:nonzero;stroke:none;stroke-width:0.01026064"
       id="path2096"
       inkscape:connector-curvature="0" />
    <path
       d="m 26.458334,296.47082 c -6.925936,0 -13.437343,-2.69752 -18.3347488,-7.59493 -4.897304,-4.89741 -7.59441854,-11.40881 -7.59441854,-18.33475 0,-6.92594 2.69711454,-13.43734 7.59441854,-18.33475 4.8974058,-4.89638 11.4088128,-7.5939 18.3347488,-7.5939 0.283297,0 0.513033,0.22983 0.513033,0.51303 0,0.28319 -0.229736,0.51303 -0.513033,0.51303 -6.651874,0 -12.905533,2.59082 -17.6091172,7.2943 -4.7035812,4.70347 -7.2939848,10.95631 -7.2939848,17.60829 0,6.65198 2.5904036,12.90584 7.2939848,17.60932 4.7035842,4.70348 10.9572432,7.29429 17.6091172,7.29429 6.651771,0 12.905532,-2.59081 17.609116,-7.29429 4.703584,-4.70348 7.293985,-10.95734 7.293985,-17.60932 0,-4.66551 -1.298176,-9.21509 -3.754165,-13.15415 -2.389191,-3.83338 -5.772434,-6.94851 -9.783834,-9.00987 -0.252001,-0.12929 -0.351325,-0.43916 -0.221834,-0.69054 0.129488,-0.25241 0.438848,-0.35194 0.690849,-0.22266 4.176186,2.14653 7.698255,5.38992 10.185642,9.38028 2.557464,4.10221 3.909407,8.83852 3.909407,13.69694 0,6.92594 -2.697115,13.43734 -7.594416,18.33475 -4.897408,4.89741 -11.408812,7.59493 -18.33475,7.59493"
       style="fill:#594a42;fill-opacity:1;fill-rule:nonzero;stroke:none;stroke-width:0.01026064"
       id="path2098"
       inkscape:connector-curvature="0" />
    <path
       d="m 36.287316,246.80929 c 0,0.36015 -0.292328,0.65258 -0.652988,0.65258 -0.360559,0 -0.652884,-0.29243 -0.652884,-0.65258 0,-0.36117 0.292325,-0.6536 0.652884,-0.6536 0.36066,0 0.652988,0.29243 0.652988,0.6536"
       style="fill:#594a42;fill-opacity:1;fill-rule:nonzero;stroke:none;stroke-width:0.01026064"
       id="path2100"
       inkscape:connector-curvature="0" />
    <path
       d="m 16.388638,286.41539 h 0.991896 v -3.22287 h -0.991896 z m 1.402321,0.82085 h -1.812747 c -0.226659,0 -0.410425,-0.18367 -0.410425,-0.41043 v -4.04372 c 0,-0.22676 0.183766,-0.41042 0.410425,-0.41042 h 1.812747 c 0.226659,0 0.410426,0.18366 0.410426,0.41042 v 4.04372 c 0,0.22676 -0.183767,0.41043 -0.410426,0.41043"
       style="fill:#594a42;fill-opacity:1;fill-rule:nonzero;stroke:none;stroke-width:0.01026064"
       id="path2102"
       inkscape:connector-curvature="0" />
    <path
       d="m 22.797848,266.3548 c -0.542583,0 -0.983997,0.49866 -0.983997,1.11225 v 7.25017 c 0,0.61359 0.441414,1.11329 0.983997,1.11329 0.542685,0 0.984098,-0.4997 0.984098,-1.11329 v -7.25017 c 0,-0.61359 -0.441413,-1.11225 -0.984098,-1.11225 z m 0,10.29656 c -0.995078,0 -1.804848,-0.86805 -1.804848,-1.93414 v -7.25017 c 0,-1.06608 0.80977,-1.9331 1.804848,-1.9331 0.995284,0 1.804949,0.86702 1.804949,1.9331 v 7.25017 c 0,1.06609 -0.809665,1.93414 -1.804949,1.93414"
       style="fill:#594a42;fill-opacity:1;fill-rule:nonzero;stroke:none;stroke-width:0.01026064"
       id="path2104"
       inkscape:connector-curvature="0" />
    <path
       d="m 19.439744,267.04021 c -2.013139,0 -3.650944,1.6376 -3.650944,3.65074 v 0.80238 c 0,2.01314 1.637805,3.65074 3.650944,3.65074 H 20.993 v -8.10386 z m 1.963682,8.92471 h -1.963682 c -2.465735,0 -4.471795,-2.00596 -4.471795,-4.47159 v -0.80238 c 0,-2.46564 2.00606,-4.47159 4.471795,-4.47159 h 1.963682 c 0.226659,0 0.410425,0.18366 0.410425,0.41042 v 8.92471 c 0,0.22676 -0.183766,0.41043 -0.410425,0.41043"
       style="fill:#594a42;fill-opacity:1;fill-rule:nonzero;stroke:none;stroke-width:0.01026064"
       id="path2106"
       inkscape:connector-curvature="0" />
    <path
       d="m 35.536031,286.41539 h 0.991998 v -3.22287 h -0.991998 z m 1.402423,0.82085 h -1.812848 c -0.226659,0 -0.410426,-0.18367 -0.410426,-0.41043 v -4.04372 c 0,-0.22676 0.183767,-0.41042 0.410426,-0.41042 h 1.812848 c 0.226659,0 0.410426,0.18366 0.410426,0.41042 v 4.04372 c 0,0.22676 -0.183767,0.41043 -0.410426,0.41043"
       style="fill:#594a42;fill-opacity:1;fill-rule:nonzero;stroke:none;stroke-width:0.01026064"
       id="path2108"
       inkscape:connector-curvature="0" />
    <path
       d="m 30.118717,266.3548 c -0.542583,0 -0.983997,0.49866 -0.983997,1.11225 v 7.25017 c 0,0.61359 0.441414,1.11329 0.983997,1.11329 0.542685,0 0.984098,-0.4997 0.984098,-1.11329 v -7.25017 c 0,-0.61359 -0.441413,-1.11225 -0.984098,-1.11225 z m 0,10.29656 c -0.995181,0 -1.804848,-0.86805 -1.804848,-1.93414 v -7.25017 c 0,-1.06608 0.809667,-1.9331 1.804848,-1.9331 0.995284,0 1.804949,0.86702 1.804949,1.9331 v 7.25017 c 0,1.06609 -0.809665,1.93414 -1.804949,1.93414"
       style="fill:#594a42;fill-opacity:1;fill-rule:nonzero;stroke:none;stroke-width:0.01026064"
       id="path2110"
       inkscape:connector-curvature="0" />
    <path
       d="m 31.923666,275.14407 h 1.553257 c 2.013139,0 3.650943,-1.6376 3.650943,-3.65074 v -0.80238 c 0,-2.01314 -1.637804,-3.65074 -3.650943,-3.65074 h -1.553257 z m 1.553257,0.82085 h -1.963682 c -0.226656,0 -0.410426,-0.18367 -0.410426,-0.41043 v -8.92471 c 0,-0.22676 0.18377,-0.41042 0.410426,-0.41042 h 1.963682 c 2.465738,0 4.471795,2.00595 4.471795,4.47159 v 0.80238 c 0,2.46563 -2.006057,4.47159 -4.471795,4.47159"
       style="fill:#594a42;fill-opacity:1;fill-rule:nonzero;stroke:none;stroke-width:0.01026064"
       id="path2112"
       inkscape:connector-curvature="0" />
    <path
       d="m 31.204396,295.80285 c -0.226656,0 -0.410426,-0.18366 -0.410426,-0.41042 v -4.10939 c 0,-0.72543 -0.193824,-1.26924 -0.576136,-1.61503 -0.581572,-0.52739 -1.44429,-0.45762 -1.452803,-0.4566 -0.01364,10e-4 -0.02719,0.002 -0.04074,0.002 h -9.226988 c -1.293458,0 -2.196291,-0.32116 -2.683261,-0.95424 -0.539814,-0.70183 -0.335112,-1.50421 -0.326084,-1.53807 0.05818,-0.21958 0.282887,-0.34989 0.501951,-0.29141 0.218038,0.0575 0.348247,0.28012 0.292223,0.49867 -0.0064,0.0267 -0.104762,0.46481 0.188898,0.8383 0.321671,0.4094 1.022371,0.6259 2.026273,0.6259 h 9.210264 c 0.178945,-0.0134 1.2597,-0.0595 2.061262,0.66694 0.56136,0.5079 0.845989,1.2559 0.845989,2.22348 v 4.10939 c 0,0.22676 -0.183665,0.41043 -0.410425,0.41043"
       style="fill:#594a42;fill-opacity:1;fill-rule:nonzero;stroke:none;stroke-width:0.01026064"
       id="path2114"
       inkscape:connector-curvature="0" />
    <path
       d="m 36.032031,294.25247 c -0.226658,0 -0.410428,-0.18367 -0.410428,-0.41043 v -7.01623 c 0,-0.22573 0.18377,-0.41042 0.410428,-0.41042 0.226656,0 0.410426,0.18469 0.410426,0.41042 v 7.01623 c 0,0.22676 -0.18377,0.41043 -0.410426,0.41043"
       style="fill:#594a42;fill-opacity:1;fill-rule:nonzero;stroke:none;stroke-width:0.01026064"
       id="path2116"
       inkscape:connector-curvature="0" />
    <path
       d="m 15.7888,282.37167 h 2.191676 v -6.65506 c -0.90263,-0.31192 -1.661509,-0.89678 -2.191676,-1.64581 z m 2.602102,0.82085 h -3.012527 c -0.226659,0 -0.410426,-0.18367 -0.410426,-0.41043 v -11.28876 c 0,-0.22676 0.183767,-0.41043 0.410426,-0.41043 0.226658,0 0.410425,0.18367 0.410425,0.41043 0,1.64888 1.113487,3.09666 2.707888,3.52248 0.179663,0.0482 0.304639,0.21137 0.304639,0.39709 v 7.36919 c 0,0.22676 -0.183769,0.41043 -0.410425,0.41043"
       style="fill:#594a42;fill-opacity:1;fill-rule:nonzero;stroke:none;stroke-width:0.01026064"
       id="path2118"
       inkscape:connector-curvature="0" />
    <path
       d="m 34.936193,282.37167 h 2.191673 v -8.30087 c -0.530166,0.74903 -1.289147,1.33389 -2.191673,1.64581 z m 2.602099,0.82085 h -3.012524 c -0.226659,0 -0.410426,-0.18367 -0.410426,-0.41043 v -7.36919 c 0,-0.18572 0.124872,-0.34887 0.304535,-0.39709 1.594404,-0.42582 2.707989,-1.8736 2.707989,-3.52248 0,-0.22676 0.183872,-0.41043 0.410426,-0.41043 0.226659,0 0.410426,0.18367 0.410426,0.41043 v 11.28876 c 0,0.22676 -0.183767,0.41043 -0.410426,0.41043"
       style="fill:#594a42;fill-opacity:1;fill-rule:nonzero;stroke:none;stroke-width:0.01026064"
       id="path2120"
       inkscape:connector-curvature="0" />
  </g>
</svg>
