<?xml version="1.0" encoding="UTF-8" standalone="no"?>
<!-- Created with Inkscape (http://www.inkscape.org/) -->

<svg
   xmlns:dc="http://purl.org/dc/elements/1.1/"
   xmlns:cc="http://creativecommons.org/ns#"
   xmlns:rdf="http://www.w3.org/1999/02/22-rdf-syntax-ns#"
   xmlns:svg="http://www.w3.org/2000/svg"
   xmlns="http://www.w3.org/2000/svg"
   xmlns:sodipodi="http://sodipodi.sourceforge.net/DTD/sodipodi-0.dtd"
   xmlns:inkscape="http://www.inkscape.org/namespaces/inkscape"
   width="200"
   height="200"
   viewBox="0 0 52.916665 52.916668"
   version="1.1"
   id="svg2208"
   inkscape:version="0.92.4 (5da689c313, 2019-01-14)"
   sodipodi:docname="icon_alarm.svg">
  <defs
     id="defs2202" />
  <sodipodi:namedview
     id="base"
     pagecolor="#ffffff"
     bordercolor="#666666"
     borderopacity="1.0"
     inkscape:pageopacity="0.0"
     inkscape:pageshadow="2"
     inkscape:zoom="0.35"
     inkscape:cx="-185.71429"
     inkscape:cy="560"
     inkscape:document-units="px"
     inkscape:current-layer="layer1"
     showgrid="false"
     units="px"
     inkscape:pagecheckerboard="true"
     inkscape:window-width="1920"
     inkscape:window-height="1016"
     inkscape:window-x="0"
     inkscape:window-y="27"
     inkscape:window-maximized="1" />
  <metadata
     id="metadata2205">
    <rdf:RDF>
      <cc:Work
         rdf:about="">
        <dc:format>image/svg+xml</dc:format>
        <dc:type
           rdf:resource="http://purl.org/dc/dcmitype/StillImage" />
        <dc:title></dc:title>
      </cc:Work>
    </rdf:RDF>
  </metadata>
  <g
     inkscape:label="Layer 1"
     inkscape:groupmode="layer"
     id="layer1"
     transform="translate(0,-244.08332)">
    <g
       id="g1260"
       transform="matrix(0.01255435,0,0,-0.01255435,-162.33862,459.24902)">
      <path
         d="m 14311.6,16300 h -383.3 c -22,0 -39.8,-17.8 -39.8,-39.7 v -231 c 75.8,12 153.1,18.2 231.4,18.2 78.2,0 155.5,-6.2 231.4,-18.2 v 231 c 0,21.9 -17.8,39.7 -39.7,39.7"
         style="fill:#f4bebe;fill-opacity:1;fill-rule:nonzero;stroke:none"
         id="path1262"
         inkscape:connector-curvature="0" />
    </g>
    <g
       id="g1264"
       transform="matrix(0.01217193,0,0,-0.01217193,-162.33862,459.24902)">
      <path
         d="m 15652.2,16300 -110.4,-110.4 c 28.9,-24.8 57,-50.9 84.2,-78.1 26.9,-26.9 52.6,-54.7 77.2,-83.1 l 110.3,110.3 -161.3,161.3"
         style="fill:#ffffff;fill-opacity:1;fill-rule:nonzero;stroke:none"
         id="path1266"
         inkscape:connector-curvature="0" />
    </g>
    <g
       id="g1268"
       transform="matrix(0.01238802,0,0,-0.01238802,-162.33862,459.24902)">
      <path
         d="m 15697.7,15791 c 13.9,-13.8 32.3,-21.4 51.9,-21.4 19.6,0 38,7.6 51.9,21.4 28.6,28.6 28.6,75.2 0,103.8 l -383.7,383.7 c -13.9,13.9 -32.3,21.5 -51.9,21.5 -19.7,0 -38.1,-7.6 -52,-21.5 -28.5,-28.6 -28.5,-75.2 0,-103.7 l 383.8,-383.8"
         style="fill:#f4bebe;fill-opacity:1;fill-rule:nonzero;stroke:none"
         id="path1270"
         inkscape:connector-curvature="0" />
    </g>
    <g
       id="g1272"
       transform="matrix(0.01230953,0,0,-0.01230953,-162.33862,459.24902)">
      <path
         d="m 15404.3,15884.4 c -268.1,268 -624.6,415.6 -1003.6,415.6 -379.1,0 -735.5,-147.6 -1003.6,-415.6 -23.6,-23.6 -46.2,-47.9 -67.8,-72.8 -35.7,-149.4 -55.1,-304.9 -56.4,-464.9 59.5,144.5 147.8,279.8 264.9,396.9 230.5,230.5 536.9,357.4 862.9,357.4 325.9,0 632.4,-126.9 862.8,-357.4 475.8,-475.7 475.8,-1249.9 0,-1725.6 -230.4,-230.5 -536.9,-357.5 -862.8,-357.5 -117.3,0 -232,16.5 -341.7,48.4 122,-96.4 255.1,-179.1 397.1,-246.2 358.3,13.7 693.2,159.6 948.2,414.5 553.4,553.4 553.4,1453.8 0,2007.2"
         style="fill:#f4bebe;fill-opacity:1;fill-rule:nonzero;stroke:none"
         id="path1274"
         inkscape:connector-curvature="0" />
    </g>
    <g
       id="g1276"
       transform="matrix(0.01210893,0,0,-0.01210893,-162.33862,459.24902)">
      <path
         d="m 14467.5,15127.3 c 0,83.1 59.4,152.6 137.9,168.4 v 624.3 c 0,10.7 5,20.1 12.7,26.3 v 258.4 c 0,11.7 9.4,21.2 21.2,21.2 11.7,0 21.2,-9.5 21.2,-21.2 v -258.4 c 7.6,-6.2 12.7,-15.6 12.7,-26.3 v -624.3 c 78.6,-15.8 137.9,-85.3 137.9,-168.4 0,-35.7 -10.9,-68.8 -29.6,-96.2 l 628.1,-638.9 c 13.1,-13.3 12.9,-34.8 -0.4,-47.9 -6.7,-6.5 -15.2,-9.7 -23.8,-9.7 -8.8,0 -17.5,3.4 -24.2,10.1 l -628.2,638.9 c -26.9,-17.7 -59.1,-28 -93.7,-28 -94.7,0 -171.8,77 -171.8,171.7 z m 540.7,693.8 145.2,251.5 c 5.9,10.1 18.8,13.6 28.9,7.8 10.2,-5.9 13.7,-18.8 7.8,-29 l -145.2,-251.5 c -3.9,-6.8 -11,-10.6 -18.4,-10.6 -3.6,0 -7.2,0.9 -10.6,2.8 -10.1,5.8 -13.6,18.8 -7.7,29 z m 283.4,-1058 c 5.9,10.1 18.8,13.6 29,7.7 l 251.5,-145.1 c 10.2,-5.9 13.7,-18.8 7.8,-29 -4,-6.8 -11.1,-10.6 -18.4,-10.6 -3.6,0 -7.3,0.9 -10.6,2.9 l -251.5,145.1 c -10.1,5.9 -13.6,18.9 -7.8,29 z m 7.8,782.2 251.5,145.3 c 10.1,5.8 23.1,2.3 29,-7.8 5.9,-10.1 2.4,-23.1 -7.8,-28.9 l -251.5,-145.3 c -3.4,-1.9 -7,-2.8 -10.6,-2.8 -7.3,0 -14.4,3.8 -18.4,10.6 -5.8,10.1 -2.3,23.1 7.8,28.9 z m 426,-405.5 c 0,-11.7 -9.5,-21.2 -21.2,-21.2 h -290.5 c -11.7,0 -21.2,9.5 -21.2,21.2 0,11.7 9.5,21.2 21.2,21.2 h 290.5 c 11.7,0 21.2,-9.5 21.2,-21.2 z m -256.9,-841.7 c 457.2,457.2 457.2,1201.2 0,1658.5 -221.5,221.5 -516,343.4 -829.2,343.4 -313.3,0 -607.7,-121.9 -829.2,-343.4 -157.5,-157.6 -260.8,-349.2 -309.7,-551.3 44.5,-526.9 283.3,-998.2 644.9,-1342.1 152.8,-71 320.5,-108.6 494,-108.6 313.2,0 607.7,122.1 829.2,343.5"
         style="fill:#ffffff;fill-opacity:1;fill-rule:nonzero;stroke:none"
         id="path1278"
         inkscape:connector-curvature="0" />
    </g>
    <g
       id="g1280"
       transform="matrix(0.01205383,0,0,-0.01205383,-162.33862,459.24902)">
      <path
         d="m 14727.5,16019.2 v 259.5 c 0,11.8 -9.5,21.3 -21.3,21.3 -11.8,0 -21.3,-9.5 -21.3,-21.3 v -259.5 c 5.8,4.7 13.1,7.6 21.3,7.6 8.1,0 15.4,-2.9 21.3,-7.6"
         style="fill:#f4bebe;fill-opacity:1;fill-rule:nonzero;stroke:none"
         id="path1282"
         inkscape:connector-curvature="0" />
    </g>
    <g
       id="g1284"
       transform="matrix(0.01157824,0,0,-0.01157824,-162.33862,459.24902)">
      <path
         d="m 16000.6,15409.4 263,-151.8 c 3.4,-2.1 7.2,-3.1 11.1,-3.1 7.6,0 15,4 19.2,11.1 6.1,10.7 2.5,24.2 -8.2,30.3 l -263,151.8 c -10.6,6.1 -24.2,2.5 -30.3,-8 -6.1,-10.7 -2.5,-24.2 8.2,-30.3"
         style="fill:#f4bebe;fill-opacity:1;fill-rule:nonzero;stroke:none"
         id="path1286"
         inkscape:connector-curvature="0" />
    </g>
    <g
       id="g1288"
       transform="matrix(0.01168208,0,0,-0.01168208,-162.33862,459.24902)">
      <path
         d="m 15955,15693 c 0,-12.1 9.8,-22 21.9,-22 h 301.1 c 12.2,0 22,9.9 22,22 0,12.1 -9.8,21.9 -22,21.9 h -301.1 c -12.1,0 -21.9,-9.8 -21.9,-21.9"
         style="fill:#f4bebe;fill-opacity:1;fill-rule:nonzero;stroke:none"
         id="path1290"
         inkscape:connector-curvature="0" />
    </g>
    <g
       id="g1292"
       transform="matrix(0.01166053,0,0,-0.01166053,-162.33862,459.24902)">
      <path
         d="m 15898.7,16102.1 c 3.7,0 7.5,0.9 11,2.9 l 261.2,150.8 c 10.6,6.1 14.2,19.6 8.1,30 -6.2,10.6 -19.6,14.2 -30.1,8.1 l -261.2,-150.8 c -10.5,-6.1 -14.1,-19.5 -8.1,-30 4.2,-7.1 11.6,-11 19.1,-11"
         style="fill:#f4bebe;fill-opacity:1;fill-rule:nonzero;stroke:none"
         id="path1294"
         inkscape:connector-curvature="0" />
    </g>
    <g
       id="g1296"
       transform="matrix(0.01195009,0,0,-0.01195009,-162.33862,459.24902)">
      <path
         d="m 15215.5,16002 c 3.4,-1.9 7.1,-2.9 10.7,-2.9 7.5,0 14.7,3.9 18.6,10.8 l 147.2,254.8 c 5.9,10.3 2.4,23.4 -7.9,29.4 -10.2,5.9 -23.4,2.4 -29.3,-7.9 l -147.2,-254.9 c -5.9,-10.3 -2.4,-23.4 7.9,-29.3"
         style="fill:#f4bebe;fill-opacity:1;fill-rule:nonzero;stroke:none"
         id="path1298"
         inkscape:connector-curvature="0" />
    </g>
    <g
       id="g1300"
       transform="matrix(0.01131505,0,0,-0.01131505,-162.33862,459.24902)">
      <path
         d="m 15666.4,16300 c -61.4,0 -111.4,-50 -111.4,-111.4 0,-61.4 50,-111.2 111.4,-111.2 61.3,0 111.3,49.8 111.3,111.2 0,61.4 -50,111.4 -111.3,111.4"
         style="fill:#f4bebe;fill-opacity:1;fill-rule:nonzero;stroke:none"
         id="path1302"
         inkscape:connector-curvature="0" />
    </g>
    <g
       id="g1304"
       transform="matrix(0.01305384,0,0,-0.01305384,-162.33862,459.24902)">
      <path
         d="m 16280.3,14485.2 h -1194 c -10.9,0 -19.7,-8.8 -19.7,-19.6 0,-10.9 8.8,-19.7 19.7,-19.7 h 1194 c 10.9,0 19.7,8.8 19.7,19.7 0,10.8 -8.8,19.6 -19.7,19.6"
         style="fill:#f4bebe;fill-opacity:1;fill-rule:nonzero;stroke:none"
         id="path1306"
         inkscape:connector-curvature="0" />
    </g>
    <g
       id="g1308"
       transform="matrix(0.01283221,0,0,-0.01283221,-162.33862,459.24902)">
      <path
         d="m 16280,14481.8 h -933.1 c -11.1,0 -20,-9 -20,-20 0,-11.1 8.9,-20 20,-20 h 933.1 c 11,0 20,8.9 20,20 0,11 -9,20 -20,20"
         style="fill:#f4bebe;fill-opacity:1;fill-rule:nonzero;stroke:none"
         id="path1310"
         inkscape:connector-curvature="0" />
    </g>
    <g
       id="g1312"
       transform="matrix(0.01253003,0,0,-0.01253003,-162.33862,459.24902)">
      <path
         d="m 16279.5,14536.3 h -562.6 c -11.3,0 -20.4,-9.2 -20.4,-20.5 0,-11.4 9.1,-20.5 20.4,-20.5 h 562.6 c 11.3,0 20.5,9.1 20.5,20.5 0,11.3 -9.2,20.5 -20.5,20.5"
         style="fill:#f4bebe;fill-opacity:1;fill-rule:nonzero;stroke:none"
         id="path1314"
         inkscape:connector-curvature="0" />
    </g>
    <g
       id="g2008"
       transform="matrix(0.01260463,0,0,-0.01260463,-162.33862,459.24902)">
      <path
         d="m 13833.1,15965.3 v 230 c 0,21.8 17.7,39.6 39.5,39.6 h 381.8 c 21.8,0 39.6,-17.8 39.6,-39.6 v -230 c 21.8,-3.5 43.4,-7.4 65.1,-11.8 v 241.8 c 0,57.7 -47,104.7 -104.7,104.7 h -381.8 c -57.8,0 -104.7,-47 -104.7,-104.7 v -241.8 c 21.6,4.4 43.3,8.3 65.2,11.8"
         style="fill:#594a42;fill-opacity:1;fill-rule:nonzero;stroke:none"
         id="path2010"
         inkscape:connector-curvature="0" />
    </g>
    <g
       id="g2012"
       transform="matrix(0.01205157,0,0,-0.01205157,-162.33862,459.24902)">
      <path
         d="m 15971.5,16300 -111.4,-111.4 c 14.9,-17.4 29.4,-35 43.3,-52.9 l 116.2,116.2 -48.1,48.1"
         style="fill:#594a42;fill-opacity:1;fill-rule:nonzero;stroke:none"
         id="path2014"
         inkscape:connector-curvature="0" />
    </g>
    <g
       id="g2016"
       transform="matrix(0.01220764,0,0,-0.01220764,-162.33862,459.24902)">
      <path
         d="m 15496.5,16142.3 110.1,110.1 -47.6,47.6 -114.7,-114.7 c 17.6,-13.9 35.1,-28.2 52.2,-43"
         style="fill:#594a42;fill-opacity:1;fill-rule:nonzero;stroke:none"
         id="path2018"
         inkscape:connector-curvature="0" />
    </g>
    <g
       id="g2020"
       transform="matrix(0.0124384,0,0,-0.0124384,-162.33862,459.24902)">
      <path
         d="m 15251.9,16212.6 c 13.9,13.8 32.2,21.4 51.8,21.4 19.5,0 37.8,-7.6 51.7,-21.4 l 382.1,-382.1 c 28.5,-28.5 28.5,-75 0,-103.4 -13.8,-13.8 -32.2,-21.4 -51.7,-21.4 -19.5,0 -37.8,7.6 -51.7,21.4 l -382.2,382.2 c -28.4,28.4 -28.4,74.8 0,103.3 z m 65.1,-261.7 157.8,-157.8 46.6,-46.6 66.1,-66.1 c 26.2,-26.2 61.1,-40.7 98.3,-40.7 37.2,0 72.1,14.5 98.4,40.7 54.2,54.3 54.2,142.5 0,196.7 l -382.2,382.2 c -26.2,26.3 -61.2,40.7 -98.3,40.7 -37.2,0 -72.1,-14.4 -98.4,-40.7 -54.2,-54.2 -54.2,-142.5 0,-196.7 l 65,-65 46.7,-46.7"
         style="fill:#594a42;fill-opacity:1;fill-rule:nonzero;stroke:none"
         id="path2022"
         inkscape:connector-curvature="0" />
    </g>
    <g
       id="g2024"
       transform="matrix(0.01235991,0,0,-0.01235991,-162.33862,459.24902)">
      <path
         d="m 15506.7,15733.2 c -13.6,17.4 -27.7,34.6 -42.3,51.5 -24.1,28 -49.4,55.4 -75.9,81.9 -26.8,26.8 -54.5,52.4 -83,76.8 -16.8,14.7 -34.1,28.8 -51.5,42.5 -179.9,141.3 -388.1,237.7 -610.5,283.5 -22.1,4.5 -44.2,8.5 -66.4,12.1 -77.1,12.2 -155.6,18.5 -235,18.5 -79.6,0 -158.1,-6.3 -235.1,-18.5 -22.3,-3.6 -44.4,-7.6 -66.4,-12.1 -272.9,-56.2 -524.1,-188.6 -728.3,-386.5 -14,-44.6 -26.4,-89.9 -37.3,-135.7 21.5,24.7 44,49 67.5,72.5 267,266.9 622,413.9 999.6,413.9 377.4,0 732.4,-147 999.4,-413.9 551.1,-551.2 551.1,-1447.9 0,-1999 -254,-253.9 -587.4,-399.2 -944.3,-412.8 42.6,-20.2 85.9,-39 130.1,-56.2 325.1,40.3 625.7,186.7 861.2,422 534.4,534.4 573.7,1379.2 118.2,1959.5"
         style="fill:#594a42;fill-opacity:1;fill-rule:nonzero;stroke:none"
         id="path2026"
         inkscape:connector-curvature="0" />
    </g>
    <g
       id="g2028"
       transform="matrix(0.01215921,0,0,-0.01215921,-162.33862,459.24902)">
      <path
         d="m 15452.2,14191.2 c 481.6,481.6 481.6,1265.4 0,1747 -233.4,233.3 -543.6,361.8 -873.5,361.8 -330,0 -640.3,-128.5 -873.6,-361.8 -118.5,-118.6 -207.9,-255.6 -268.2,-401.8 0,-5.6 -0.1,-11.2 -0.1,-16.7 0,-60 2.7,-119.4 7.6,-178.2 48.8,201.3 151.6,392.1 308.5,549 220.6,220.6 513.8,342 825.8,342 311.9,0 605.1,-121.4 825.7,-342 455.4,-455.4 455.4,-1196.3 0,-1651.6 -220.6,-220.5 -513.8,-342.1 -825.7,-342.1 -172.8,0 -339.8,37.4 -492,108.1 46.7,-44.4 95.5,-86.7 146.1,-126.6 111,-32.3 227.2,-49 345.9,-49 329.9,0 640.1,128.6 873.5,361.9"
         style="fill:#594a42;fill-opacity:1;fill-rule:nonzero;stroke:none"
         id="path2030"
         inkscape:connector-curvature="0" />
    </g>
    <g
       id="g2032"
       transform="matrix(0.01185179,0,0,-0.01185179,-162.33862,459.24902)">
      <path
         d="m 14991.5,15627.5 v 637.9 c 0,10.9 -5.2,20.5 -13,26.8 -6,4.8 -13.4,7.8 -21.6,7.8 -8.3,0 -15.8,-3 -21.7,-7.8 -7.9,-6.3 -13,-15.9 -13,-26.8 v -637.9 c 11.2,2.2 22.8,3.5 34.7,3.5 11.7,0 23.3,-1.3 34.6,-3.5"
         style="fill:#594a42;fill-opacity:1;fill-rule:nonzero;stroke:none"
         id="path2034"
         inkscape:connector-curvature="0" />
    </g>
    <g
       id="g2036"
       transform="matrix(0.01145717,0,0,-0.01145717,-162.33862,459.24902)">
      <path
         d="m 15571.1,15835.9 663.9,-675.3 c 7.1,-7 16.3,-10.6 25.6,-10.6 9,0 18.1,3.4 25.1,10.2 14.1,13.9 14.3,36.6 0.4,50.7 l -663.8,675.2 c -13.5,-20 -31,-37 -51.2,-50.2"
         style="fill:#594a42;fill-opacity:1;fill-rule:nonzero;stroke:none"
         id="path2038"
         inkscape:connector-curvature="0" />
    </g>
    <g
       id="g2040"
       transform="matrix(0.01136543,0,0,-0.01136543,-162.33862,459.24902)">
      <path
         d="m 15597,16006.1 c -61.1,0 -110.9,49.7 -110.9,110.8 0,61.1 49.8,110.9 110.9,110.9 61,0 110.8,-49.8 110.8,-110.9 0,-61.1 -49.8,-110.8 -110.8,-110.8 z m 99.8,-42.3 c 20.4,13.3 38,30.4 51.7,50.5 19.8,29.3 31.5,64.6 31.5,102.6 0,88.6 -63.2,162.6 -146.9,179.4 -11.7,2.3 -23.8,3.7 -36.1,3.7 -12.4,0 -24.5,-1.4 -36.1,-3.7 -83.7,-16.8 -147,-90.8 -147,-179.4 0,-100.9 82.2,-183 183.1,-183 36.8,0 71.1,11 99.8,29.9"
         style="fill:#594a42;fill-opacity:1;fill-rule:nonzero;stroke:none"
         id="path2042"
         inkscape:connector-curvature="0" />
    </g>
    <g
       id="g2044"
       transform="matrix(0.0131506,0,0,-0.0131506,-162.33862,459.24902)">
      <path
         d="m 14864.7,16175.9 c -3.4,0 -6.8,0.5 -10.3,1.4 -64.2,17.5 -130.3,31.7 -196.3,42.3 -21.3,3.4 -35.7,23.4 -32.3,44.6 3.4,21.3 23.4,35.8 44.7,32.4 68.6,-11 137.4,-25.8 204.4,-44 20.7,-5.6 33.1,-27.1 27.4,-47.9 -4.7,-17.3 -20.5,-28.8 -37.6,-28.8"
         style="fill:#594a42;fill-opacity:1;fill-rule:nonzero;stroke:none"
         id="path2046"
         inkscape:connector-curvature="0" />
    </g>
    <g
       id="g2048"
       transform="matrix(0.01317338,0,0,-0.01317338,-162.33862,459.24902)">
      <path
         d="m 14331.7,12356.6 c -525.7,0 -1020,204.8 -1391.8,576.5 -371.8,371.7 -576.5,866 -576.5,1391.8 0,525.7 204.7,1020 576.5,1391.8 371.8,371.8 866.1,576.5 1391.8,576.5 21.5,0 39,-17.4 39,-38.9 0,-21.5 -17.5,-39 -39,-39 -504.9,0 -979.7,-196.6 -1336.7,-553.7 -357.1,-357 -553.7,-831.8 -553.7,-1336.7 0,-504.9 196.6,-979.6 553.7,-1336.7 357,-357.1 831.8,-553.7 1336.7,-553.7 504.9,0 979.6,196.6 1336.7,553.7 357,357.1 553.7,831.8 553.7,1336.7 0,354.2 -98.5,699.6 -285,998.6 -181.3,291 -438.2,527.5 -742.7,683.9 -19.1,9.9 -26.7,33.3 -16.8,52.5 9.8,19.1 33.3,26.6 52.4,16.8 317,-162.9 584.4,-409.1 773.2,-712 194.1,-311.4 296.8,-671 296.8,-1039.8 0,-525.8 -204.8,-1020.1 -576.5,-1391.8 -371.7,-371.7 -866,-576.5 -1391.8,-576.5"
         style="fill:#594a42;fill-opacity:1;fill-rule:nonzero;stroke:none"
         id="path2050"
         inkscape:connector-curvature="0" />
    </g>
    <g
       id="g2052"
       transform="matrix(0.01307324,0,0,-0.01307324,-162.33862,459.24902)">
      <path
         d="m 15193.4,16250.1 c 0,-27.6 -22.4,-50 -50,-50 -27.6,0 -49.9,22.4 -49.9,50 0,27.5 22.3,49.9 49.9,49.9 27.6,0 50,-22.4 50,-49.9"
         style="fill:#594a42;fill-opacity:1;fill-rule:nonzero;stroke:none"
         id="path2054"
         inkscape:connector-curvature="0" />
    </g>
  </g>
</svg>
