<?xml version="1.0" encoding="UTF-8" standalone="no"?>
<!-- Created with Inkscape (http://www.inkscape.org/) -->

<svg
   xmlns:dc="http://purl.org/dc/elements/1.1/"
   xmlns:cc="http://creativecommons.org/ns#"
   xmlns:rdf="http://www.w3.org/1999/02/22-rdf-syntax-ns#"
   xmlns:svg="http://www.w3.org/2000/svg"
   xmlns="http://www.w3.org/2000/svg"
   xmlns:sodipodi="http://sodipodi.sourceforge.net/DTD/sodipodi-0.dtd"
   xmlns:inkscape="http://www.inkscape.org/namespaces/inkscape"
   width="200"
   height="200"
   viewBox="0 0 52.916665 52.916668"
   version="1.1"
   id="svg5091"
   inkscape:version="0.92.4 (5da689c313, 2019-01-14)"
   sodipodi:docname="icon_content.svg">
  <defs
     id="defs5085" />
  <sodipodi:namedview
     id="base"
     pagecolor="#ffffff"
     bordercolor="#666666"
     borderopacity="1.0"
     inkscape:pageopacity="0.0"
     inkscape:pageshadow="2"
     inkscape:zoom="0.35"
     inkscape:cx="-185.71429"
     inkscape:cy="560"
     inkscape:document-units="px"
     inkscape:current-layer="layer1"
     showgrid="false"
     units="px"
     inkscape:pagecheckerboard="true"
     inkscape:window-width="1920"
     inkscape:window-height="1016"
     inkscape:window-x="0"
     inkscape:window-y="27"
     inkscape:window-maximized="1" />
  <metadata
     id="metadata5088">
    <rdf:RDF>
      <cc:Work
         rdf:about="">
        <dc:format>image/svg+xml</dc:format>
        <dc:type
           rdf:resource="http://purl.org/dc/dcmitype/StillImage" />
        <dc:title></dc:title>
      </cc:Work>
    </rdf:RDF>
  </metadata>
  <g
     inkscape:label="Layer 1"
     inkscape:groupmode="layer"
     id="layer1"
     transform="translate(0,-244.08332)">
    <g
       id="g864"
       transform="matrix(0.01633679,0,0,-0.01633668,-162.33778,528.83936)">
      <path
         d="m 10668.6,16300 v -81.7 h 1932.9 c 13.9,0 25.1,-11.2 25.1,-25.1 v -1511.5 c 35.7,33.8 69.7,69.3 102.1,106.3 v 1512 h -2060.1"
         style="fill:#ffffff;fill-opacity:1;fill-rule:nonzero;stroke:none"
         id="path866"
         inkscape:connector-curvature="0" />
    </g>
    <g
       id="g868"
       transform="matrix(0.016176,0,0,-0.01617589,-162.33778,528.83936)">
      <path
         d="m 10998.9,16300 c -37.5,0 -62.9,-25.6 -67.7,-66.3 h 139.5 c -3.2,29.5 -17.9,66.3 -71.8,66.3"
         style="fill:#81c9c0;fill-opacity:1;fill-rule:nonzero;stroke:none"
         id="path870"
         inkscape:connector-curvature="0" />
    </g>
    <g
       id="g872"
       transform="matrix(0.01620453,0,0,-0.01620442,-162.33778,528.83936)">
      <path
         d="m 11053.2,16300 c 28.1,-20.1 45.6,-53 48.9,-95 h 1070.3 c 0.2,0 0.3,0 0.5,0 3,-0.1 6,-0.7 8.8,-1.8 0.3,-0.1 0.7,-0.3 1.1,-0.5 1,-0.4 2,-1 3,-1.5 0.4,-0.3 0.7,-0.5 1,-0.7 1.3,-0.9 2.5,-1.8 3.5,-2.9 l 398.9,-398.9 c 1.1,-1.1 2.1,-2.3 2.9,-3.5 0.2,-0.4 0.4,-0.7 0.7,-1.1 0.6,-0.9 1.1,-1.9 1.6,-2.9 0.2,-0.4 0.4,-0.8 0.5,-1.2 0.5,-1.4 1,-2.8 1.2,-4.2 0,0 0,0 0,-0.1 0.4,-1.4 0.5,-2.9 0.5,-4.4 0.1,-0.2 0.1,-0.3 0.1,-0.5 v -1092 c 28.1,21.3 55.6,43.5 82.3,66.7 V 16300 h -1625.8"
         style="fill:#81c9c0;fill-opacity:1;fill-rule:nonzero;stroke:none"
         id="path874"
         inkscape:connector-curvature="0" />
    </g>
    <g
       id="g876"
       transform="matrix(0.01620453,0,0,-0.01620442,-162.33778,528.83936)">
      <path
         d="m 10860.9,16205 c 3.5,41.2 21.4,74.6 49.1,95 h -307.9 v -95 h 258.8"
         style="fill:#81c9c0;fill-opacity:1;fill-rule:nonzero;stroke:none"
         id="path878"
         inkscape:connector-curvature="0" />
    </g>
    <g
       id="g880"
       transform="matrix(0.01558457,0,0,-0.01558447,-162.33778,528.83936)">
      <path
         d="m 11441.6,16258.2 c 29.9,0 60,13.3 77.9,41.8 h -156.9 c 18.6,-28.4 49.5,-41.8 79,-41.8"
         style="fill:#ffffff;fill-opacity:1;fill-rule:nonzero;stroke:none"
         id="path882"
         inkscape:connector-curvature="0" />
    </g>
    <g
       id="g884"
       transform="matrix(0.01440162,0,0,-0.01440152,-162.33778,528.83936)">
      <path
         d="m 13109.4,16170.6 c 234.9,0 459.1,46.1 664.1,129.4 h -1328.3 c 205.1,-83.3 429.2,-129.4 664.2,-129.4"
         style="fill:#ffffff;fill-opacity:1;fill-rule:nonzero;stroke:none"
         id="path886"
         inkscape:connector-curvature="0" />
    </g>
    <g
       id="g888"
       transform="matrix(0.01605975,0,0,-0.01605964,-162.33778,528.83936)">
      <path
         d="m 12407,15646.1 h -1591.3 c -8.9,0 -16,7.2 -16,16 0,8.8 7.1,15.9 16,15.9 H 12407 c 8.8,0 16,-7.1 16,-15.9 0,-8.8 -7.2,-16 -16,-16 z m 0,-171.5 h -1591.3 c -8.9,0 -16,7.1 -16,16 0,8.8 7.1,15.9 16,15.9 H 12407 c 8.8,0 16,-7.1 16,-15.9 0,-8.9 -7.2,-16 -16,-16 z m 0,-171.5 h -1591.3 c -8.9,0 -16,7.1 -16,16 0,8.8 7.1,15.9 16,15.9 H 12407 c 8.8,0 16,-7.1 16,-15.9 0,-8.9 -7.2,-16 -16,-16 z m 0,-171.5 h -1591.3 c -8.9,0 -16,7.1 -16,15.9 0,8.9 7.1,16 16,16 H 12407 c 8.8,0 16,-7.1 16,-16 0,-8.8 -7.2,-15.9 -16,-15.9 z m 0,-171.5 h -1591.3 c -8.9,0 -16,7.1 -16,15.9 0,8.9 7.1,16 16,16 H 12407 c 8.8,0 16,-7.1 16,-16 0,-8.8 -7.2,-15.9 -16,-15.9 z m -124.9,937.4 c -14.1,0 -25.5,11.4 -25.5,25.5 v 377 h -1247.2 v -420.2 c 0,-11.1 1.3,-21.1 3.4,-30.2 h 178.5 c 2.1,9.1 3.3,19.1 3.3,30.2 v 360.7 c 0,14.1 11.5,25.6 25.6,25.6 14.1,0 25.5,-11.5 25.5,-25.6 v -360.7 c 0,-10.9 -0.8,-20.9 -2.2,-30.2 H 12407 c 8.8,0 16,-7.2 16,-16 0,-8.8 -7.2,-16 -16,-16 h -1171.8 c -8.9,-24 -21.9,-41.1 -33.8,-52.5 -25.9,-25.2 -60.9,-39.1 -98.4,-39.1 -55.3,0 -111.1,31.3 -134,91.6 h -153.3 c -8.9,0 -16,7.2 -16,16 0,8.8 7.1,16 16,16 h 144.9 c -1.5,9.5 -2.3,19.6 -2.3,30.2 v 420.2 h -394.8 v -1256.9 c 72.8,-83.4 154.2,-159.1 242.8,-225.6 2.7,1.8 5.8,3 9.4,3 H 12407 c 8.8,0 16,-7.2 16,-16 0,-8.8 -7.2,-15.9 -16,-15.9 h -1560.9 c 75.7,-53.3 156.3,-100.1 241,-139.6 H 12407 c 3.8,0 7.2,-1.4 9.9,-3.6 85.1,39.2 166.1,85.7 242.2,138.7 v 1113.4 h -377"
         style="fill:#ffffff;fill-opacity:1;fill-rule:nonzero;stroke:none"
         id="path890"
         inkscape:connector-curvature="0" />
    </g>
    <g
       id="g892"
       transform="matrix(0.01602414,0,0,-0.01602404,-162.33778,528.83936)">
      <path
         d="m 12335,15984 h 316 l -316,316 v -316"
         style="fill:#ffffff;fill-opacity:1;fill-rule:nonzero;stroke:none"
         id="path894"
         inkscape:connector-curvature="0" />
    </g>
    <g
       id="g896"
       transform="matrix(0.01561597,0,0,-0.01561587,-162.33778,528.83936)">
      <path
         d="m 11496.2,16267.1 c 5.9,9.3 10.4,20.3 13.2,32.9 h -183.6 c 3,-12.6 7.8,-23.6 13.9,-32.9 h 156.5"
         style="fill:#81c9c0;fill-opacity:1;fill-rule:nonzero;stroke:none"
         id="path898"
         inkscape:connector-curvature="0" />
    </g>
    <g
       id="g900"
       transform="matrix(0.01561597,0,0,-0.01561587,-162.33778,528.83936)">
      <path
         d="m 11123,16300 c -9,0 -16.4,-7.4 -16.4,-16.4 0,-9.1 7.4,-16.5 16.4,-16.5 h 157.7 c -3.8,10.2 -6.7,21.2 -8.6,32.9 H 11123"
         style="fill:#81c9c0;fill-opacity:1;fill-rule:nonzero;stroke:none"
         id="path902"
         inkscape:connector-curvature="0" />
    </g>
    <g
       id="g904"
       transform="matrix(0.01561597,0,0,-0.01561587,-162.33778,528.83936)">
      <path
         d="m 12759.6,16267.1 c 9.1,0 16.4,7.4 16.4,16.5 0,9 -7.3,16.4 -16.4,16.4 H 11563 c -1.9,-12.2 -4.9,-23.1 -8.5,-32.9 h 1205.1"
         style="fill:#81c9c0;fill-opacity:1;fill-rule:nonzero;stroke:none"
         id="path906"
         inkscape:connector-curvature="0" />
    </g>
    <g
       id="g908"
       transform="matrix(0.01544698,0,0,-0.01544688,-162.33778,528.83936)">
      <path
         d="m 12899.2,16300 h -1654.5 c -9.1,0 -16.6,-7.4 -16.6,-16.6 0,-9.2 7.5,-16.6 16.6,-16.6 h 1654.5 c 9.1,0 16.6,7.4 16.6,16.6 0,9.2 -7.5,16.6 -16.6,16.6"
         style="fill:#81c9c0;fill-opacity:1;fill-rule:nonzero;stroke:none"
         id="path910"
         inkscape:connector-curvature="0" />
    </g>
    <g
       id="g912"
       transform="matrix(0.01527798,0,0,-0.01527788,-162.33778,528.83936)">
      <path
         d="m 13041.8,16300 h -1672.7 c -9.3,0 -16.8,-7.5 -16.8,-16.8 0,-9.3 7.5,-16.8 16.8,-16.8 h 1672.7 c 9.3,0 16.8,7.5 16.8,16.8 0,9.3 -7.5,16.8 -16.8,16.8"
         style="fill:#81c9c0;fill-opacity:1;fill-rule:nonzero;stroke:none"
         id="path914"
         inkscape:connector-curvature="0" />
    </g>
    <g
       id="g916"
       transform="matrix(0.01510909,0,0,-0.01510899,-162.33778,528.83936)">
      <path
         d="m 13187.7,16300 h -1691.5 c -9.3,0 -16.9,-7.6 -16.9,-17 0,-9.4 7.6,-17 16.9,-17 h 1691.5 c 9.4,0 17,7.6 17,17 0,9.4 -7.6,17 -17,17"
         style="fill:#81c9c0;fill-opacity:1;fill-rule:nonzero;stroke:none"
         id="path918"
         inkscape:connector-curvature="0" />
    </g>
    <g
       id="g920"
       transform="matrix(0.0149401,0,0,-0.01494,-162.33778,528.83936)">
      <path
         d="m 13336.9,16300 h -1710.6 c -9.5,0 -17.2,-7.7 -17.2,-17.2 0,-9.5 7.7,-17.1 17.2,-17.1 h 1710.6 c 9.4,0 17.1,7.6 17.1,17.1 0,9.5 -7.7,17.2 -17.1,17.2"
         style="fill:#81c9c0;fill-opacity:1;fill-rule:nonzero;stroke:none"
         id="path922"
         inkscape:connector-curvature="0" />
    </g>
    <g
       id="g924"
       transform="matrix(0.01477111,0,0,-0.01477101,-162.33778,528.83936)">
      <path
         d="m 13489.4,16300 h -1730.1 c -9.6,0 -17.4,-7.8 -17.4,-17.4 0,-9.6 7.8,-17.3 17.4,-17.3 h 1730.1 c 9.6,0 17.4,7.7 17.4,17.3 0,9.6 -7.8,17.4 -17.4,17.4"
         style="fill:#81c9c0;fill-opacity:1;fill-rule:nonzero;stroke:none"
         id="path926"
         inkscape:connector-curvature="0" />
    </g>
    <g
       id="g928"
       transform="matrix(0.01460211,0,0,-0.01460202,-162.33778,528.83936)">
      <path
         d="m 13645.6,16264.9 c 9.6,0 17.5,7.8 17.5,17.5 0,9.7 -7.9,17.6 -17.5,17.6 h -1750.2 c -3.9,0 -7.4,-1.3 -10.3,-3.4 14.4,-10.8 29,-21.4 43.8,-31.7 h 1716.7"
         style="fill:#81c9c0;fill-opacity:1;fill-rule:nonzero;stroke:none"
         id="path930"
         inkscape:connector-curvature="0" />
    </g>
    <g
       id="g932"
       transform="matrix(0.01443312,0,0,-0.01443302,-162.33778,528.83936)">
      <path
         d="m 12336.6,16300 c 26.8,-12.5 54,-24.4 81.5,-35.5 h 1325.4 c 24.6,9.9 48.9,20.5 72.8,31.5 -3,2.5 -6.8,4 -11,4 h -1468.7"
         style="fill:#81c9c0;fill-opacity:1;fill-rule:nonzero;stroke:none"
         id="path934"
         inkscape:connector-curvature="0" />
    </g>
    <g
       id="g1388"
       transform="matrix(0.01638717,0,0,-0.01638706,-162.33778,528.83936)">
      <path
         d="m 12714.6,16300 h -2103.8 c -13.9,0 -25.1,-11.2 -25.1,-25 v -106.5 h 50.1 v 81.4 h 2053.8 v -1507.3 c 17.1,19.6 33.8,39.7 50.1,60.3 V 16275 c 0,13.8 -11.3,25 -25.1,25"
         style="fill:#594a42;fill-opacity:1;fill-rule:nonzero;stroke:none"
         id="path1390"
         inkscape:connector-curvature="0" />
    </g>
    <g
       id="g1392"
       transform="matrix(0.01625491,0,0,-0.0162548,-162.33778,528.83936)">
      <path
         d="m 12664.9,16300 h -1942.6 -50.5 -127.8 c -14,0 -25.3,-11.3 -25.3,-25.2 v -120 h 50.5 v 94.7 h 307 c 19,14 42.5,21.8 69.2,21.8 28.9,0 53.8,-7.7 73.5,-21.8 h 1620.8 v -1539.7 c 17.2,14.9 34,30.2 50.5,45.8 v 1519.2 c 0,13.9 -11.3,25.2 -25.3,25.2"
         style="fill:#594a42;fill-opacity:1;fill-rule:nonzero;stroke:none"
         id="path1394"
         inkscape:connector-curvature="0" />
    </g>
    <g
       id="g1396"
       transform="matrix(0.01569867,0,0,-0.01569857,-162.33778,528.83936)">
      <path
         d="m 13000.2,16300 c 0.2,-0.4 0.4,-0.8 0.5,-1.2 -0.1,0.4 -0.3,0.8 -0.5,1.2"
         style="fill:#594a42;fill-opacity:1;fill-rule:nonzero;stroke:none"
         id="path1398"
         inkscape:connector-curvature="0" />
    </g>
    <g
       id="g1400"
       transform="matrix(0.01570268,0,0,-0.01570257,-162.33778,528.83936)">
      <path
         d="m 12994.5,16300 c 0.3,-0.4 0.5,-0.7 0.7,-1.1 -0.2,0.4 -0.4,0.7 -0.7,1.1"
         style="fill:#594a42;fill-opacity:1;fill-rule:nonzero;stroke:none"
         id="path1402"
         inkscape:connector-curvature="0" />
    </g>
    <g
       id="g1404"
       transform="matrix(0.01610633,0,0,-0.01610622,-162.33778,528.83936)">
      <path
         d="m 12260.1,16300 c 0.3,-0.2 0.7,-0.4 1.1,-0.7 -0.4,0.3 -0.7,0.5 -1.1,0.7"
         style="fill:#594a42;fill-opacity:1;fill-rule:nonzero;stroke:none"
         id="path1406"
         inkscape:connector-curvature="0" />
    </g>
    <g
       id="g1408"
       transform="matrix(0.01568893,0,0,-0.01568882,-162.33778,528.83936)">
      <path
         d="m 13010.6,16300 c 0.2,-3.5 -0.5,-7.1 -1.9,-10.5 -4,-9.8 -13.6,-16.2 -24.2,-16.2 h -26.1 v -1139.7 c 17.7,12.3 35.2,25 52.3,38 v 1127.9 c 0,0.2 0,0.3 -0.1,0.5"
         style="fill:#594a42;fill-opacity:1;fill-rule:nonzero;stroke:none"
         id="path1410"
         inkscape:connector-curvature="0" />
    </g>
    <g
       id="g1412"
       transform="matrix(0.01610839,0,0,-0.01610828,-162.33778,528.83936)">
      <path
         d="m 12254.4,16300 c 0.4,-0.2 0.8,-0.3 1.1,-0.5 -0.3,0.2 -0.7,0.3 -1.1,0.5"
         style="fill:#594a42;fill-opacity:1;fill-rule:nonzero;stroke:none"
         id="path1414"
         inkscape:connector-curvature="0" />
    </g>
    <g
       id="g1416"
       transform="matrix(0.01569344,0,0,-0.01569334,-162.33778,528.83936)">
      <path
         d="m 13006.4,16300 c 0,0 0,0 0,-0.1 0,0.1 0,0.1 0,0.1"
         style="fill:#594a42;fill-opacity:1;fill-rule:nonzero;stroke:none"
         id="path1418"
         inkscape:connector-curvature="0" />
    </g>
    <g
       id="g1420"
       transform="matrix(0.01611013,0,0,-0.01611002,-162.33778,528.83936)">
      <path
         d="m 11142.2,16260 c -14,0 -25.5,11.4 -25.5,25.4 0,4.5 -0.2,9.4 -0.7,14.6 h -140.2 c -0.5,-4.7 -0.8,-9.5 -0.8,-14.6 v -36.4 h 1243.3 v 25.5 c 0,10.3 6.2,19.6 15.7,23.5 3.3,1.4 6.8,2 10.2,1.9 -0.1,0 -0.3,0.1 -0.5,0.1 h -1076.5 c 0.3,-4.8 0.5,-9.6 0.5,-14.6 0,-14 -11.4,-25.4 -25.5,-25.4"
         style="fill:#594a42;fill-opacity:1;fill-rule:nonzero;stroke:none"
         id="path1422"
         inkscape:connector-curvature="0" />
    </g>
    <g
       id="g1424"
       transform="matrix(0.01611013,0,0,-0.01611002,-162.33778,528.83936)">
      <path
         d="m 10924,16249 v 36.4 c 0,5 0.2,9.8 0.6,14.6 h -260.4 -50.9 -108.3 c -14.1,0 -25.5,-11.4 -25.5,-25.5 v -1217.1 c 16.5,-20.9 33.5,-41.4 51,-61.4 v 1253 h 393.5"
         style="fill:#594a42;fill-opacity:1;fill-rule:nonzero;stroke:none"
         id="path1426"
         inkscape:connector-curvature="0" />
    </g>
    <g
       id="g1428"
       transform="matrix(0.01611013,0,0,-0.01611002,-162.33778,528.83936)">
      <path
         d="m 12583.5,15898.7 h -314.3 v 314.3 z m -365.2,375.8 v -25.5 -375.7 c 0,-14.1 11.4,-25.5 25.4,-25.5 h 375.8 25.5 c 10.3,0 19.6,6.2 23.6,15.7 1.3,3.3 1.9,6.8 1.8,10.3 0,1.5 -0.1,3 -0.4,4.4 0,0.1 0,0.1 0,0.1 -0.3,1.4 -0.8,2.9 -1.3,4.2 -0.1,0.4 -0.3,0.8 -0.5,1.2 -0.5,1 -1,2 -1.6,3 -0.3,0.3 -0.5,0.7 -0.7,1 -0.9,1.3 -1.8,2.5 -2.9,3.6 l -401.2,401.2 c -1.1,1.1 -2.3,2 -3.5,2.9 -0.4,0.2 -0.8,0.5 -1.1,0.7 -1,0.6 -2,1.1 -3,1.6 -0.4,0.1 -0.8,0.3 -1.2,0.5 -2.8,1.1 -5.8,1.7 -8.8,1.7 -3.4,0.1 -6.9,-0.5 -10.2,-1.9 -9.5,-3.9 -15.7,-13.2 -15.7,-23.5"
         style="fill:#594a42;fill-opacity:1;fill-rule:nonzero;stroke:none"
         id="path1430"
         inkscape:connector-curvature="0" />
    </g>
    <g
       id="g1432"
       transform="matrix(0.01622638,0,0,-0.01622627,-162.33778,528.83936)">
      <path
         d="m 10846.3,16183.3 c -0.3,-4.8 -0.5,-9.6 -0.5,-14.5 v -36.1 -415.9 c 0,-10.5 0.8,-20.5 2.3,-29.9 1.8,-11.3 4.6,-21.9 8.3,-31.6 22.6,-59.8 77.9,-90.8 132.7,-90.8 37.1,0 71.7,13.8 97.3,38.7 11.7,11.4 24.7,28.3 33.5,52.1 3.5,9.4 6.3,19.9 8.2,31.6 1.4,9.2 2.2,19.1 2.2,29.9 v 357 c 0,14 -11.3,25.3 -25.3,25.3 -13.9,0 -25.3,-11.3 -25.3,-25.3 v -357 c 0,-11 -1.2,-20.9 -3.2,-29.9 -2.8,-12.2 -7.1,-22.7 -12.7,-31.6 -17.2,-27.4 -46,-40.2 -74.7,-40.2 -28.4,0 -58.1,12.9 -76,40.2 -5.9,8.9 -10.4,19.5 -13.3,31.6 -2.2,9.1 -3.4,18.9 -3.4,29.9 v 415.9 36.1 c 0,5 0.3,9.8 0.9,14.5 4.8,40.6 30.1,66.1 67.4,66.1 53.8,0 68.4,-36.7 71.7,-66.1 0.5,-5.1 0.7,-10 0.7,-14.5 0,-13.9 11.4,-25.3 25.3,-25.3 14,0 25.3,11.4 25.3,25.3 0,4.9 -0.2,9.8 -0.5,14.5 -3.3,41.9 -20.8,74.8 -48.9,94.8 -19.8,14.1 -44.7,21.9 -73.6,21.9 -26.7,0 -50.3,-7.9 -69.3,-21.9 -27.7,-20.3 -45.6,-53.7 -49.1,-94.8"
         style="fill:#594a42;fill-opacity:1;fill-rule:nonzero;stroke:none"
         id="path1434"
         inkscape:connector-curvature="0" />
    </g>
    <g
       id="g1436"
       transform="matrix(0.01742011,0,0,-0.01742,-162.33778,528.83936)">
      <path
         d="m 11221.5,16206.3 c -2.6,0 -5.2,0.4 -7.7,1.1 -48.6,13.2 -98.5,23.9 -148.2,31.9 -16.1,2.5 -27,17.6 -24.5,33.7 2.6,16.1 17.7,27 33.8,24.4 51.8,-8.3 103.7,-19.4 154.3,-33.2 15.7,-4.2 25,-20.4 20.7,-36.1 -3.6,-13.1 -15.5,-21.8 -28.4,-21.8"
         style="fill:#594a42;fill-opacity:1;fill-rule:nonzero;stroke:none"
         id="path1438"
         inkscape:connector-curvature="0" />
    </g>
    <g
       id="g1440"
       transform="matrix(0.01743735,0,0,-0.01743723,-162.33778,528.83936)">
      <path
         d="m 10827.1,13326 c -397.2,0 -770.6,154.7 -1051.43,435.5 -280.86,280.9 -435.55,654.3 -435.55,1051.5 0,397.2 154.69,770.6 435.55,1051.5 280.83,280.8 654.23,435.5 1051.43,435.5 16.3,0 29.5,-13.2 29.5,-29.4 0,-16.3 -13.2,-29.4 -29.5,-29.4 -381.4,0 -740.1,-148.6 -1009.83,-418.3 -269.73,-269.8 -418.31,-628.4 -418.31,-1009.9 0,-381.5 148.58,-740.1 418.31,-1009.9 269.73,-269.7 628.43,-418.2 1009.83,-418.2 381.5,0 740.1,148.5 1009.8,418.2 269.8,269.8 418.4,628.4 418.4,1009.9 0,267.6 -74.5,528.5 -215.3,754.4 -137,219.8 -331.1,398.5 -561.1,516.7 -14.5,7.4 -20.2,25.2 -12.7,39.6 7.4,14.5 25.1,20.2 39.6,12.7 239.5,-123 441.5,-309 584.1,-537.8 146.6,-235.3 224.2,-507 224.2,-785.6 0,-397.2 -154.7,-770.6 -435.6,-1051.5 -280.7,-280.8 -654.2,-435.5 -1051.4,-435.5"
         style="fill:#594a42;fill-opacity:1;fill-rule:nonzero;stroke:none"
         id="path1442"
         inkscape:connector-curvature="0" />
    </g>
    <g
       id="g1444"
       transform="matrix(0.01734265,0,0,-0.01734253,-162.33778,528.83936)">
      <path
         d="m 11453,16262.4 c 0,-20.8 -16.9,-37.7 -37.7,-37.7 -20.8,0 -37.6,16.9 -37.6,37.7 0,20.8 16.8,37.6 37.6,37.6 20.8,0 37.7,-16.8 37.7,-37.6"
         style="fill:#594a42;fill-opacity:1;fill-rule:nonzero;stroke:none"
         id="path1446"
         inkscape:connector-curvature="0" />
    </g>
  </g>
</svg>
