<?xml version="1.0" encoding="UTF-8" standalone="no"?>
<!-- Created with Inkscape (http://www.inkscape.org/) -->

<svg
   xmlns:dc="http://purl.org/dc/elements/1.1/"
   xmlns:cc="http://creativecommons.org/ns#"
   xmlns:rdf="http://www.w3.org/1999/02/22-rdf-syntax-ns#"
   xmlns:svg="http://www.w3.org/2000/svg"
   xmlns="http://www.w3.org/2000/svg"
   xmlns:sodipodi="http://sodipodi.sourceforge.net/DTD/sodipodi-0.dtd"
   xmlns:inkscape="http://www.inkscape.org/namespaces/inkscape"
   width="200"
   height="200"
   viewBox="0 0 52.916665 52.916668"
   version="1.1"
   id="svg2208"
   inkscape:version="0.92.4 (5da689c313, 2019-01-14)"
   sodipodi:docname="icon_idea.svg">
  <defs
     id="defs2202" />
  <sodipodi:namedview
     id="base"
     pagecolor="#ffffff"
     bordercolor="#666666"
     borderopacity="1.0"
     inkscape:pageopacity="0.0"
     inkscape:pageshadow="2"
     inkscape:zoom="0.35"
     inkscape:cx="-185.71429"
     inkscape:cy="560"
     inkscape:document-units="px"
     inkscape:current-layer="layer1"
     showgrid="false"
     units="px"
     inkscape:pagecheckerboard="true"
     inkscape:window-width="1920"
     inkscape:window-height="1016"
     inkscape:window-x="0"
     inkscape:window-y="27"
     inkscape:window-maximized="1" />
  <metadata
     id="metadata2205">
    <rdf:RDF>
      <cc:Work
         rdf:about="">
        <dc:format>image/svg+xml</dc:format>
        <dc:type
           rdf:resource="http://purl.org/dc/dcmitype/StillImage" />
        <dc:title></dc:title>
      </cc:Work>
    </rdf:RDF>
  </metadata>
  <g
     inkscape:label="Layer 1"
     inkscape:groupmode="layer"
     id="layer1"
     transform="translate(0,-244.08332)">
    <g
       id="g1240"
       transform="matrix(0.01129398,0,0,-0.01129401,-92.564757,459.24591)">
      <path
         d="m 10231.1,16300 v -1221.2 h 615 V 16300 h -615"
         style="fill:#ffd565;fill-opacity:1;fill-rule:nonzero;stroke:none"
         id="path1242"
         inkscape:connector-curvature="0" />
    </g>
    <g
       id="g1244"
       transform="matrix(0.01227951,0,0,-0.01227954,-92.564757,459.24591)">
      <path
         d="m 9248.12,14991.7 c -95.01,0 -172.3,77.3 -172.3,172.3 0,95 77.29,172.3 172.3,172.3 h 889.28 c 95,0 172.3,-77.3 172.3,-172.3 0,-95 -77.3,-172.3 -172.3,-172.3 h -95 v -1123.2 h 219 c 36.3,164.2 119.2,446 302.3,763.8 0.5,0.9 1,1.6 1.5,2.4 123.5,178 188.7,386.9 188.7,604.1 0,585.2 -476,1061.2 -1061.17,1061.2 -585.07,0 -1061.1,-476 -1061.1,-1061.2 0,-201.1 56.65,-397 163.69,-566.3 0.5,-0.7 0.92,-1.5 1.25,-2.2 158.68,-266.2 245.41,-509.5 290.2,-666.8 14.54,-51.1 25.74,-96.3 34.26,-135 h 222.1 v 1123.2 h -95.01"
         style="fill:#ffd565;fill-opacity:1;fill-rule:nonzero;stroke:none"
         id="path1246"
         inkscape:connector-curvature="0" />
    </g>
    <path
       d="m 18.855492,294.70744 v 0.0923 c 2.400967,0.7521 4.953789,1.15739 7.602034,1.15739 2.648247,0 5.202095,-0.40529 7.603062,-1.15739 v -0.0923 H 18.855492"
       style="fill:#ffffff;fill-opacity:1;fill-rule:nonzero;stroke:none;stroke-width:0.01026056"
       id="path1248"
       inkscape:connector-curvature="0" />
    <path
       d="m 18.855492,292.04277 v 1.84382 h 15.205096 v -1.84382 H 18.855492"
       style="fill:#ffffff;fill-opacity:1;fill-rule:nonzero;stroke:none;stroke-width:0.01026056"
       id="path1250"
       inkscape:connector-curvature="0" />
    <g
       id="g1252"
       transform="matrix(0.01039742,0,0,-0.01039744,-92.564757,459.24591)">
      <path
         d="m 12178.5,16300 h -357.7 -747 -357.7 v -139.9 h 1462.4 v 139.9"
         style="fill:#ffffff;fill-opacity:1;fill-rule:nonzero;stroke:none"
         id="path1254"
         inkscape:connector-curvature="0" />
    </g>
    <g
       id="g1256"
       transform="matrix(0.0115032,0,0,-0.01150323,-92.564757,459.24591)">
      <path
         d="m 10821.6,16074.9 c 62.1,0 112.6,50.5 112.6,112.5 0,62.1 -50.5,112.6 -112.6,112.6 h -949.33 c -62.09,0 -112.57,-50.5 -112.57,-112.6 0,-62 50.48,-112.5 112.57,-112.5 h 949.33"
         style="fill:#ffffff;fill-opacity:1;fill-rule:nonzero;stroke:none"
         id="path1258"
         inkscape:connector-curvature="0" />
    </g>
    <g
       id="g1926"
       transform="matrix(0.01271312,0,0,-0.01271315,-92.564757,459.24591)">
      <path
         d="m 9362.18,16300 c -17.75,0 -32.28,-14.5 -32.28,-32.3 v -233.2 c 0,-17.8 14.53,-32.3 32.28,-32.3 17.84,0 32.29,14.5 32.29,32.3 v 233.2 c 0,17.8 -14.45,32.3 -32.29,32.3"
         style="fill:#594a42;fill-opacity:1;fill-rule:nonzero;stroke:none"
         id="path1928"
         inkscape:connector-curvature="0" />
    </g>
    <g
       id="g1930"
       transform="matrix(0.01262734,0,0,-0.01262737,-92.564757,459.24591)">
      <path
         d="m 8942.22,16279.1 c -8.94,15.6 -28.85,20.9 -44.45,11.9 -15.52,-9 -20.8,-28.8 -11.86,-44.4 l 117.42,-203.4 c 6.01,-10.4 16.98,-16.2 28.19,-16.2 5.53,0 11.05,1.5 16.17,4.4 15.6,8.9 20.89,28.8 11.95,44.3 l -117.42,203.4"
         style="fill:#594a42;fill-opacity:1;fill-rule:nonzero;stroke:none"
         id="path1932"
         inkscape:connector-curvature="0" />
    </g>
    <g
       id="g1934"
       transform="matrix(0.01238314,0,0,-0.01238317,-92.564757,459.24591)">
      <path
         d="m 8909.57,16171.2 -207.4,119.7 c -15.82,9.1 -36.12,3.7 -45.24,-12.1 -9.2,-15.9 -3.73,-36.1 12.1,-45.3 l 207.39,-119.8 c 5.22,-2.9 10.86,-4.4 16.49,-4.4 11.52,0 22.63,5.9 28.76,16.6 9.19,15.8 3.72,36.1 -12.1,45.3"
         style="fill:#594a42;fill-opacity:1;fill-rule:nonzero;stroke:none"
         id="path1936"
         inkscape:connector-curvature="0" />
    </g>
    <g
       id="g1938"
       transform="matrix(0.01238324,0,0,-0.01238327,-92.564757,459.24591)">
      <path
         d="m 10521.1,16290.8 -207.4,-119.7 c -15.8,-9.1 -21.3,-29.4 -12.1,-45.3 6.2,-10.7 17.3,-16.5 28.8,-16.5 5.5,0 11.2,1.4 16.5,4.3 l 207.4,119.8 c 15.8,9.2 21.3,29.4 12.1,45.3 -9.2,15.8 -29.5,21.3 -45.3,12.1"
         style="fill:#594a42;fill-opacity:1;fill-rule:nonzero;stroke:none"
         id="path1940"
         inkscape:connector-curvature="0" />
    </g>
    <g
       id="g1942"
       transform="matrix(0.01262734,0,0,-0.01262737,-92.564757,459.24591)">
      <path
         d="m 9953.79,16291 c -15.53,9 -35.35,3.7 -44.37,-11.9 L 9792,16075.7 c -8.94,-15.5 -3.65,-35.4 11.95,-44.3 5.12,-2.9 10.64,-4.4 16.17,-4.4 11.21,0 22.18,5.8 28.19,16.2 l 117.42,203.4 c 8.94,15.6 3.66,35.4 -11.94,44.4"
         style="fill:#594a42;fill-opacity:1;fill-rule:nonzero;stroke:none"
         id="path1944"
         inkscape:connector-curvature="0" />
    </g>
    <g
       id="g1946"
       transform="matrix(0.01232989,0,0,-0.01232992,-92.564757,459.24591)">
      <path
         d="m 9083.77,13811.9 c -8.48,38.5 -19.64,83.6 -34.11,134.4 -44.61,156.7 -130.99,399 -289.02,664.1 -0.33,0.7 -0.74,1.5 -1.24,2.2 -106.6,168.6 -163.03,363.7 -163.03,564 0,582.7 474.09,1056.8 1056.77,1056.8 582.76,0 1056.86,-474.1 1056.86,-1056.8 0,-216.4 -65,-424.4 -188,-601.7 -0.5,-0.7 -1,-1.5 -1.5,-2.3 -182.3,-316.6 -264.9,-597.3 -301,-760.7 h 68.2 c 36.5,160.1 117.2,426.2 289.8,726.2 130.2,188.3 199.1,409 199.1,638.5 0,619.4 -504,1123.4 -1123.46,1123.4 -619.38,0 -1123.34,-504 -1123.34,-1123.4 0,-212.4 59.67,-419.2 172.43,-598.2 0.16,-0.2 0.25,-0.4 0.41,-0.7 187.74,-314.5 274.29,-599 312.65,-765.8 h 68.48"
         style="fill:#594a42;fill-opacity:1;fill-rule:nonzero;stroke:none"
         id="path1948"
         inkscape:connector-curvature="0" />
    </g>
    <g
       id="g1950"
       transform="matrix(0.01028301,0,0,-0.01028304,-92.564757,459.24591)">
      <path
         d="m 10795.5,16080.8 h 39.9 v 179.3 h -39.9 c -22.1,0 -40,17.9 -40,39.9 v -259.1 c 0,22 17.9,39.9 40,39.9"
         style="fill:#594a42;fill-opacity:1;fill-rule:nonzero;stroke:none"
         id="path1952"
         inkscape:connector-curvature="0" />
    </g>
    <path
       d="m 34.781905,294.56071 c 0.03283,-0.0113 0.06567,-0.0226 0.09953,-0.0349 v -0.2288 c 0,0.10055 -0.03796,0.19289 -0.09953,0.26369"
       style="fill:#594a42;fill-opacity:1;fill-rule:nonzero;stroke:none;stroke-width:0.01026056"
       id="path1954"
       inkscape:connector-curvature="0" />
    <g
       id="g1956"
       transform="matrix(0.01028301,0,0,-0.01028304,-92.564757,459.24591)">
      <path
         d="m 12353.9,16260.1 h -39.9 v -179.3 h 39.9 c 22.1,0 40,-17.9 40,-39.9 v 259.1 c 0,-22 -17.9,-39.9 -40,-39.9"
         style="fill:#594a42;fill-opacity:1;fill-rule:nonzero;stroke:none"
         id="path1958"
         inkscape:connector-curvature="0" />
    </g>
    <path
       d="m 18.034649,294.52582 c 0.03283,0.0123 0.06669,0.0236 0.09953,0.0349 -0.06156,-0.0708 -0.09953,-0.16314 -0.09953,-0.26369 v 0.2288"
       style="fill:#594a42;fill-opacity:1;fill-rule:nonzero;stroke:none;stroke-width:0.01026056"
       id="path1960"
       inkscape:connector-curvature="0" />
    <g
       id="g1962"
       transform="matrix(0.0104478,0,0,-0.01044782,-92.564757,459.24591)">
      <path
         d="m 10625.2,16082.2 h 39.3 v 139.2 h 356 c -21.7,0 -39.3,17.6 -39.3,39.3 v 39.3 h -261.1 -80.8 -14.1 c -21.7,0 -39.3,-17.6 -39.3,-39.3 v -217.8 c 0,21.7 17.6,39.3 39.3,39.3"
         style="fill:#594a42;fill-opacity:1;fill-rule:nonzero;stroke:none"
         id="path1964"
         inkscape:connector-curvature="0" />
    </g>
    <g
       id="g1966"
       transform="matrix(0.0104478,0,0,-0.01044782,-92.564757,459.24591)">
      <path
         d="m 12060.5,16300 h -257.4 v -39.3 c 0,-21.7 -17.6,-39.3 -39.3,-39.3 h 356 v -139.2 h 39.3 c 21.7,0 39.3,-17.6 39.3,-39.3 v 217.8 c 0,21.7 -17.6,39.3 -39.3,39.3 h -18.2 -80.4"
         style="fill:#594a42;fill-opacity:1;fill-rule:nonzero;stroke:none"
         id="path1968"
         inkscape:connector-curvature="0" />
    </g>
    <path
       d="m 18.569222,294.70744 c 0.09542,0.0308 0.190848,0.0626 0.28627,0.0923 v -0.0923 h -0.28627"
       style="fill:#594a42;fill-opacity:1;fill-rule:nonzero;stroke:none;stroke-width:0.01026056"
       id="path1970"
       inkscape:connector-curvature="0" />
    <path
       d="m 34.060588,294.79978 c 0.09542,-0.0297 0.190847,-0.0616 0.286269,-0.0923 h -0.286269 v 0.0923"
       style="fill:#594a42;fill-opacity:1;fill-rule:nonzero;stroke:none;stroke-width:0.01026056"
       id="path1972"
       inkscape:connector-curvature="0" />
    <g
       id="g1974"
       transform="matrix(0.0104478,0,0,-0.01044782,-92.564757,459.24591)">
      <path
         d="m 11724.5,16260.7 v 39.3 h -664.8 v -39.3 c 0,-21.7 -17.5,-39.3 -39.2,-39.3 h 743.3 c -21.7,0 -39.3,17.6 -39.3,39.3"
         style="fill:#594a42;fill-opacity:1;fill-rule:nonzero;stroke:none"
         id="path1976"
         inkscape:connector-curvature="0" />
    </g>
    <g
       id="g1978"
       transform="matrix(0.01030815,0,0,-0.01030818,-92.564757,459.24591)">
      <path
         d="m 10769.1,16220.4 h 39.8 1475.1 39.8 c 22,0 39.8,17.8 39.8,39.8 0,22 -17.8,39.8 -39.8,39.8 h -39.8 -1475.1 -39.8 c -22,0 -39.8,-17.8 -39.8,-39.8 0,-22 17.8,-39.8 39.8,-39.8"
         style="fill:#594a42;fill-opacity:1;fill-rule:nonzero;stroke:none"
         id="path1980"
         inkscape:connector-curvature="0" />
    </g>
    <path
       d="M 34.471009,293.88659 H 18.44507 c -0.226758,0 -0.410421,0.18367 -0.410421,0.41043 0,0.10055 0.03796,0.19289 0.09953,0.26369 0.143648,0.0503 0.289349,0.0985 0.435047,0.14673 h 0.28627 15.205096 0.286269 c 0.145699,-0.0482 0.2914,-0.0965 0.435048,-0.14673 0.06156,-0.0708 0.09953,-0.16314 0.09953,-0.26369 0,-0.22676 -0.183663,-0.41043 -0.410422,-0.41043"
       style="fill:#594a42;fill-opacity:1;fill-rule:nonzero;stroke:none;stroke-width:0.01026056"
       id="path1982"
       inkscape:connector-curvature="0" />
    <g
       id="g1984"
       transform="matrix(0.01129398,0,0,-0.01129401,-92.564757,459.24591)">
      <path
         d="m 10231.1,15042.5 v 36.3 1221.2 h -72.6 v -1221.2 -36.3 c 0,-20.1 16.2,-36.4 36.3,-36.4 20.1,0 36.3,16.3 36.3,36.4"
         style="fill:#594a42;fill-opacity:1;fill-rule:nonzero;stroke:none"
         id="path1986"
         inkscape:connector-curvature="0" />
    </g>
    <g
       id="g1988"
       transform="matrix(0.01129398,0,0,-0.01129401,-92.564757,459.24591)">
      <path
         d="m 10846.1,16300 v -1221.2 -36.3 c 0,-20.1 16.3,-36.4 36.3,-36.4 20.1,0 36.4,16.3 36.4,36.4 v 36.3 1221.2 h -72.7"
         style="fill:#594a42;fill-opacity:1;fill-rule:nonzero;stroke:none"
         id="path1990"
         inkscape:connector-curvature="0" />
    </g>
    <g
       id="g1992"
       transform="matrix(0.01155357,0,0,-0.0115536,-92.564757,459.24591)">
      <path
         d="m 9829.24,16004.8 c -61.82,0 -112.08,50.3 -112.08,112.1 0,61.8 50.26,112.1 112.08,112.1 h 945.16 c 61.8,0 112.1,-50.3 112.1,-112.1 0,-61.8 -50.3,-112.1 -112.1,-112.1 z m 844.16,-71 h 101 c 101,0 183.1,82.1 183.1,183.1 0,101 -82.1,183.1 -183.1,183.1 h -945.16 c -100.98,0 -183.13,-82.1 -183.13,-183.1 0,-101 82.15,-183.1 183.13,-183.1 h 100.97 71.09 601.1 71"
         style="fill:#594a42;fill-opacity:1;fill-rule:nonzero;stroke:none"
         id="path1994"
         inkscape:connector-curvature="0" />
    </g>
    <g
       id="g1996"
       transform="matrix(0.01315032,0,0,-0.01315035,-92.564757,459.24591)">
      <path
         d="m 9559.05,16175.9 c -3.36,0 -6.87,0.5 -10.22,1.4 -64.29,17.5 -130.38,31.7 -196.31,42.2 -21.3,3.5 -35.74,23.5 -32.38,44.7 3.43,21.3 23.48,35.8 44.71,32.4 68.66,-11 137.48,-25.8 204.42,-44 20.75,-5.7 33.08,-27.1 27.39,-47.9 -4.68,-17.4 -20.44,-28.8 -37.61,-28.8"
         style="fill:#594a42;fill-opacity:1;fill-rule:nonzero;stroke:none"
         id="path1998"
         inkscape:connector-curvature="0" />
    </g>
    <g
       id="g2000"
       transform="matrix(0.01316766,0,0,-0.01316769,-92.564757,459.24591)">
      <path
         d="m 9038.98,12361.7 c -525.97,0 -1020.47,204.9 -1392.35,576.7 -371.92,372 -576.74,866.5 -576.74,1392.4 0,526 204.82,1020.5 576.74,1392.5 371.88,371.9 866.38,576.7 1392.35,576.7 21.58,0 38.96,-17.4 38.96,-39 0,-21.5 -17.38,-38.9 -38.96,-38.9 -505.09,0 -980.03,-196.7 -1337.25,-553.9 -357.21,-357.3 -553.92,-832.2 -553.92,-1337.4 0,-505.1 196.71,-980 553.92,-1337.2 357.22,-357.3 832.16,-553.9 1337.25,-553.9 505.17,0 980.12,196.6 1337.32,553.9 357.2,357.2 553.9,832.1 553.9,1337.2 0,354.4 -98.5,699.9 -285.1,999.1 -181.4,291.1 -438.4,527.7 -742.98,684.2 -19.16,9.8 -26.72,33.3 -16.82,52.5 9.81,19.1 33.27,26.7 52.43,16.8 317.17,-163 584.67,-409.3 773.57,-712.3 194.2,-311.5 296.9,-671.3 296.9,-1040.3 0,-525.9 -204.9,-1020.4 -576.8,-1392.4 -371.9,-371.8 -866.44,-576.7 -1392.42,-576.7"
         style="fill:#594a42;fill-opacity:1;fill-rule:nonzero;stroke:none"
         id="path2002"
         inkscape:connector-curvature="0" />
    </g>
    <g
       id="g2004"
       transform="matrix(0.01307296,0,0,-0.01307299,-92.564757,459.24591)">
      <path
         d="m 9856.36,16250.1 c 0,-27.6 -22.37,-50 -50,-50 -27.55,0 -49.92,22.4 -49.92,50 0,27.5 22.37,49.9 49.92,49.9 27.63,0 50,-22.4 50,-49.9"
         style="fill:#594a42;fill-opacity:1;fill-rule:nonzero;stroke:none"
         id="path2006"
         inkscape:connector-curvature="0" />
    </g>
  </g>
</svg>
