<?xml version="1.0" encoding="UTF-8" standalone="no"?>
<svg
   xmlns:dc="http://purl.org/dc/elements/1.1/"
   xmlns:cc="http://creativecommons.org/ns#"
   xmlns:rdf="http://www.w3.org/1999/02/22-rdf-syntax-ns#"
   xmlns:svg="http://www.w3.org/2000/svg"
   xmlns="http://www.w3.org/2000/svg"
   id="svg2208"
   version="1.1"
   viewBox="0 0 52.916665 52.916668"
   height="200"
   width="200">
  <defs
     id="defs2202" />
  <metadata
     id="metadata2205">
    <rdf:RDF>
      <cc:Work
         rdf:about="">
        <dc:format>image/svg+xml</dc:format>
        <dc:type
           rdf:resource="http://purl.org/dc/dcmitype/StillImage" />
        <dc:title></dc:title>
      </cc:Work>
    </rdf:RDF>
  </metadata>
  <g
     transform="translate(0,-244.08332)"
     id="layer1">
    <g
       transform="matrix(0.01243651,0,0,-0.01243643,-22.794159,459.24598)"
       id="g1212">
      <path
         id="path1214"
         style="fill:#93cce5;fill-opacity:1;fill-rule:nonzero;stroke:none"
         d="m 2639.05,16232.5 v -2047.6 h 3110.17 c 21.8,39.4 42.33,79.5 61.56,120.5 H 2806.84 c -18.22,0 -33,14.7 -33,33 V 16163 c 0,18.3 14.78,33 33,33 h 2923.35 c -20.48,35.4 -42.04,70 -64.54,104 H 2706.53 c -37.2,0 -67.48,-30.3 -67.48,-67.5" />
    </g>
    <g
       transform="matrix(0.01077234,0,0,-0.01077226,-22.794159,459.24598)"
       id="g1216">
      <path
         id="path1218"
         style="fill:#ffffff;fill-opacity:1;fill-rule:nonzero;stroke:none"
         d="m 5013.36,16220.1 h 264.27 c 23.04,0 41.73,-18.7 41.73,-41.7 0,-23.1 -18.69,-41.8 -41.73,-41.8 h -264.27 c -23.04,0 -41.72,18.7 -41.72,41.8 0,23 18.68,41.7 41.72,41.7 z m -1966.63,-88.2 c 0,-43 34.95,-77.9 77.9,-77.9 h 1560.47 920.79 816.75 c 61.9,78.1 118.97,160.3 170.73,246 H 3046.73 v -168.1" />
    </g>
    <g
       transform="matrix(0.01230682,0,0,-0.01230674,-22.794159,459.24598)"
       id="g1220">
      <path
         id="path1222"
         style="fill:#ffffff;fill-opacity:1;fill-rule:nonzero;stroke:none"
         d="m 3718.57,15601.9 h 150.08 c 18.41,0 33.35,-15 33.35,-33.3 0,-18.5 -14.94,-33.4 -33.35,-33.4 h -150.08 c -18.41,0 -33.35,14.9 -33.35,33.4 0,18.3 14.94,33.3 33.35,33.3 z m 44.85,258.5 c 9.2,15.9 29.6,21.3 45.55,12.1 l 129.96,-75 c 15.95,-9.2 21.43,-29.6 12.2,-45.5 -6.16,-10.8 -17.38,-16.8 -28.91,-16.8 -5.65,0 -11.39,1.5 -16.64,4.5 l -129.96,75.1 c -15.95,9.2 -21.42,29.6 -12.2,45.6 z m 213.61,213.6 c 15.95,9.1 36.34,3.7 45.56,-12.3 l 75.03,-130 c 9.21,-15.9 3.75,-36.3 -12.2,-45.5 -5.25,-3 -10.99,-4.5 -16.64,-4.5 -11.53,0 -22.74,6 -28.93,16.7 l -75.03,130 c -9.21,16 -3.74,36.3 12.21,45.6 z m 258.46,44.8 c 0,18.4 14.93,33.4 33.35,33.4 18.42,0 33.35,-15 33.35,-33.4 v -150 c 0,-18.5 -14.93,-33.4 -33.35,-33.4 -18.42,0 -33.35,14.9 -33.35,33.4 z m 942.79,-1285.7 -160.6,-160.6 -387.36,387.3 -126.55,-389.4 -422.96,1099.6 1099.57,-423 -389.46,-126.5 z M 2869.77,14522.8 H 5902 c 106.34,248.9 165.27,522.9 165.27,810.6 0,349.3 -86.8,678.2 -239.81,966.6 H 2869.77 v -1777.2" />
    </g>
    <g
       transform="matrix(0.01055944,0,0,-0.01055936,-22.794159,459.24598)"
       id="g1224">
      <path
         id="path1226"
         style="fill:#93cce5;fill-opacity:1;fill-rule:nonzero;stroke:none"
         d="m 4817.9,16300 c -5.3,-181.5 -47.43,-287 -88.27,-347.2 H 5768.9 c -40.83,60.2 -82.97,165.7 -88.26,347.2 H 4817.9" />
    </g>
    <g
       transform="matrix(0.01028414,0,0,-0.01028406,-22.794159,459.24598)"
       id="g1228">
      <path
         id="path1230"
         style="fill:#93cce5;fill-opacity:1;fill-rule:nonzero;stroke:none"
         d="m 4759.08,16300 h -244.15 c -35.45,0 -75.86,-29.7 -75.86,-55.8 v -15.4 h 1620.01 c 37.97,22.8 75.34,46.5 111.94,71.2 H 6020.47 4759.08" />
    </g>
    <g
       transform="matrix(0.0107195,0,0,-0.01071942,-22.794159,459.24598)"
       id="g1232">
      <path
         id="path1234"
         style="fill:#93cce5;fill-opacity:1;fill-rule:nonzero;stroke:none"
         d="m 5038.06,16216.2 h 265.57 c 23.16,0 41.94,18.7 41.94,41.9 0,23.1 -18.78,41.9 -41.94,41.9 h -265.57 c -23.15,0 -41.92,-18.8 -41.92,-41.9 0,-23.2 18.77,-41.9 41.92,-41.9" />
    </g>
    <g
       transform="matrix(0.01190665,0,0,-0.01190657,-22.794159,459.24598)"
       id="g1236">
      <path
         id="path1238"
         style="fill:#93cce5;fill-opacity:1;fill-rule:nonzero;stroke:none"
         d="m 4217.96,16300 437.17,-1136.6 130.8,402.6 400.38,-400.4 166.01,166 -400.39,400.4 402.56,130.8 -1136.53,437.2" />
    </g>
    <g
       transform="matrix(0.01248679,0,0,-0.0124867,-22.794159,459.24598)"
       id="g1874">
      <path
         id="path1876"
         style="fill:#594a42;fill-opacity:1;fill-rule:nonzero;stroke:none"
         d="m 2562.67,16167 v -2072.2 c 0,18.2 14.72,32.9 32.87,32.9 h 32.87 V 16167 c 0,37.1 30.15,67.3 67.2,67.3 H 5642.8 c -14.7,22.2 -29.8,44.1 -45.34,65.7 H 2695.61 c -73.3,0 -132.94,-59.6 -132.94,-133" />
    </g>
    <g
       transform="matrix(0.01082272,0,0,-0.01082264,-22.794159,459.24598)"
       id="g1878">
      <path
         id="path1880"
         style="fill:#594a42;fill-opacity:1;fill-rule:nonzero;stroke:none"
         d="m 2994.64,16300 c -20.95,0 -37.93,-17 -37.93,-37.9 v -205.3 c 0,-84.5 68.8,-153.4 153.38,-153.4 h 1514.62 c 0.39,12.3 0.67,24.8 0.67,37.9 0,21 16.98,38 37.92,38 H 3110.09 c -42.75,0 -77.53,34.8 -77.53,77.5 v 167.4 h 3530.13 c 15.07,24.9 29.63,50.2 43.78,75.8 h -3573.91 -37.92" />
    </g>
    <g
       transform="matrix(0.01060971,0,0,-0.01060964,-22.794159,459.24598)"
       id="g1882">
      <path
         id="path1884"
         style="fill:#594a42;fill-opacity:1;fill-rule:nonzero;stroke:none"
         d="m 5730.48,16261.3 c 0,-13.4 0.27,-26.2 0.67,-38.7 h 726.02 c 21.83,25.4 43.12,51.2 63.89,77.4 H 5691.8 c 21.36,0 38.68,-17.3 38.68,-38.7" />
    </g>
    <g
       transform="matrix(0.0123572,0,0,-0.01235712,-22.794159,459.24598)"
       id="g1886">
      <path
         id="path1888"
         style="fill:#594a42;fill-opacity:1;fill-rule:nonzero;stroke:none"
         d="m 2791.65,16266.8 v -1836.4 c 0,-18.3 14.87,-33.2 33.21,-33.2 h 3023.22 c 10.31,21.9 20.31,44.1 29.87,66.4 H 2858.07 v 1770 h 2945.64 c -11.88,22.3 -24.08,44.5 -36.75,66.4 h -2942.1 c -18.34,0 -33.21,-14.9 -33.21,-33.2" />
    </g>
    <g
       transform="matrix(0.01060971,0,0,-0.01060964,-22.794159,459.24598)"
       id="g1890">
      <path
         id="path1892"
         style="fill:#594a42;fill-opacity:1;fill-rule:nonzero;stroke:none"
         d="m 5691.8,16300 h -934.9 c -21.36,0 -38.69,-17.3 -38.69,-38.7 0,-13.4 -0.27,-26.2 -0.67,-38.7 -8.01,-252.3 -93.26,-329.7 -115.13,-345.5 h 104.77 c 40.65,59.9 82.58,164.9 87.85,345.5 h 858.65 c 5.26,-180.6 47.2,-285.6 87.84,-345.5 h 104.57 c -22.23,15.6 -107.02,91.6 -114.94,345.5 -0.4,12.5 -0.67,25.3 -0.67,38.7 0,21.4 -17.32,38.7 -38.68,38.7" />
    </g>
    <g
       transform="matrix(0.01033452,0,0,-0.01033445,-22.794159,459.24598)"
       id="g1894">
      <path
         id="path1896"
         style="fill:#594a42;fill-opacity:1;fill-rule:nonzero;stroke:none"
         d="M 6001.81,16300 H 5894.45 4832.56 4725 4492.93 c -73.13,0 -154.92,-57.7 -154.92,-134.9 v -55.1 c 0,-22 17.78,-39.7 39.72,-39.7 h 1509.15 c 48.54,24.9 96.08,51.4 142.68,79.4 H 4417.44 v 15.4 c 0,25.9 40.21,55.5 75.49,55.5 h 242.96 1255.24 149.82 c 37.19,25.1 73.58,51.3 109.28,78.4 -5.4,0.6 -10.79,1 -16.14,1 h -232.28" />
    </g>
    <g
       transform="matrix(0.01219518,0,0,-0.0121951,-22.794159,459.24598)"
       id="g1898">
      <path
         id="path1900"
         style="fill:#594a42;fill-opacity:1;fill-rule:nonzero;stroke:none"
         d="m 4307.91,16081.2 c 18.58,0 33.65,15.1 33.65,33.7 v 151.4 c 0,18.6 -15.07,33.7 -33.65,33.7 -18.59,0 -33.66,-15.1 -33.66,-33.7 v -151.4 c 0,-18.6 15.07,-33.7 33.66,-33.7" />
    </g>
    <g
       transform="matrix(0.01214306,0,0,-0.01214298,-22.794159,459.24598)"
       id="g1902">
      <path
         id="path1904"
         style="fill:#594a42;fill-opacity:1;fill-rule:nonzero;stroke:none"
         d="m 4094.32,16112.8 c 6.27,-10.9 17.63,-16.9 29.32,-16.9 5.73,0 11.54,1.5 16.86,4.5 16.17,9.3 21.71,30 12.37,46.2 l -76.04,131.7 c -9.34,16.2 -30.01,21.7 -46.17,12.4 -16.17,-9.4 -21.71,-30 -12.38,-46.2 l 76.04,-131.7" />
    </g>
    <g
       transform="matrix(0.011991,0,0,-0.01199091,-22.794159,459.24598)"
       id="g1906">
      <path
         id="path1908"
         style="fill:#594a42;fill-opacity:1;fill-rule:nonzero;stroke:none"
         d="m 3875.06,16231.3 133.39,-77 c 5.38,-3.1 11.27,-4.6 17.07,-4.6 11.84,0 23.35,6.1 29.68,17.2 9.46,16.3 3.84,37.2 -12.53,46.7 l -133.39,77 c -16.36,9.4 -37.3,3.8 -46.74,-12.5 -9.46,-16.4 -3.85,-37.3 12.52,-46.8" />
    </g>
    <g
       transform="matrix(0.01177973,0,0,-0.01177965,-22.794159,459.24598)"
       id="g1910">
      <path
         id="path1912"
         style="fill:#594a42;fill-opacity:1;fill-rule:nonzero;stroke:none"
         d="m 3884.96,16230.3 h 156.78 c 19.25,0 34.85,15.6 34.85,34.9 0,19.1 -15.6,34.8 -34.85,34.8 h -156.78 c -19.24,0 -34.84,-15.7 -34.84,-34.8 0,-19.3 15.6,-34.9 34.84,-34.9" />
    </g>
    <g
       transform="matrix(0.01315045,0,0,-0.01315036,-22.794159,459.24598)"
       id="g1914">
      <path
         id="path1916"
         style="fill:#594a42;fill-opacity:1;fill-rule:nonzero;stroke:none"
         d="m 4253.44,16175.9 c -3.39,0 -6.83,0.5 -10.26,1.4 -64.3,17.5 -130.33,31.7 -196.27,42.2 -21.28,3.5 -35.76,23.5 -32.35,44.7 3.4,21.3 23.47,35.8 44.68,32.4 68.67,-11 137.45,-25.8 204.41,-44 20.78,-5.7 33.06,-27.1 27.42,-47.9 -4.73,-17.4 -20.46,-28.8 -37.63,-28.8" />
    </g>
    <g
       transform="matrix(0.0131678,0,0,-0.0131677,-22.794159,459.24598)"
       id="g1918">
      <path
         id="path1920"
         style="fill:#594a42;fill-opacity:1;fill-rule:nonzero;stroke:none"
         d="m 3740.38,12361.7 c -525.98,0 -1020.47,204.9 -1392.4,576.7 -371.91,372 -576.74,866.5 -576.74,1392.4 0,526 204.83,1020.5 576.74,1392.5 371.93,371.9 866.42,576.7 1392.4,576.7 21.51,0 38.96,-17.4 38.96,-39 0,-21.5 -17.45,-38.9 -38.96,-38.9 -505.16,0 -980.08,-196.7 -1337.29,-553.9 -357.2,-357.3 -553.93,-832.2 -553.93,-1337.4 0,-505.1 196.73,-980 553.93,-1337.2 357.21,-357.3 832.13,-553.9 1337.29,-553.9 505.15,0 980.08,196.6 1337.28,553.9 357.21,357.2 553.93,832.1 553.93,1337.2 0,354.4 -98.59,699.9 -285.1,999.1 -181.44,291.1 -438.38,527.7 -743.01,684.2 -19.14,9.8 -26.69,33.3 -16.85,52.5 9.82,19.1 33.32,26.6 52.46,16.8 317.15,-163 584.63,-409.3 773.53,-712.3 194.22,-311.5 296.89,-671.3 296.89,-1040.3 0,-525.9 -204.82,-1020.4 -576.74,-1392.4 -371.92,-371.8 -866.42,-576.7 -1392.39,-576.7" />
    </g>
    <g
       transform="matrix(0.01307308,0,0,-0.013073,-22.794159,459.24598)"
       id="g1922">
      <path
         id="path1924"
         style="fill:#594a42;fill-opacity:1;fill-rule:nonzero;stroke:none"
         d="m 4519.32,16250.1 c 0,-27.6 -22.36,-50 -49.95,-50 -27.58,0 -49.94,22.4 -49.94,50 0,27.5 22.36,49.9 49.94,49.9 27.59,0 49.95,-22.4 49.95,-49.9" />
    </g>
  </g>
</svg>
