<?xml version="1.0" encoding="UTF-8" standalone="no"?>
<!-- Created with Inkscape (http://www.inkscape.org/) -->

<svg
   xmlns:dc="http://purl.org/dc/elements/1.1/"
   xmlns:cc="http://creativecommons.org/ns#"
   xmlns:rdf="http://www.w3.org/1999/02/22-rdf-syntax-ns#"
   xmlns:svg="http://www.w3.org/2000/svg"
   xmlns="http://www.w3.org/2000/svg"
   xmlns:sodipodi="http://sodipodi.sourceforge.net/DTD/sodipodi-0.dtd"
   xmlns:inkscape="http://www.inkscape.org/namespaces/inkscape"
   width="200"
   height="200"
   viewBox="0 0 52.916 52.916"
   version="1.1"
   id="svg4220"
   inkscape:version="0.92.4 (5da689c313, 2019-01-14)"
   sodipodi:docname="icon_target.svg">
  <defs
     id="defs4214" />
  <sodipodi:namedview
     id="base"
     pagecolor="#ffffff"
     bordercolor="#666666"
     borderopacity="1.0"
     inkscape:pageopacity="0.0"
     inkscape:pageshadow="2"
     inkscape:zoom="0.35"
     inkscape:cx="-185.71429"
     inkscape:cy="560"
     inkscape:document-units="px"
     inkscape:current-layer="layer1"
     showgrid="false"
     units="px"
     inkscape:pagecheckerboard="true"
     inkscape:window-width="1920"
     inkscape:window-height="1016"
     inkscape:window-x="0"
     inkscape:window-y="27"
     inkscape:window-maximized="1" />
  <metadata
     id="metadata4217">
    <rdf:RDF>
      <cc:Work
         rdf:about="">
        <dc:format>image/svg+xml</dc:format>
        <dc:type
           rdf:resource="http://purl.org/dc/dcmitype/StillImage" />
        <dc:title></dc:title>
      </cc:Work>
    </rdf:RDF>
  </metadata>
  <g
     inkscape:label="Layer 1"
     inkscape:groupmode="layer"
     id="layer1"
     transform="translate(0,-244.08025)">
    <g
       id="g1004"
       transform="matrix(0.01714256,0,0,-0.01714261,-232.10434,389.64996)">
      <path
         d="m 14978.9,6098.13 v 257.97 c -480.6,52.13 -856,460.21 -856,954.42 0,529.41 430.8,960.12 960.2,960.12 529.4,0 960.1,-430.71 960.1,-960.12 0,-494.21 -375.4,-902.29 -856,-954.42 v -257.97 c 622.5,53.03 1112.8,576.51 1112.8,1212.39 0,311.12 -117.4,595.31 -310.2,810.66 -250.6,194.11 -565.2,309.68 -906.7,309.68 -341.6,0 -656.2,-115.57 -906.9,-309.68 -192.7,-215.35 -310.1,-499.54 -310.1,-810.66 0,-635.88 490.3,-1159.36 1112.8,-1212.39"
         style="fill:#ffffff;fill-opacity:1;fill-rule:nonzero;stroke:none"
         id="path1006"
         inkscape:connector-curvature="0" />
    </g>
    <g
       id="g1008"
       transform="matrix(0.01682212,0,0,-0.01682218,-232.10434,389.64996)">
      <path
         d="m 16300,7449.79 c 0,512.59 -417,929.61 -929.6,929.61 -512.6,0 -929.6,-417.02 -929.6,-929.61 0,-476.67 360.6,-870.62 823.4,-923.51 v 142.48 h -241.8 c -8.8,0 -16.8,4.7 -21.1,12.2 -4.4,7.57 -4.4,16.9 0,24.4 l 81.5,141.26 c -225,107.72 -380.7,337.6 -380.7,603.17 0,368.52 299.8,668.31 668.3,668.31 368.5,0 668.3,-299.79 668.3,-668.31 0,-265.57 -155.8,-495.45 -380.7,-603.17 l 81.5,-141.26 c 4.4,-7.5 4.4,-16.83 0,-24.4 -4.4,-7.5 -12.4,-12.2 -21.1,-12.2 h -241.9 v -142.48 c 462.8,52.89 823.5,446.84 823.5,923.51"
         style="fill:#f4bebe;fill-opacity:1;fill-rule:nonzero;stroke:none"
         id="path1010"
         inkscape:connector-curvature="0" />
    </g>
    <g
       id="g1012"
       transform="matrix(0.0165021,0,0,-0.01650215,-232.10434,389.64996)">
      <path
         d="m 16300,7594.26 c 0,348.26 -283.3,631.53 -631.5,631.53 -348.3,0 -631.6,-283.27 -631.6,-631.53 0,-252.37 148.8,-470.61 363.3,-571.65 l 144.9,250.95 c -128.8,49.68 -220.3,174.65 -220.3,320.7 0,189.58 154.1,343.78 343.7,343.78 189.5,0 343.7,-154.2 343.7,-343.78 0,-146.05 -91.7,-271.02 -220.4,-320.7 l 144.8,-250.95 c 214.5,101.04 363.4,319.28 363.4,571.65"
         style="fill:#ffffff;fill-opacity:1;fill-rule:nonzero;stroke:none"
         id="path1014"
         inkscape:connector-curvature="0" />
    </g>
    <g
       id="g1016"
       transform="matrix(0.01616032,0,0,-0.01616038,-232.10434,389.64996)">
      <path
         d="m 16145,7645.59 c 9.9,-9.9 9.9,-26.03 0,-35.93 -4.9,-4.96 -11.5,-7.43 -17.9,-7.43 -6.5,0 -13.1,2.47 -18,7.43 l -109.3,109.33 -109.3,-109.33 c -5,-4.96 -11.4,-7.43 -18,-7.43 -6.5,0 -13,2.47 -18,7.43 -9.9,9.9 -9.9,26.03 0,35.93 l 109.4,109.27 -109.4,109.33 c -9.9,9.91 -9.9,25.97 0,35.94 9.9,9.91 26.1,9.91 36,0 l 109.3,-109.33 109.3,109.33 c 9.9,9.91 26,9.91 35.9,0 9.9,-9.97 9.9,-26.03 0,-35.94 l -109.3,-109.33 z m 155,109.27 c 0,165.59 -134.7,300.25 -300.2,300.25 -165.5,0 -300.2,-134.66 -300.2,-300.25 0,-130.35 83.6,-241.58 200,-282.92 l 78.2,135.49 c 4.6,7.88 12.9,12.7 22,12.7 9.1,0 17.5,-4.82 22,-12.7 l 78.2,-135.49 c 116.4,41.34 200,152.57 200,282.92"
         style="fill:#f4bebe;fill-opacity:1;fill-rule:nonzero;stroke:none"
         id="path1018"
         inkscape:connector-curvature="0" />
    </g>
    <g
       id="g1020"
       transform="matrix(0.01617828,0,0,-0.01617833,-232.10434,389.64996)">
      <path
         d="m 16041.7,6959.52 c 0,14.02 11.3,25.37 25.4,25.37 h 232.9 l -317.9,550.69 -318,-550.69 h 232.9 c 14,0 25.4,-11.35 25.4,-25.37 V 5792.7 c 19.8,-0.76 39.6,-1.27 59.7,-1.27 19.9,0 39.8,0.51 59.6,1.27 v 1166.82"
         style="fill:#ffffff;fill-opacity:1;fill-rule:nonzero;stroke:none"
         id="path1022"
         inkscape:connector-curvature="0" />
    </g>
    <g
       id="g1650"
       transform="matrix(0.01575319,0,0,-0.01575324,-232.10434,389.64996)">
      <path
         d="m 16300,6583.62 v 52.37 c -677.3,57.71 -1210.9,627.36 -1210.9,1319.33 0,338.56 127.7,647.81 337.5,882.16 -70.4,-54.45 -136,-114.57 -196.5,-179.7 -122.6,-205.76 -193.1,-446.03 -193.1,-702.46 0,-720.76 556.9,-1313.8 1263,-1371.7"
         style="fill:#594a42;fill-opacity:1;fill-rule:nonzero;stroke:none"
         id="path1652"
         inkscape:connector-curvature="0" />
    </g>
    <g
       id="g1654"
       transform="matrix(0.01719293,0,0,-0.01719299,-232.10434,389.64996)">
      <path
         d="m 15142.7,6080.27 v -47.99 c 647,53.06 1157.3,596.43 1157.3,1256.83 0,234.95 -64.7,455.11 -177,643.63 -55.3,59.68 -115.5,114.76 -180,164.65 192.2,-214.72 309.3,-498.07 309.3,-808.28 0,-634.02 -488.9,-1155.97 -1109.6,-1208.84"
         style="fill:#594a42;fill-opacity:1;fill-rule:nonzero;stroke:none"
         id="path1656"
         inkscape:connector-curvature="0" />
    </g>
    <g
       id="g1658"
       transform="matrix(0.0168725,0,0,-0.01687256,-232.10434,389.64996)">
      <path
         d="m 16300,7427.56 c 0,537.88 -437.6,975.48 -975.5,975.48 -537.9,0 -975.5,-437.6 -975.5,-975.48 0,-502.13 381.4,-916.74 869.6,-969.71 v 48.96 c -461.3,52.72 -820.9,445.5 -820.9,920.75 0,511.06 415.8,926.83 926.8,926.83 511.1,0 926.9,-415.77 926.9,-926.83 0,-475.25 -359.7,-868.03 -821.1,-920.75 v -48.96 c 488.3,52.97 869.7,467.58 869.7,969.71"
         style="fill:#594a42;fill-opacity:1;fill-rule:nonzero;stroke:none"
         id="path1660"
         inkscape:connector-curvature="0" />
    </g>
    <g
       id="g1662"
       transform="matrix(0.01655248,0,0,-0.01655253,-232.10434,389.64996)">
      <path
         d="m 16300,7571.16 c 0,374.53 -304.7,679.2 -679.2,679.2 -374.5,0 -679.2,-304.67 -679.2,-679.2 0,-269.89 158.3,-503.52 386.9,-612.99 l 24.9,43.08 c -213.9,100.73 -362.2,318.3 -362.2,569.91 0,347.19 282.4,629.61 629.6,629.61 347.1,0 629.6,-282.42 629.6,-629.61 0,-251.61 -148.4,-469.18 -362.2,-569.91 l 24.9,-43.08 c 228.6,109.47 386.9,343.1 386.9,612.99"
         style="fill:#594a42;fill-opacity:1;fill-rule:nonzero;stroke:none"
         id="path1664"
         inkscape:connector-curvature="0" />
    </g>
    <g
       id="g1666"
       transform="matrix(0.0162107,0,0,-0.01621075,-232.10434,389.64996)">
      <path
         d="m 16300,7730.77 c 0,192.99 -157,349.95 -349.9,349.95 -193,0 -349.9,-156.96 -349.9,-349.95 0,-148.68 93.3,-275.9 224.3,-326.47 l 25.7,44.43 c -116,41.21 -199.3,152.1 -199.3,282.04 0,165.07 134.2,299.32 299.2,299.32 165,0 299.3,-134.25 299.3,-299.32 0,-129.94 -83.4,-240.83 -199.4,-282.04 l 25.6,-44.43 c 131.1,50.57 224.4,177.79 224.4,326.47"
         style="fill:#594a42;fill-opacity:1;fill-rule:nonzero;stroke:none"
         id="path1668"
         inkscape:connector-curvature="0" />
    </g>
    <g
       id="g1670"
       transform="matrix(0.01624815,0,0,-0.0162482,-232.10434,389.64996)">
      <path
         d="m 16023.2,6433.82 v 272.16 50.84 147.51 h 250.4 c 9,0 17.4,4.87 21.9,12.63 4.5,7.84 4.5,17.5 0,25.26 l -84.4,146.26 -25.4,43.88 -147.1,254.87 -25.6,44.33 -77.8,134.76 c -4.5,7.83 -12.8,12.63 -21.9,12.63 -9,0 -17.3,-4.8 -21.9,-12.63 l -77.8,-134.76 -25.5,-44.33 -147.2,-254.87 -25.3,-43.88 -84.4,-146.26 c -4.6,-7.76 -4.6,-17.42 0,-25.26 4.5,-7.76 12.8,-12.63 21.8,-12.63 h 250.4 v -147.51 -50.84 -272.16 -50.78 -612.6 c 16.7,-1.2 33.6,-2.02 50.5,-2.65 v 1161.8 c 0,13.96 -11.3,25.26 -25.2,25.26 h -231.9 l 316.5,548.32 316.6,-548.32 H 15998 c -14,0 -25.3,-11.3 -25.3,-25.26 v -1161.8 c 16.9,0.63 33.8,1.45 50.5,2.65 v 612.6 50.78"
         style="fill:#594a42;fill-opacity:1;fill-rule:nonzero;stroke:none"
         id="path1672"
         inkscape:connector-curvature="0" />
    </g>
    <g
       id="g1674"
       transform="matrix(0.01601647,0,0,-0.01601652,-232.10434,389.64996)">
      <path
         d="m 16179.7,7824.5 110.3,110.32 c 10,9.99 10,26.2 0,36.26 -10,9.99 -26.3,9.99 -36.3,0 l -110.2,-110.32 -110.3,110.32 c -10,9.99 -26.3,9.99 -36.3,0 -10,-10.06 -10,-26.27 0,-36.26 l 110.3,-110.32 -110.3,-110.25 c -10,-9.99 -10,-26.26 0,-36.26 5,-4.99 11.6,-7.49 18.2,-7.49 6.6,0 13.1,2.5 18.1,7.49 l 110.3,110.32 110.2,-110.32 c 5,-4.99 11.6,-7.49 18.2,-7.49 6.5,0 13.1,2.5 18.1,7.49 10,10 10,26.27 0,36.26 l -110.3,110.25"
         style="fill:#594a42;fill-opacity:1;fill-rule:nonzero;stroke:none"
         id="path1676"
         inkscape:connector-curvature="0" />
    </g>
    <g
       id="g1678"
       transform="matrix(0.01630756,0,0,-0.01630761,-232.10434,389.64996)">
      <path
         d="m 16265.1,8776.67 c -2.7,0 -5.5,0.38 -8.3,1.13 -51.9,14.09 -105.1,25.54 -158.3,34.04 -17.1,2.77 -28.8,18.87 -26,36.05 2.7,17.11 18.9,28.82 36,26.11 55.3,-8.87 110.8,-20.83 164.8,-35.48 16.8,-4.6 26.7,-21.84 22.1,-38.64 -3.8,-14.03 -16.5,-23.21 -30.3,-23.21"
         style="fill:#594a42;fill-opacity:1;fill-rule:nonzero;stroke:none"
         id="path1680"
         inkscape:connector-curvature="0" />
    </g>
    <g
       id="g1682"
       transform="matrix(0.01745345,0,0,-0.01745351,-232.10434,389.64996)">
      <path
         d="m 14814.4,5338.92 c -396.8,0 -769.8,154.55 -1050.4,435.15 -280.6,280.59 -435.2,653.66 -435.2,1050.47 0,396.82 154.6,769.89 435.2,1050.48 280.6,280.54 653.6,435.09 1050.4,435.09 16.3,0 29.4,-13.17 29.4,-29.39 0,-16.23 -13.1,-29.4 -29.4,-29.4 -381.1,0 -739.4,-148.44 -1008.9,-417.92 -269.5,-269.48 -417.9,-627.73 -417.9,-1008.86 0,-381.12 148.4,-739.43 417.9,-1008.91 269.5,-269.48 627.8,-417.92 1008.9,-417.92 381.2,0 739.4,148.44 1008.9,417.92 269.5,269.48 417.9,627.79 417.9,1008.91 0,267.31 -74.4,527.98 -215.1,753.66 -136.8,219.63 -330.7,398.11 -560.5,516.22 -14.5,7.4 -20.1,25.16 -12.7,39.56 7.4,14.46 25.1,20.17 39.5,12.76 239.3,-122.99 441.1,-308.81 583.6,-537.44 146.6,-235.03 224,-506.4 224,-784.76 0,-396.81 -154.5,-769.88 -435.1,-1050.47 -280.6,-280.6 -653.6,-435.15 -1050.5,-435.15"
         style="fill:#594a42;fill-opacity:1;fill-rule:nonzero;stroke:none"
         id="path1684"
         inkscape:connector-curvature="0" />
    </g>
    <g
       id="g1686"
       transform="matrix(0.01646567,0,0,-0.01646573,-232.10434,389.64996)">
      <path
         d="m 16300,8675.18 c 0,-21.87 -17.8,-39.63 -39.6,-39.63 -22,0 -39.7,17.76 -39.7,39.63 0,21.94 17.7,39.7 39.7,39.7 21.8,0 39.6,-17.76 39.6,-39.7"
         style="fill:#594a42;fill-opacity:1;fill-rule:nonzero;stroke:none"
         id="path1688"
         inkscape:connector-curvature="0" />
    </g>
  </g>
</svg>
