<?xml version="1.0" encoding="UTF-8" standalone="no"?>
<!-- Created with Inkscape (http://www.inkscape.org/) -->

<svg
   xmlns:dc="http://purl.org/dc/elements/1.1/"
   xmlns:cc="http://creativecommons.org/ns#"
   xmlns:rdf="http://www.w3.org/1999/02/22-rdf-syntax-ns#"
   xmlns:svg="http://www.w3.org/2000/svg"
   xmlns="http://www.w3.org/2000/svg"
   xmlns:sodipodi="http://sodipodi.sourceforge.net/DTD/sodipodi-0.dtd"
   xmlns:inkscape="http://www.inkscape.org/namespaces/inkscape"
   width="200"
   height="200"
   viewBox="0 0 52.916665 52.916668"
   version="1.1"
   id="svg5091"
   inkscape:version="0.92.4 (5da689c313, 2019-01-14)"
   sodipodi:docname="icon_design.svg">
  <defs
     id="defs5085" />
  <sodipodi:namedview
     id="base"
     pagecolor="#ffffff"
     bordercolor="#666666"
     borderopacity="1.0"
     inkscape:pageopacity="0.0"
     inkscape:pageshadow="2"
     inkscape:zoom="0.35"
     inkscape:cx="-185.71429"
     inkscape:cy="560"
     inkscape:document-units="px"
     inkscape:current-layer="layer1"
     showgrid="false"
     units="px"
     inkscape:pagecheckerboard="true"
     inkscape:window-width="1920"
     inkscape:window-height="1016"
     inkscape:window-x="0"
     inkscape:window-y="27"
     inkscape:window-maximized="1" />
  <metadata
     id="metadata5088">
    <rdf:RDF>
      <cc:Work
         rdf:about="">
        <dc:format>image/svg+xml</dc:format>
        <dc:type
           rdf:resource="http://purl.org/dc/dcmitype/StillImage" />
        <dc:title></dc:title>
      </cc:Work>
    </rdf:RDF>
  </metadata>
  <g
     inkscape:label="Layer 1"
     inkscape:groupmode="layer"
     id="layer1"
     transform="translate(0,-244.08332)">
    <g
       id="g1316"
       transform="matrix(0.01715334,0,0,-0.01715328,-232.10726,459.24648)">
      <path
         d="m 15805,10306.5 c 5.8,5.8 15.3,5.8 21.1,0 5.9,-5.8 5.9,-15.3 0,-21.1 l -123.2,-123.3 123.2,-123.2 c 5.9,-5.8 5.9,-15.4 0,-21.2 -2.9,-2.9 -6.7,-4.3 -10.6,-4.3 -3.7,0 -7.6,1.4 -10.5,4.3 l -123.3,123.3 -123.5,-123.6 c -2.9,-2.8 -6.7,-4.3 -10.5,-4.3 -3.8,0 -7.7,1.5 -10.6,4.3 -5.9,5.9 -5.9,15.4 0,21.2 l 123.5,123.5 -123.3,123.3 c -5.8,5.8 -5.8,15.3 0,21.1 5.9,5.8 15.3,5.8 21.2,0 l 123.2,-123.2 z m -431.1,-333.44 c 0,-8.25 -6.7,-14.95 -14.9,-14.95 h -253.2 c -8.3,0 -15,6.7 -15,14.95 0,8.26 6.7,14.96 15,14.96 h 238.2 v 466.58 h -614.1 v -250.2 l 203.8,-326.68 h -425.6 l 191.9,321.68 v 270.1 c 0,8.3 6.7,15 14.9,15 h 644.1 c 8.2,0 14.9,-6.7 14.9,-15 z m 68.4,847.34 c -0.3,-0.2 -0.4,-0.3 -0.7,-0.5 -0.4,-0.5 -0.9,-0.8 -1.5,-1.3 -0.9,-0.7 -1.8,-1.3 -2.8,-1.9 -0.2,-0.2 -0.5,-0.4 -0.7,-0.5 l -233.6,-124.6 -233.7,-124.6 c -3.6,-1.9 -7.5,-2.8 -11.3,-2.8 -6.2,0 -12.3,2.4 -16.9,7 -7.4,7.4 -9.1,18.6 -4.3,27.9 -5.9,189 -161.3,340.9 -351.6,340.9 -194,0 -351.9,-157.9 -351.9,-351.9 0,-194 157.9,-351.8 351.9,-351.8 8.3,0 15,-6.7 15,-15 0,-8.3 -6.7,-15 -15,-15 -210.5,0 -381.8,171.3 -381.8,381.8 0,210.5 171.3,381.8 381.8,381.8 190.4,0 348.7,-140.1 377.2,-322.7 l 99.1,185.8 v 0 l 124.6,233.7 c 0.1,0.3 0.4,0.5 0.5,0.8 0.6,1 1.2,1.9 1.9,2.8 0.5,0.5 0.8,1 1.2,1.4 0.2,0.3 0.4,0.5 0.6,0.7 l 103.2,103.2 -475.3,475.4 -1142.3,-1142.3 c 203,-576.25 752.1,-989.35 1397.9,-989.35 509.9,0 959.6,257.64 1226.2,649.75 l -754.5,754.5 -103.2,-103.2"
         style="fill:#ffffff;fill-opacity:1;fill-rule:nonzero;stroke:none"
         id="path1318"
         inkscape:connector-curvature="0" />
    </g>
    <g
       id="g1320"
       transform="matrix(0.01574569,0,0,-0.01574564,-232.10726,459.24648)">
      <path
         d="m 16300,11599 c -31,198.9 -203.4,351.6 -410.9,351.6 -229.3,0 -415.9,-186.6 -415.9,-415.9 0,-229.3 186.6,-415.9 415.9,-415.9 9,0 16.3,7.3 16.3,16.3 0,9 -7.3,16.3 -16.3,16.3 -211.4,0 -383.3,171.9 -383.3,383.3 0,211.4 171.9,383.3 383.3,383.3 207.3,0 376.6,-165.5 383,-371.3 0.1,0 0.1,0.2 0.1,0.2 l 27.8,52.1"
         style="fill:#81c9c0;fill-opacity:1;fill-rule:nonzero;stroke:none"
         id="path1322"
         inkscape:connector-curvature="0" />
    </g>
    <g
       id="g1324"
       transform="matrix(0.01617879,0,0,-0.01617874,-232.10726,459.24648)">
      <path
         d="m 16284.1,11116.1 h -682.8 c -8.7,0 -15.9,-7.1 -15.9,-15.9 v -286.5 l 17.2,28.8 14.6,-23.4 v 265.2 h 651.1 v -494.6 h -252.6 c -8.8,0 -15.9,-7.1 -15.9,-15.9 0,-8.7 7.1,-15.8 15.9,-15.8 h 268.4 c 8.8,0 15.9,7.1 15.9,15.8 v 526.4 c 0,8.8 -7.1,15.9 -15.9,15.9"
         style="fill:#81c9c0;fill-opacity:1;fill-rule:nonzero;stroke:none"
         id="path1326"
         inkscape:connector-curvature="0" />
    </g>
    <g
       id="g1328"
       transform="matrix(0.01718935,0,0,-0.01718929,-232.10726,459.24648)">
      <path
         d="m 15209.1,11032.3 183.9,-183.9 907,906.9 c -46.3,74.8 -99.1,145.2 -157.6,210.3 l -933.3,-933.3"
         style="fill:#81c9c0;fill-opacity:1;fill-rule:nonzero;stroke:none"
         id="path1330"
         inkscape:connector-curvature="0" />
    </g>
    <g
       id="g1332"
       transform="matrix(0.0161911,0,0,-0.01619105,-232.10726,459.24648)">
      <path
         d="m 16300,11487.7 -182.7,182.7 -107.1,-200.8 89,-89 200.8,107.1"
         style="fill:#ffffff;fill-opacity:1;fill-rule:nonzero;stroke:none"
         id="path1334"
         inkscape:connector-curvature="0" />
    </g>
    <g
       id="g1336"
       transform="matrix(0.01594515,0,0,-0.0159451,-232.10726,459.24648)">
      <path
         d="m 16231.8,11599 -77.9,-146.2 146.1,78 -68.2,68.2"
         style="fill:#81c9c0;fill-opacity:1;fill-rule:nonzero;stroke:none"
         id="path1338"
         inkscape:connector-curvature="0" />
    </g>
    <g
       id="g1340"
       transform="matrix(0.01571552,0,0,-0.01571547,-232.10726,459.24648)">
      <path
         d="m 16044.9,11132.5 -209.4,-351 h 464.5 l -222.4,356.6 -15,24 -17.7,-29.6"
         style="fill:#81c9c0;fill-opacity:1;fill-rule:nonzero;stroke:none"
         id="path1342"
         inkscape:connector-curvature="0" />
    </g>
    <g
       id="g1344"
       transform="matrix(0.01666083,0,0,-0.01666078,-232.10726,459.24648)">
      <path
         d="m 16294,10589.4 c 6,6 6,15.8 0,21.8 -6.1,6 -15.8,6 -21.8,0 l -126.9,-126.9 21.8,-21.8 126.9,126.9"
         style="fill:#81c9c0;fill-opacity:1;fill-rule:nonzero;stroke:none"
         id="path1346"
         inkscape:connector-curvature="0" />
    </g>
    <g
       id="g1348"
       transform="matrix(0.01650271,0,0,-0.01650266,-232.10726,459.24648)">
      <path
         d="m 16149.7,10434.4 c -6.1,-6.1 -6.1,-15.9 0,-22 3,-3 7,-4.5 11,-4.5 3.9,0 7.9,1.5 10.9,4.5 l 128.4,128.4 -21.9,22 -128.4,-128.4"
         style="fill:#81c9c0;fill-opacity:1;fill-rule:nonzero;stroke:none"
         id="path1350"
         inkscape:connector-curvature="0" />
    </g>
    <g
       id="g1352"
       transform="matrix(0.01666083,0,0,-0.01666078,-232.10726,459.24648)">
      <path
         d="m 15996.6,10611.2 c -5.9,-6 -5.9,-15.8 0,-21.8 l 127,-126.9 21.7,-21.8 126.9,-126.8 c 3,-3 7,-4.5 10.9,-4.5 3.9,0 7.8,1.5 10.9,4.5 6,6 6,15.7 0,21.7 l -126.9,126.9 -21.8,21.8 -126.9,126.9 c -6,6 -15.7,6 -21.8,0"
         style="fill:#81c9c0;fill-opacity:1;fill-rule:nonzero;stroke:none"
         id="path1354"
         inkscape:connector-curvature="0" />
    </g>
    <g
       id="g2056"
       transform="matrix(0.01718155,0,0,-0.0171815,-232.10726,459.24648)">
      <path
         d="m 15520.1,10905.7 753.2,-753.2 c 9.1,13.5 18,27.1 26.7,40.8 l -746.1,746.2 -33.8,-33.8"
         style="fill:#594a42;fill-opacity:1;fill-rule:nonzero;stroke:none"
         id="path2058"
         inkscape:connector-curvature="0" />
    </g>
    <g
       id="g2060"
       transform="matrix(0.01612985,0,0,-0.01612979,-232.10726,459.24648)">
      <path
         d="m 16264,11884.8 36,36 -523.5,523.5 c -4.8,4.8 -11.3,7.5 -18,7.5 -6.8,0 -13.3,-2.7 -18,-7.5 l -1214.8,-1214.8 c 5.7,-18.1 11.7,-36.1 18,-53.9 l 1214.8,1214.7 505.5,-505.5"
         style="fill:#594a42;fill-opacity:1;fill-rule:nonzero;stroke:none"
         id="path2062"
         inkscape:connector-curvature="0" />
    </g>
    <g
       id="g2064"
       transform="matrix(0.01624846,0,0,-0.0162484,-232.10726,459.24648)">
      <path
         d="m 16300,11421.1 c -0.9,-0.7 -1.9,-1.4 -3,-2 1.1,0.6 2.1,1.3 3,2"
         style="fill:#594a42;fill-opacity:1;fill-rule:nonzero;stroke:none"
         id="path2066"
         inkscape:connector-curvature="0" />
    </g>
    <g
       id="g2068"
       transform="matrix(0.01598373,0,0,-0.01598368,-232.10726,459.24648)">
      <path
         d="m 16297.9,11877.4 c 0.7,1 1.4,2 2.1,3 -0.8,-1 -1.4,-2 -2.1,-3"
         style="fill:#594a42;fill-opacity:1;fill-rule:nonzero;stroke:none"
         id="path2070"
         inkscape:connector-curvature="0" />
    </g>
    <g
       id="g2072"
       transform="matrix(0.01721603,0,0,-0.01721597,-232.10726,459.24648)">
      <path
         d="m 15237.8,11134.9 -102.8,-102.8 c -0.2,-0.2 -0.4,-0.5 -0.6,-0.7 3.7,3.9 8.5,6.6 13.9,7.4 7.5,1.1 15,-1.4 20.3,-6.7 l 217.5,-217.4 c 5.3,-5.4 7.8,-12.9 6.6,-20.4 -0.7,-5.3 -3.4,-10.2 -7.3,-13.8 0.2,0.2 0.4,0.3 0.7,0.5 l 102.8,102.8 33.8,33.8 777.3,777.4 c -8.2,14.2 -16.6,28.2 -25.3,42.1 l -905.5,-905.5 -183.7,183.6 931.9,931.9 c -10.6,11.8 -21.4,23.5 -32.4,35 l -813.4,-813.4 -33.8,-33.8"
         style="fill:#594a42;fill-opacity:1;fill-rule:nonzero;stroke:none"
         id="path2074"
         inkscape:connector-curvature="0" />
    </g>
    <g
       id="g2076"
       transform="matrix(0.01625903,0,0,-0.01625897,-232.10726,459.24648)">
      <path
         d="m 16024,11679.2 c -0.7,-0.9 -1.4,-1.9 -2,-2.9 -0.2,-0.3 -0.4,-0.5 -0.6,-0.9 L 15890,11429 c 3.8,7 10.7,11.8 18.5,13 7.9,1.2 15.9,-1.4 21.6,-7.1 l 13.2,-13.2 106.7,199.9 181.9,-181.9 -199.9,-106.7 13.2,-13.2 c 5.7,-5.6 8.3,-13.7 7.1,-21.5 -1.2,-7.9 -6.1,-14.8 -13.1,-18.6 l 246.5,131.5 c 0.3,0.1 0.5,0.3 0.8,0.5 1.1,0.6 2,1.3 3,2 0.5,0.5 1,0.9 1.5,1.4 4.1,3.8 7,8.9 7.8,14.6 1.2,7.9 -1.5,15.9 -7.1,21.6 l -230.2,230.1 c -5.6,5.7 -13.6,8.4 -21.5,7.2 -5.7,-0.9 -10.9,-3.7 -14.7,-7.9 -0.4,-0.4 -0.8,-1 -1.3,-1.5"
         style="fill:#594a42;fill-opacity:1;fill-rule:nonzero;stroke:none"
         id="path2078"
         inkscape:connector-curvature="0" />
    </g>
    <g
       id="g2080"
       transform="matrix(0.01601308,0,0,-0.01601303,-232.10726,459.24648)">
      <path
         d="m 16085.3,11404.3 77.6,145.5 68,-67.9 z m 213.5,67.4 c 1.2,8 -1.5,16.2 -7.3,22 l -13.4,13.3 -90,90.1 -13.4,13.4 c -5.7,5.7 -13.9,8.4 -21.9,7.2 -8,-1.2 -15,-6.1 -18.8,-13.3 v 0 l -106.2,-199 -27.3,-51.3 c -0.1,-0.1 -0.1,-0.2 -0.1,-0.3 -5.1,-9.9 -3.3,-21.9 4.6,-29.9 4.9,-4.9 11.5,-7.5 18.1,-7.5 4.1,0 8.3,1 12.1,3 l 250.3,133.5 c 7.1,3.8 12.1,10.8 13.3,18.8"
         style="fill:#594a42;fill-opacity:1;fill-rule:nonzero;stroke:none"
         id="path2082"
         inkscape:connector-curvature="0" />
    </g>
    <g
       id="g2084"
       transform="matrix(0.01630776,0,0,-0.01630771,-232.10726,459.24648)">
      <path
         d="m 16265.1,13044.1 c -2.7,0 -5.5,0.3 -8.3,1.1 -51.8,14.1 -105.1,25.5 -158.3,34.1 -17.1,2.7 -28.8,18.8 -26.1,36 2.8,17.1 19,28.8 36.1,26.1 55.3,-8.9 110.8,-20.8 164.8,-35.5 16.8,-4.5 26.7,-21.8 22.1,-38.6 -3.8,-14 -16.5,-23.2 -30.3,-23.2"
         style="fill:#594a42;fill-opacity:1;fill-rule:nonzero;stroke:none"
         id="path2086"
         inkscape:connector-curvature="0" />
    </g>
    <g
       id="g2088"
       transform="matrix(0.01745367,0,0,-0.01745361,-232.10726,459.24648)">
      <path
         d="m 14814.4,9326.19 c -396.8,0 -769.8,154.56 -1050.4,435.09 -280.6,280.62 -435.2,653.62 -435.2,1050.52 0,396.8 154.6,769.8 435.2,1050.5 280.6,280.5 653.6,435.1 1050.4,435.1 16.3,0 29.4,-13.2 29.4,-29.4 0,-16.3 -13.1,-29.4 -29.4,-29.4 -381.1,0 -739.4,-148.4 -1008.9,-417.9 -269.5,-269.5 -417.9,-627.8 -417.9,-1008.9 0,-381.1 148.4,-739.4 417.9,-1008.89 269.5,-269.55 627.8,-417.93 1008.9,-417.93 381.2,0 739.4,148.38 1008.9,417.93 269.5,269.49 417.9,627.79 417.9,1008.89 0,267.3 -74.4,528 -215.1,753.7 -136.8,219.6 -330.7,398.1 -560.5,516.2 -14.5,7.4 -20.1,25.1 -12.7,39.6 7.4,14.4 25.1,20.1 39.5,12.7 239.3,-123 441.1,-308.8 583.6,-537.4 146.6,-235.1 224,-506.5 224,-784.8 0,-396.9 -154.5,-769.9 -435.1,-1050.52 -280.6,-280.53 -653.6,-435.09 -1050.5,-435.09"
         style="fill:#594a42;fill-opacity:1;fill-rule:nonzero;stroke:none"
         id="path2090"
         inkscape:connector-curvature="0" />
    </g>
    <g
       id="g2092"
       transform="matrix(0.01646588,0,0,-0.01646582,-232.10726,459.24648)">
      <path
         d="m 16300,12901.6 c 0,-21.9 -17.8,-39.6 -39.6,-39.6 -22,0 -39.7,17.7 -39.7,39.6 0,21.9 17.7,39.7 39.7,39.7 21.8,0 39.6,-17.8 39.6,-39.7"
         style="fill:#594a42;fill-opacity:1;fill-rule:nonzero;stroke:none"
         id="path2094"
         inkscape:connector-curvature="0" />
    </g>
  </g>
</svg>
