<?xml version="1.0" encoding="UTF-8" standalone="no"?>
<!-- Created with Inkscape (http://www.inkscape.org/) -->

<svg
   xmlns:dc="http://purl.org/dc/elements/1.1/"
   xmlns:cc="http://creativecommons.org/ns#"
   xmlns:rdf="http://www.w3.org/1999/02/22-rdf-syntax-ns#"
   xmlns:svg="http://www.w3.org/2000/svg"
   xmlns="http://www.w3.org/2000/svg"
   xmlns:sodipodi="http://sodipodi.sourceforge.net/DTD/sodipodi-0.dtd"
   xmlns:inkscape="http://www.inkscape.org/namespaces/inkscape"
   version="1.1"
   id="svg95352"
   xml:space="preserve"
   width="666.66669"
   height="400"
   viewBox="0 0 666.66669 400"
   sodipodi:docname="laptop_model1.svg"
   inkscape:version="0.92.4 (5da689c313, 2019-01-14)"><metadata
     id="metadata95358"><rdf:RDF><cc:Work
         rdf:about=""><dc:format>image/svg+xml</dc:format><dc:type
           rdf:resource="http://purl.org/dc/dcmitype/StillImage" /><dc:title></dc:title></cc:Work></rdf:RDF></metadata><defs
     id="defs95356" /><sodipodi:namedview
     pagecolor="#ffffff"
     bordercolor="#666666"
     borderopacity="1"
     objecttolerance="10"
     gridtolerance="10"
     guidetolerance="10"
     inkscape:pageopacity="0"
     inkscape:pageshadow="2"
     inkscape:window-width="1920"
     inkscape:window-height="1016"
     id="namedview95354"
     showgrid="false"
     inkscape:zoom="0.87504462"
     inkscape:cx="236.36364"
     inkscape:cy="430.30304"
     inkscape:window-x="0"
     inkscape:window-y="27"
     inkscape:window-maximized="1"
     inkscape:current-layer="g95362" /><g
     id="g95360"
     inkscape:groupmode="layer"
     inkscape:label="ink_ext_XXXXXX"
     transform="matrix(1.3333333,0,0,-1.3333333,0,399.99998)"><g
       id="g95362"
       transform="scale(0.1)"><g
         id="g96016"
         transform="translate(-42.854959,-1037.09)"><path
           inkscape:connector-curvature="0"
           id="path95366"
           style="fill:#111110;fill-opacity:1;fill-rule:evenodd;stroke:none"
           d="m 3874.09,1286.09 c 0,-79 -64.03,-143.03 -143.04,-143.03 H 1327.88 c -79.01,0 -143.05,64.03 -143.05,143.03 v 1593.68 c 0,79 64.04,143.03 143.05,143.03 h 2403.17 c 79.01,0 143.04,-64.03 143.04,-143.03 V 1286.09" /><path
           inkscape:connector-curvature="0"
           id="path95368"
           style="fill:#d5cae9;fill-opacity:1;fill-rule:evenodd;stroke:none"
           d="m 856.973,1297.25 v -34.86 c 0,-75.84 79.66,-137.31 177.917,-137.31 h 2989.15 c 98.26,0 177.93,61.47 177.93,137.31 v 34.86 H 856.973" /><path
           inkscape:connector-curvature="0"
           id="path95370"
           style="fill:#e5e6ea;fill-opacity:1;fill-rule:evenodd;stroke:none"
           d="M 1289.83,2903.01 V 1443.94 H 3756.24 V 2781.41 H 1289.83 v 121.6" /><path
           inkscape:connector-curvature="0"
           id="path95372"
           style="fill:#d5d6d9;fill-opacity:1;fill-rule:nonzero;stroke:none"
           d="m 3035.17,1758.49 h 666.898 v 889.973 H 3035.17 Z" /><path
           inkscape:connector-curvature="0"
           id="path95374"
           style="fill:#37a594;fill-opacity:1;fill-rule:evenodd;stroke:none"
           d="m 1289.83,2781.41 h 2466.41 v 121.602 H 1289.83 Z" /><path
           inkscape:connector-curvature="0"
           id="path95376"
           style="fill:#d5d6d9;fill-opacity:1;fill-rule:nonzero;stroke:none"
           d="M 1439.27,1519.8 H 2955.31 V 2781.41 H 1439.27 Z" /><path
           inkscape:connector-curvature="0"
           id="path95378"
           style="fill:#34998c;fill-opacity:1;fill-rule:nonzero;stroke:none"
           d="m 1439.27,2781.41 h 1516.04 v 121.602 H 1439.27 Z" /><path
           inkscape:connector-curvature="0"
           id="path95380"
           style="fill:#4c4e70;fill-opacity:1;fill-rule:evenodd;stroke:none"
           d="m 4112.49,1097.67 v 0 l -0.05,-0.04 z m -0.58,-0.35 v 0 l -0.16,-0.08 z m -0.71,-0.4 v 0 l -0.26,-0.14 z m -0.57,-0.32 v 0 l -0.32,-0.17 z m -0.51,-0.27 v 0 l -0.76,-0.42 z m -0.81,-0.46 v 0 l -0.44,-0.23 z m -0.51,-0.27 v 0 c -24.39,-13.24 -52.21,-20.94 -81.8,-21.42 29.59,0.48 57.41,8.18 81.8,21.42 z m -81.96,-21.43 v 0 h -0.46 z m -0.77,0 v 0 l -0.6,-0.01 z m -1.03,-0.02 v 0 h -0.27 z m -2990.99,0 v 0 h 0.07 -0.04 z m 2990.06,0 h -0.07 0.07" /><path
           inkscape:connector-curvature="0"
           id="path95382"
           style="fill:#5e5d6a;fill-opacity:1;fill-rule:evenodd;stroke:none"
           d="M 4184.92,1203.68 H 874.059 c 28.402,-46.27 89.32,-78.34 159.991,-78.6 h 0.07 0.79 2989.15 0.05 0.66 0.27 l 0.43,0.01 h 0.6 0.31 l 0.46,0.01 h 0.16 c 29.59,0.37 57.41,6.32 81.8,16.53 l 0.07,0.03 0.44,0.18 0.05,0.03 0.76,0.32 0.19,0.08 0.32,0.13 0.31,0.14 0.26,0.12 0.55,0.23 0.16,0.08 0.53,0.22 0.05,0.03 c 31.45,13.94 56.84,35.06 72.43,60.46" /><path
           inkscape:connector-curvature="0"
           id="path95384"
           style="fill:#383433;fill-opacity:1;fill-rule:evenodd;stroke:none"
           d="m 2997.26,1794.49 h 670.34 v 879.57 h -670.34 v -879.57" /><path
           inkscape:connector-curvature="0"
           id="path95386"
           style="fill:#ffffff;fill-opacity:1;fill-rule:evenodd;stroke:none"
           d="m 3063.74,2571.93 h 167.94 v 10.52 h -167.94 v -10.52" /><path
           inkscape:connector-curvature="0"
           id="path95388"
           style="fill:#ffffff;fill-opacity:1;fill-rule:evenodd;stroke:none"
           d="m 3063.74,2545.94 h 88.69 v 10.52 h -88.69 v -10.52" /><path
           inkscape:connector-curvature="0"
           id="path95390"
           style="fill:#ffffff;fill-opacity:1;fill-rule:evenodd;stroke:none"
           d="m 3063.74,2520 h 143.05 v 10.51 H 3063.74 V 2520" /><path
           inkscape:connector-curvature="0"
           id="path95392"
           style="fill:#ffffff;fill-opacity:1;fill-rule:evenodd;stroke:none"
           d="m 3130.3,2468.07 h 83.47 v 10.51 h -83.47 v -10.51" /><path
           inkscape:connector-curvature="0"
           id="path95394"
           style="fill:#ffffff;fill-opacity:1;fill-rule:evenodd;stroke:none"
           d="m 3188.23,2442.07 h 81.19 v 10.52 h -81.19 v -10.52" /><path
           inkscape:connector-curvature="0"
           id="path95396"
           style="fill:#ffffff;fill-opacity:1;fill-rule:evenodd;stroke:none"
           d="m 3182.29,2545.94 h 151.28 v 10.52 h -151.28 v -10.52" /><path
           inkscape:connector-curvature="0"
           id="path95398"
           style="fill:#ffffff;fill-opacity:1;fill-rule:evenodd;stroke:none"
           d="m 3355.12,2545.94 h 72.26 v 10.52 h -72.26 v -10.52" /><path
           inkscape:connector-curvature="0"
           id="path95400"
           style="fill:#ffffff;fill-opacity:1;fill-rule:evenodd;stroke:none"
           d="m 3454.82,2545.94 h 97.52 v 10.52 h -97.52 v -10.52" /><path
           inkscape:connector-curvature="0"
           id="path95402"
           style="fill:#ffffff;fill-opacity:1;fill-rule:evenodd;stroke:none"
           d="m 3230.69,2520 h 85.12 v 10.51 h -85.12 V 2520" /><path
           inkscape:connector-curvature="0"
           id="path95404"
           style="fill:#ffffff;fill-opacity:1;fill-rule:evenodd;stroke:none"
           d="M 3213.77,2504.52 H 3130.3 V 2494 h 157.68 v 10.52 h -74.21" /><path
           inkscape:connector-curvature="0"
           id="path95406"
           style="fill:#ffffff;fill-opacity:1;fill-rule:evenodd;stroke:none"
           d="m 3239.26,2468.07 h 83.48 v 10.51 h -83.48 v -10.51" /><path
           inkscape:connector-curvature="0"
           id="path95408"
           style="fill:#ffffff;fill-opacity:1;fill-rule:evenodd;stroke:none"
           d="m 3311.16,2494 h 92.78 v 10.52 h -92.78 V 2494" /><path
           inkscape:connector-curvature="0"
           id="path95410"
           style="fill:#ffffff;fill-opacity:1;fill-rule:evenodd;stroke:none"
           d="m 3422.47,2494 h 48.67 v 10.52 h -48.67 V 2494" /><path
           inkscape:connector-curvature="0"
           id="path95412"
           style="fill:#ffffff;fill-opacity:1;fill-rule:evenodd;stroke:none"
           d="m 3492.04,2494 h 60.3 v 10.52 h -60.3 V 2494" /><path
           inkscape:connector-curvature="0"
           id="path95414"
           style="fill:#ffffff;fill-opacity:1;fill-rule:evenodd;stroke:none"
           d="m 3341.28,2468.07 h 105.44 v 10.51 h -105.44 v -10.51" /><path
           inkscape:connector-curvature="0"
           id="path95416"
           style="fill:#ffffff;fill-opacity:1;fill-rule:evenodd;stroke:none"
           d="m 3462.45,2468.07 h 31.51 v 10.51 h -31.51 v -10.51" /><path
           inkscape:connector-curvature="0"
           id="path95418"
           style="fill:#ffffff;fill-opacity:1;fill-rule:evenodd;stroke:none"
           d="m 3292.61,2442.07 h 60.36 v 10.52 h -60.36 v -10.52" /><path
           inkscape:connector-curvature="0"
           id="path95420"
           style="fill:#ffffff;fill-opacity:1;fill-rule:evenodd;stroke:none"
           d="m 3130.3,2390.14 h 83.47 v 10.51 h -83.47 v -10.51" /><path
           inkscape:connector-curvature="0"
           id="path95422"
           style="fill:#ffffff;fill-opacity:1;fill-rule:evenodd;stroke:none"
           d="m 3130.3,2364.14 h 83.47 v 10.53 h -83.47 v -10.53" /><path
           inkscape:connector-curvature="0"
           id="path95424"
           style="fill:#ffffff;fill-opacity:1;fill-rule:evenodd;stroke:none"
           d="m 3239.26,2364.14 h 75.18 v 10.53 h -75.18 v -10.53" /><path
           inkscape:connector-curvature="0"
           id="path95426"
           style="fill:#ffffff;fill-opacity:1;fill-rule:evenodd;stroke:none"
           d="m 3322.87,2400.65 h -83.61 v -10.51 h 143.24 v 10.51 h -59.63" /><path
           inkscape:connector-curvature="0"
           id="path95428"
           style="fill:#ffffff;fill-opacity:1;fill-rule:evenodd;stroke:none"
           d="m 3396.76,2390.14 h 37.48 v 10.51 h -37.48 v -10.51" /><path
           inkscape:connector-curvature="0"
           id="path95430"
           style="fill:#ffffff;fill-opacity:1;fill-rule:evenodd;stroke:none"
           d="m 3450.31,2390.14 h 46.38 v 10.51 h -46.38 v -10.51" /><path
           inkscape:connector-curvature="0"
           id="path95432"
           style="fill:#ffffff;fill-opacity:1;fill-rule:evenodd;stroke:none"
           d="m 3387.61,2364.14 h 83.53 v 10.53 h -83.53 v -10.53" /><path
           inkscape:connector-curvature="0"
           id="path95434"
           style="fill:#ffffff;fill-opacity:1;fill-rule:evenodd;stroke:none"
           d="m 3130.3,2338.2 h 83.47 v 10.53 h -83.47 v -10.53" /><path
           inkscape:connector-curvature="0"
           id="path95436"
           style="fill:#ffffff;fill-opacity:1;fill-rule:evenodd;stroke:none"
           d="m 3130.3,2312.22 h 83.47 v 10.5 h -83.47 v -10.5" /><path
           inkscape:connector-curvature="0"
           id="path95438"
           style="fill:#ffffff;fill-opacity:1;fill-rule:evenodd;stroke:none"
           d="m 3239.26,2338.2 h 48.72 v 10.53 h -48.72 v -10.53" /><path
           inkscape:connector-curvature="0"
           id="path95440"
           style="fill:#ffffff;fill-opacity:1;fill-rule:evenodd;stroke:none"
           d="m 3239.26,2312.22 h 153.05 v 10.5 h -153.05 v -10.5" /><path
           inkscape:connector-curvature="0"
           id="path95442"
           style="fill:#ffffff;fill-opacity:1;fill-rule:evenodd;stroke:none"
           d="m 3403.94,2348.73 h -92.78 v -10.53 h 159.98 v 10.53 h -67.2" /><path
           inkscape:connector-curvature="0"
           id="path95444"
           style="fill:#ffffff;fill-opacity:1;fill-rule:evenodd;stroke:none"
           d="m 3492.04,2338.2 h 60.3 v 10.53 h -60.3 v -10.53" /><path
           inkscape:connector-curvature="0"
           id="path95446"
           style="fill:#ffffff;fill-opacity:1;fill-rule:evenodd;stroke:none"
           d="m 3410.85,2312.22 h 85.84 v 10.5 h -85.84 v -10.5" /><path
           inkscape:connector-curvature="0"
           id="path95448"
           style="fill:#ffffff;fill-opacity:1;fill-rule:evenodd;stroke:none"
           d="m 3331.16,2364.14 h 35.54 v 10.53 h -35.54 v -10.53" /><path
           inkscape:connector-curvature="0"
           id="path95450"
           style="fill:#ffffff;fill-opacity:1;fill-rule:evenodd;stroke:none"
           d="m 3063.74,2270.79 h 88.69 v -10.51 h -88.69 v 10.51" /><path
           inkscape:connector-curvature="0"
           id="path95452"
           style="fill:#ffffff;fill-opacity:1;fill-rule:evenodd;stroke:none"
           d="m 3063.74,2244.86 h 143.05 v -10.51 h -143.05 v 10.51" /><path
           inkscape:connector-curvature="0"
           id="path95454"
           style="fill:#ffffff;fill-opacity:1;fill-rule:evenodd;stroke:none"
           d="m 3130.3,2218.87 h 83.47 v -10.53 h -83.47 v 10.53" /><path
           inkscape:connector-curvature="0"
           id="path95456"
           style="fill:#ffffff;fill-opacity:1;fill-rule:evenodd;stroke:none"
           d="m 3130.3,2192.93 h 83.47 v -10.59 h -83.47 v 10.59" /><path
           inkscape:connector-curvature="0"
           id="path95458"
           style="fill:#ffffff;fill-opacity:1;fill-rule:evenodd;stroke:none"
           d="m 3303.68,2270.79 h -121.39 v -10.51 h 147.83 v 10.51 h -26.44" /><path
           inkscape:connector-curvature="0"
           id="path95460"
           style="fill:#ffffff;fill-opacity:1;fill-rule:evenodd;stroke:none"
           d="m 3357.56,2270.79 h 134.8 v -10.51 h -134.8 v 10.51" /><path
           inkscape:connector-curvature="0"
           id="path95462"
           style="fill:#ffffff;fill-opacity:1;fill-rule:evenodd;stroke:none"
           d="m 3230.69,2244.86 h 85.12 v -10.51 h -85.12 v 10.51" /><path
           inkscape:connector-curvature="0"
           id="path95464"
           style="fill:#ffffff;fill-opacity:1;fill-rule:evenodd;stroke:none"
           d="m 3239.26,2192.93 h 64.92 v -10.59 h -64.92 v 10.59" /><path
           inkscape:connector-curvature="0"
           id="path95466"
           style="fill:#ffffff;fill-opacity:1;fill-rule:evenodd;stroke:none"
           d="m 3367.97,2218.87 h -128.71 v -10.53 h 188.96 v 10.53 h -60.25" /><path
           inkscape:connector-curvature="0"
           id="path95468"
           style="fill:#ffffff;fill-opacity:1;fill-rule:evenodd;stroke:none"
           d="m 3322.74,2192.93 h 123.98 v -10.59 h -123.98 v 10.59" /><path
           inkscape:connector-curvature="0"
           id="path95470"
           style="fill:#ffffff;fill-opacity:1;fill-rule:evenodd;stroke:none"
           d="m 3462.45,2192.93 h 31.51 v -10.59 h -31.51 v 10.59" /><path
           inkscape:connector-curvature="0"
           id="path95472"
           style="fill:#ffffff;fill-opacity:1;fill-rule:evenodd;stroke:none"
           d="m 3292.61,2166.93 h 60.36 v -10.51 h -60.36 v 10.51" /><path
           inkscape:connector-curvature="0"
           id="path95474"
           style="fill:#ffffff;fill-opacity:1;fill-rule:evenodd;stroke:none"
           d="m 3269.42,2166.93 h -81.19 v -10.51 h 290.49 v 10.51 h -209.3" /><path
           inkscape:connector-curvature="0"
           id="path95476"
           style="fill:#ffffff;fill-opacity:1;fill-rule:evenodd;stroke:none"
           d="m 3495.45,2166.93 h 33.56 v -10.51 h -33.56 v 10.51" /><path
           inkscape:connector-curvature="0"
           id="path95478"
           style="fill:#ffffff;fill-opacity:1;fill-rule:evenodd;stroke:none"
           d="m 3130.3,2115 h 83.47 v -10.51 H 3130.3 V 2115" /><path
           inkscape:connector-curvature="0"
           id="path95480"
           style="fill:#ffffff;fill-opacity:1;fill-rule:evenodd;stroke:none"
           d="m 3130.3,2089 h 83.47 v -10.51 H 3130.3 V 2089" /><path
           inkscape:connector-curvature="0"
           id="path95482"
           style="fill:#ffffff;fill-opacity:1;fill-rule:evenodd;stroke:none"
           d="m 3239.26,2115 h 137.42 v -10.51 H 3239.26 V 2115" /><path
           inkscape:connector-curvature="0"
           id="path95484"
           style="fill:#ffffff;fill-opacity:1;fill-rule:evenodd;stroke:none"
           d="m 3239.26,2089 h 75.18 v -10.51 h -75.18 V 2089" /><path
           inkscape:connector-curvature="0"
           id="path95486"
           style="fill:#ffffff;fill-opacity:1;fill-rule:evenodd;stroke:none"
           d="m 3396.76,2115 h 37.48 v -10.51 h -37.48 V 2115" /><path
           inkscape:connector-curvature="0"
           id="path95488"
           style="fill:#ffffff;fill-opacity:1;fill-rule:evenodd;stroke:none"
           d="m 3450.31,2115 h 46.38 v -10.51 h -46.38 V 2115" /><path
           inkscape:connector-curvature="0"
           id="path95490"
           style="fill:#ffffff;fill-opacity:1;fill-rule:evenodd;stroke:none"
           d="m 3387.61,2089 h 83.53 v -10.51 h -83.53 V 2089" /><path
           inkscape:connector-curvature="0"
           id="path95492"
           style="fill:#ffffff;fill-opacity:1;fill-rule:evenodd;stroke:none"
           d="m 3331.16,2089 h 35.54 v -10.51 h -35.54 V 2089" /><path
           inkscape:connector-curvature="0"
           id="path95494"
           style="fill:#ffffff;fill-opacity:1;fill-rule:evenodd;stroke:none"
           d="m 3063.74,2046.42 h 88.69 v -10.52 h -88.69 v 10.52" /><path
           inkscape:connector-curvature="0"
           id="path95496"
           style="fill:#ffffff;fill-opacity:1;fill-rule:evenodd;stroke:none"
           d="m 3063.74,2020.48 h 143.05 v -10.51 h -143.05 v 10.51" /><path
           inkscape:connector-curvature="0"
           id="path95498"
           style="fill:#ffffff;fill-opacity:1;fill-rule:evenodd;stroke:none"
           d="m 3130.3,1994.49 h 83.47 v -10.52 h -83.47 v 10.52" /><path
           inkscape:connector-curvature="0"
           id="path95500"
           style="fill:#ffffff;fill-opacity:1;fill-rule:evenodd;stroke:none"
           d="m 3130.3,1968.55 h 83.47 v -10.52 h -83.47 v 10.52" /><path
           inkscape:connector-curvature="0"
           id="path95502"
           style="fill:#ffffff;fill-opacity:1;fill-rule:evenodd;stroke:none"
           d="m 3188.23,1942.55 h 81.19 v -10.52 h -81.19 v 10.52" /><path
           inkscape:connector-curvature="0"
           id="path95504"
           style="fill:#ffffff;fill-opacity:1;fill-rule:evenodd;stroke:none"
           d="m 3182.29,2046.42 h 83.93 v -10.52 h -83.93 v 10.52" /><path
           inkscape:connector-curvature="0"
           id="path95506"
           style="fill:#ffffff;fill-opacity:1;fill-rule:evenodd;stroke:none"
           d="m 3375.67,2046.42 h -87.95 v -10.52 h 264.62 v 10.52 h -176.67" /><path
           inkscape:connector-curvature="0"
           id="path95508"
           style="fill:#ffffff;fill-opacity:1;fill-rule:evenodd;stroke:none"
           d="m 3230.69,2020.48 h 85.12 v -10.51 h -85.12 v 10.51" /><path
           inkscape:connector-curvature="0"
           id="path95510"
           style="fill:#ffffff;fill-opacity:1;fill-rule:evenodd;stroke:none"
           d="m 3239.26,1968.55 h 64.92 v -10.52 h -64.92 v 10.52" /><path
           inkscape:connector-curvature="0"
           id="path95512"
           style="fill:#ffffff;fill-opacity:1;fill-rule:evenodd;stroke:none"
           d="m 3366.07,1994.49 h -126.81 v -10.52 h 188.96 v 10.52 h -62.15" /><path
           inkscape:connector-curvature="0"
           id="path95514"
           style="fill:#ffffff;fill-opacity:1;fill-rule:evenodd;stroke:none"
           d="m 3446.78,1994.49 h 42.98 v -10.52 h -42.98 v 10.52" /><path
           inkscape:connector-curvature="0"
           id="path95516"
           style="fill:#ffffff;fill-opacity:1;fill-rule:evenodd;stroke:none"
           d="m 3510.67,1994.49 h 41.67 v -10.52 h -41.67 v 10.52" /><path
           inkscape:connector-curvature="0"
           id="path95518"
           style="fill:#ffffff;fill-opacity:1;fill-rule:evenodd;stroke:none"
           d="m 3322.74,1968.55 h 123.98 v -10.52 h -123.98 v 10.52" /><path
           inkscape:connector-curvature="0"
           id="path95520"
           style="fill:#ffffff;fill-opacity:1;fill-rule:evenodd;stroke:none"
           d="m 3462.45,1968.55 h 31.51 v -10.52 h -31.51 v 10.52" /><path
           inkscape:connector-curvature="0"
           id="path95522"
           style="fill:#ffffff;fill-opacity:1;fill-rule:evenodd;stroke:none"
           d="m 3292.61,1942.55 h 60.36 v -10.52 h -60.36 v 10.52" /><path
           inkscape:connector-curvature="0"
           id="path95524"
           style="fill:#ffffff;fill-opacity:1;fill-rule:evenodd;stroke:none"
           d="m 3130.3,1864.62 h 83.47 v -10.52 h -83.47 v 10.52" /><path
           inkscape:connector-curvature="0"
           id="path95526"
           style="fill:#ffffff;fill-opacity:1;fill-rule:evenodd;stroke:none"
           d="m 3213.77,1890.62 h -83.47 v -10.52 h 246.38 v 10.52 h -162.91" /><path
           inkscape:connector-curvature="0"
           id="path95528"
           style="fill:#ffffff;fill-opacity:1;fill-rule:evenodd;stroke:none"
           d="m 3239.26,1864.62 h 75.18 v -10.52 h -75.18 v 10.52" /><path
           inkscape:connector-curvature="0"
           id="path95530"
           style="fill:#ffffff;fill-opacity:1;fill-rule:evenodd;stroke:none"
           d="m 3396.76,1890.62 h 37.48 v -10.52 h -37.48 v 10.52" /><path
           inkscape:connector-curvature="0"
           id="path95532"
           style="fill:#ffffff;fill-opacity:1;fill-rule:evenodd;stroke:none"
           d="m 3450.31,1890.62 h 46.38 v -10.52 h -46.38 v 10.52" /><path
           inkscape:connector-curvature="0"
           id="path95534"
           style="fill:#ffffff;fill-opacity:1;fill-rule:evenodd;stroke:none"
           d="m 3387.61,1864.62 h 83.53 v -10.52 h -83.53 v 10.52" /><path
           inkscape:connector-curvature="0"
           id="path95536"
           style="fill:#ffffff;fill-opacity:1;fill-rule:evenodd;stroke:none"
           d="m 3331.16,1864.62 h 35.54 v -10.52 h -35.54 v 10.52" /><path
           inkscape:connector-curvature="0"
           id="path95538"
           style="fill:#42b0b2;fill-opacity:1;fill-rule:evenodd;stroke:none"
           d="m 2997.26,2621.83 h 670.34 v 52.23 h -670.34 v -52.23" /><path
           inkscape:connector-curvature="0"
           id="path95540"
           style="fill:#e9e7e5;fill-opacity:1;fill-rule:evenodd;stroke:none"
           d="m 3635.34,2651.26 c 0,-7.55 -6.12,-13.68 -13.67,-13.68 -7.56,0 -13.68,6.13 -13.68,13.68 0,7.55 6.12,13.68 13.68,13.68 7.55,0 13.67,-6.13 13.67,-13.68" /><path
           inkscape:connector-curvature="0"
           id="path95542"
           style="fill:#e9e7e5;fill-opacity:1;fill-rule:evenodd;stroke:none"
           d="m 3589.75,2651.26 c 0,-7.55 -6.13,-13.68 -13.69,-13.68 -7.54,0 -13.68,6.13 -13.68,13.68 0,7.55 6.14,13.68 13.68,13.68 7.56,0 13.69,-6.13 13.69,-13.68" /><path
           inkscape:connector-curvature="0"
           id="path95544"
           style="fill:#ffffff;fill-opacity:1;fill-rule:evenodd;stroke:none"
           d="M 1384.12,1554.13 H 2915.08 V 3319.27 H 1384.12 V 1554.13" /><path
           inkscape:connector-curvature="0"
           id="path95546"
           style="fill:#42b0b2;fill-opacity:1;fill-rule:evenodd;stroke:none"
           d="m 1384.12,3233.98 h 1530.96 v 85.29 H 1384.12 v -85.29" /><path
           inkscape:connector-curvature="0"
           id="path95548"
           style="fill:#e9e7e5;fill-opacity:1;fill-rule:evenodd;stroke:none"
           d="m 2872.33,3278.75 c 0,-11.28 -9.14,-20.42 -20.41,-20.42 -11.28,0 -20.41,9.14 -20.41,20.42 0,11.26 9.13,20.41 20.41,20.41 11.27,0 20.41,-9.15 20.41,-20.41" /><path
           inkscape:connector-curvature="0"
           id="path95550"
           style="fill:#e9e7e5;fill-opacity:1;fill-rule:evenodd;stroke:none"
           d="m 2804.3,3278.75 c 0,-11.28 -9.14,-20.42 -20.41,-20.42 -11.27,0 -20.41,9.14 -20.41,20.42 0,11.26 9.14,20.41 20.41,20.41 11.27,0 20.41,-9.15 20.41,-20.41" /><path
           inkscape:connector-curvature="0"
           id="path95552"
           style="fill:#63c5cf;fill-opacity:1;fill-rule:evenodd;stroke:none"
           d="m 1384.12,2981.15 h 1530.96 v 99.35 H 1384.12 v -99.35" /><path
           inkscape:connector-curvature="0"
           id="path95554"
           style="fill:#ffffff;fill-opacity:1;fill-rule:evenodd;stroke:none"
           d="m 2359.95,3009.1 h 469.25 v 43.53 h -469.25 v -43.53" /><path
           inkscape:connector-curvature="0"
           id="path95556"
           style="fill:#f9f564;fill-opacity:1;fill-rule:evenodd;stroke:none"
           d="m 1488.29,3016.16 h 137.27 v 29.34 h -137.27 v -29.34" /><path
           inkscape:connector-curvature="0"
           id="path95558"
           style="fill:#f9f564;fill-opacity:1;fill-rule:evenodd;stroke:none"
           d="m 1636.79,3016.16 h 137.26 v 29.34 h -137.26 v -29.34" /><path
           inkscape:connector-curvature="0"
           id="path95560"
           style="fill:#f9f564;fill-opacity:1;fill-rule:evenodd;stroke:none"
           d="m 1785.28,3016.16 h 137.27 v 29.34 h -137.27 v -29.34" /><path
           inkscape:connector-curvature="0"
           id="path95562"
           style="fill:#f9f564;fill-opacity:1;fill-rule:evenodd;stroke:none"
           d="m 1933.78,3016.16 h 137.26 v 29.34 h -137.26 v -29.34" /><path
           inkscape:connector-curvature="0"
           id="path95564"
           style="fill:#f28f6f;fill-opacity:1;fill-rule:evenodd;stroke:none"
           d="m 1687.41,2607.22 h 278.77 v 225.88 h -278.77 v -225.88" /><path
           inkscape:connector-curvature="0"
           id="path95566"
           style="fill:#ffffff;fill-opacity:1;fill-rule:evenodd;stroke:none"
           d="m 2849.58,3046.61 v 0 c 5.69,5.56 14.93,5.56 20.63,0 5.7,-5.57 5.7,-14.59 0,-20.15 -5.7,-5.57 -14.94,-5.57 -20.63,0 -5.69,5.56 -5.69,14.58 0,20.15 z m 10.31,0.83 c -6,0 -10.9,-4.88 -10.9,-10.91 0,-6.02 4.9,-10.9 10.9,-10.9 6.04,0 10.91,4.88 10.91,10.9 0,6.03 -4.87,10.91 -10.91,10.91" /><path
           inkscape:connector-curvature="0"
           id="path95568"
           style="fill:#ffffff;fill-opacity:1;fill-rule:evenodd;stroke:none"
           d="m 2872.71,3020.88 -3.23,3.19 1.74,1.43 1.72,2.07 3.28,-3.23 -3.51,-3.46" /><path
           inkscape:connector-curvature="0"
           id="path95570"
           style="fill:#ffffff;fill-opacity:1;fill-rule:evenodd;stroke:none"
           d="m 2889.93,3011.55 c 1.15,-1.13 1.15,-2.97 0,-4.1 -1.16,-1.13 -3.04,-1.13 -4.2,0 l -12.74,12.55 4.18,4.11 12.76,-12.56" /><path
           inkscape:connector-curvature="0"
           id="path95572"
           style="fill:#ffffff;fill-opacity:1;fill-rule:evenodd;stroke:none"
           d="m 2859.05,3027.6 c 1.05,0 2.12,0.19 3.17,0.62 h -0.01 l 0.54,1.27 -1.28,0.54 -2.42,-0.48 c -2.16,0.01 -3.97,1.1 -4.67,2.85 l -1.28,0.54 -0.54,-1.27 c 1.04,-2.6 3.68,-4.07 6.47,-4.07 h 0.02" /><path
           inkscape:connector-curvature="0"
           id="path95574"
           style="fill:#f5b667;fill-opacity:1;fill-rule:evenodd;stroke:none"
           d="m 1997.48,2609.05 h 278.78 v 225.89 h -278.78 v -225.89" /><path
           inkscape:connector-curvature="0"
           id="path95576"
           style="fill:#8dd5f0;fill-opacity:1;fill-rule:evenodd;stroke:none"
           d="m 2307.55,2610.19 h 278.78 v 225.87 h -278.78 v -225.87" /><path
           inkscape:connector-curvature="0"
           id="path95578"
           style="fill:#c6c6c6;fill-opacity:1;fill-rule:evenodd;stroke:none"
           d="m 1506.09,1818.84 h 399.17 v 19.68 h -399.17 v -19.68" /><path
           inkscape:connector-curvature="0"
           id="path95580"
           style="fill:#c6c6c6;fill-opacity:1;fill-rule:evenodd;stroke:none"
           d="m 1506.09,1783.18 h 399.17 v 19.68 h -399.17 v -19.68" /><path
           inkscape:connector-curvature="0"
           id="path95582"
           style="fill:#c6c6c6;fill-opacity:1;fill-rule:evenodd;stroke:none"
           d="m 1506.09,1747.53 h 399.17 v 19.69 h -399.17 v -19.69" /><path
           inkscape:connector-curvature="0"
           id="path95584"
           style="fill:#c6c6c6;fill-opacity:1;fill-rule:evenodd;stroke:none"
           d="m 1506.09,1711.89 h 399.17 v 19.68 h -399.17 v -19.68" /><path
           inkscape:connector-curvature="0"
           id="path95586"
           style="fill:#c6c6c6;fill-opacity:1;fill-rule:evenodd;stroke:none"
           d="m 1506.09,1676.25 h 399.17 v 19.68 h -399.17 v -19.68" /><path
           inkscape:connector-curvature="0"
           id="path95588"
           style="fill:#c6c6c6;fill-opacity:1;fill-rule:evenodd;stroke:none"
           d="m 1506.09,1640.61 h 399.17 v 19.67 h -399.17 v -19.67" /><path
           inkscape:connector-curvature="0"
           id="path95590"
           style="fill:#c6c6c6;fill-opacity:1;fill-rule:evenodd;stroke:none"
           d="m 1506.09,1604.96 h 399.17 v 19.68 h -399.17 v -19.68" /><path
           inkscape:connector-curvature="0"
           id="path95592"
           style="fill:#c6c6c6;fill-opacity:1;fill-rule:evenodd;stroke:none"
           d="m 1954.82,1818.84 h 399.17 v 19.68 h -399.17 v -19.68" /><path
           inkscape:connector-curvature="0"
           id="path95594"
           style="fill:#c6c6c6;fill-opacity:1;fill-rule:evenodd;stroke:none"
           d="m 1954.82,1783.18 h 399.17 v 19.68 h -399.17 v -19.68" /><path
           inkscape:connector-curvature="0"
           id="path95596"
           style="fill:#c6c6c6;fill-opacity:1;fill-rule:evenodd;stroke:none"
           d="m 1954.82,1747.53 h 399.17 v 19.69 h -399.17 v -19.69" /><path
           inkscape:connector-curvature="0"
           id="path95598"
           style="fill:#c6c6c6;fill-opacity:1;fill-rule:evenodd;stroke:none"
           d="m 1954.82,1711.89 h 399.17 v 19.68 h -399.17 v -19.68" /><path
           inkscape:connector-curvature="0"
           id="path95600"
           style="fill:#c6c6c6;fill-opacity:1;fill-rule:evenodd;stroke:none"
           d="m 1954.82,1676.25 h 399.17 v 19.68 h -399.17 v -19.68" /><path
           inkscape:connector-curvature="0"
           id="path95602"
           style="fill:#c6c6c6;fill-opacity:1;fill-rule:evenodd;stroke:none"
           d="m 1954.82,1640.61 h 399.17 v 19.67 h -399.17 v -19.67" /><path
           inkscape:connector-curvature="0"
           id="path95604"
           style="fill:#c6c6c6;fill-opacity:1;fill-rule:evenodd;stroke:none"
           d="m 1954.82,1604.96 h 399.17 v 19.68 h -399.17 v -19.68" /><path
           inkscape:connector-curvature="0"
           id="path95606"
           style="fill:#c6c6c6;fill-opacity:1;fill-rule:evenodd;stroke:none"
           d="m 2406.2,1818.84 h 399.15 v 19.68 H 2406.2 v -19.68" /><path
           inkscape:connector-curvature="0"
           id="path95608"
           style="fill:#c6c6c6;fill-opacity:1;fill-rule:evenodd;stroke:none"
           d="m 2406.2,1783.18 h 399.15 v 19.68 H 2406.2 v -19.68" /><path
           inkscape:connector-curvature="0"
           id="path95610"
           style="fill:#c6c6c6;fill-opacity:1;fill-rule:evenodd;stroke:none"
           d="m 2406.2,1747.53 h 399.15 v 19.69 H 2406.2 v -19.69" /><path
           inkscape:connector-curvature="0"
           id="path95612"
           style="fill:#c6c6c6;fill-opacity:1;fill-rule:evenodd;stroke:none"
           d="m 2406.2,1711.89 h 399.15 v 19.68 H 2406.2 v -19.68" /><path
           inkscape:connector-curvature="0"
           id="path95614"
           style="fill:#c6c6c6;fill-opacity:1;fill-rule:evenodd;stroke:none"
           d="m 2406.2,1676.25 h 399.15 v 19.68 H 2406.2 v -19.68" /><path
           inkscape:connector-curvature="0"
           id="path95616"
           style="fill:#c6c6c6;fill-opacity:1;fill-rule:evenodd;stroke:none"
           d="m 2406.2,1640.61 h 399.15 v 19.67 H 2406.2 v -19.67" /><path
           inkscape:connector-curvature="0"
           id="path95618"
           style="fill:#c6c6c6;fill-opacity:1;fill-rule:evenodd;stroke:none"
           d="m 2406.2,1604.96 h 399.15 v 19.68 H 2406.2 v -19.68" /><path
           inkscape:connector-curvature="0"
           id="path95620"
           style="fill:#63c5cf;fill-opacity:1;fill-rule:evenodd;stroke:none"
           d="m 1384.12,1982.64 h 1530.96 v 477.92 H 1384.12 v -477.92" /><path
           inkscape:connector-curvature="0"
           id="path95622"
           style="fill:#f9f564;fill-opacity:1;fill-rule:evenodd;stroke:none"
           d="m 1527.62,2061.72 h 394.81 v 319.89 h -394.81 v -319.89" /><path
           inkscape:connector-curvature="0"
           id="path95624"
           style="fill:#ffffff;fill-opacity:1;fill-rule:evenodd;stroke:none"
           d="m 2024.23,2258.75 h 631.66 v 10.52 h -631.66 v -10.52" /><path
           inkscape:connector-curvature="0"
           id="path95626"
           style="fill:#ffffff;fill-opacity:1;fill-rule:evenodd;stroke:none"
           d="m 2024.23,2232.74 h 631.66 v 10.53 h -631.66 v -10.53" /><path
           inkscape:connector-curvature="0"
           id="path95628"
           style="fill:#ffffff;fill-opacity:1;fill-rule:evenodd;stroke:none"
           d="m 2024.23,2206.82 h 631.66 v 10.51 h -631.66 v -10.51" /><path
           inkscape:connector-curvature="0"
           id="path95630"
           style="fill:#ffffff;fill-opacity:1;fill-rule:evenodd;stroke:none"
           d="m 2024.23,2180.82 h 416.16 v 10.51 h -416.16 v -10.51" /><path
           inkscape:connector-curvature="0"
           id="path95632"
           style="fill:#f9f564;fill-opacity:1;fill-rule:evenodd;stroke:none"
           d="m 1401.68,2221.6 18.79,10.85 18.8,10.85 v -43.41 l -18.8,10.85 -18.79,10.86" /><path
           inkscape:connector-curvature="0"
           id="path95634"
           style="fill:#f9f564;fill-opacity:1;fill-rule:evenodd;stroke:none"
           d="m 2897.51,2221.6 -18.79,10.85 -18.8,10.85 v -43.41 l 18.8,10.85 18.79,10.86" /><path
           inkscape:connector-curvature="0"
           id="path95636"
           style="fill:#f28f6f;fill-opacity:1;fill-rule:evenodd;stroke:none"
           d="m 1506.09,1856.77 h 399.17 v 103.34 h -399.17 v -103.34" /><path
           inkscape:connector-curvature="0"
           id="path95638"
           style="fill:#8dd5f0;fill-opacity:1;fill-rule:evenodd;stroke:none"
           d="m 1954.83,1852.5 h 399.16 v 103.34 H 1954.83 V 1852.5" /><path
           inkscape:connector-curvature="0"
           id="path95640"
           style="fill:#f5b667;fill-opacity:1;fill-rule:evenodd;stroke:none"
           d="m 2406.2,1851.44 h 399.15 v 103.34 H 2406.2 v -103.34" /><path
           inkscape:connector-curvature="0"
           id="path95642"
           style="fill:#e9e7e5;fill-opacity:1;fill-rule:evenodd;stroke:none"
           d="m 4124.38,1525.68 127.59,86.25 -369.84,547.16 -127.59,-86.28 369.84,-547.13" /><path
           inkscape:connector-curvature="0"
           id="path95644"
           style="fill:#c6223e;fill-opacity:1;fill-rule:evenodd;stroke:none"
           d="m 4088.29,1594.74 113.09,76.38 -76.45,113.08 -113.05,-76.41 76.41,-113.05" /><path
           inkscape:connector-curvature="0"
           id="path95646"
           style="fill:#b51d24;fill-opacity:1;fill-rule:evenodd;stroke:none"
           d="m 4006.74,1715.38 113.07,76.42 -76.41,113.04 -113.05,-76.42 76.39,-113.04" /><path
           inkscape:connector-curvature="0"
           id="path95648"
           style="fill:#7d1821;fill-opacity:1;fill-rule:evenodd;stroke:none"
           d="m 3925.22,1836.01 113.04,76.42 -76.4,113.07 -113.08,-76.42 76.44,-113.07" /><path
           inkscape:connector-curvature="0"
           id="path95650"
           style="fill:#271313;fill-opacity:1;fill-rule:evenodd;stroke:none"
           d="m 3843.65,1956.67 113.07,76.42 -76.44,113.07 -113.03,-76.42 76.4,-113.07" /><path
           inkscape:connector-curvature="0"
           id="path95652"
           style="fill:#e9e7e5;fill-opacity:1;fill-rule:evenodd;stroke:none"
           d="m 4104.67,1541.74 148.49,40.9 -175.44,636.71 -148.47,-40.94 175.42,-636.67" /><path
           inkscape:connector-curvature="0"
           id="path95654"
           style="fill:#f49da4;fill-opacity:1;fill-rule:evenodd;stroke:none"
           d="m 4092.58,1618.68 131.56,36.24 -36.28,131.57 -131.53,-36.27 36.25,-131.54" /><path
           inkscape:connector-curvature="0"
           id="path95656"
           style="fill:#ed6672;fill-opacity:1;fill-rule:evenodd;stroke:none"
           d="m 4053.88,1759.07 131.57,36.26 -36.27,131.56 -131.53,-36.26 36.23,-131.56" /><path
           inkscape:connector-curvature="0"
           id="path95658"
           style="fill:#ea3e46;fill-opacity:1;fill-rule:evenodd;stroke:none"
           d="m 4015.21,1899.46 131.56,36.24 -36.26,131.58 -131.55,-36.24 36.25,-131.58" /><path
           inkscape:connector-curvature="0"
           id="path95660"
           style="fill:#e62623;fill-opacity:1;fill-rule:evenodd;stroke:none"
           d="m 3976.51,2039.86 131.58,36.25 -36.27,131.57 -131.54,-36.26 36.23,-131.56" /><path
           inkscape:connector-curvature="0"
           id="path95662"
           style="fill:#e9e7e5;fill-opacity:1;fill-rule:evenodd;stroke:none"
           d="m 4089.51,1562.98 153.95,-5.59 23.8,659.99 -153.94,5.56 -23.81,-659.96" /><path
           inkscape:connector-curvature="0"
           id="path95664"
           style="fill:#f8cc8d;fill-opacity:1;fill-rule:evenodd;stroke:none"
           d="m 4101.08,1639.99 136.36,-4.9 4.93,136.36 -136.35,4.91 -4.94,-136.37" /><path
           inkscape:connector-curvature="0"
           id="path95666"
           style="fill:#f5b152;fill-opacity:1;fill-rule:evenodd;stroke:none"
           d="m 4106.35,1785.51 136.36,-4.91 4.91,136.38 -136.37,4.9 -4.9,-136.37" /><path
           inkscape:connector-curvature="0"
           id="path95668"
           style="fill:#f39824;fill-opacity:1;fill-rule:evenodd;stroke:none"
           d="m 4111.57,1931.06 136.39,-4.93 4.9,136.39 -136.37,4.9 -4.92,-136.36" /><path
           inkscape:connector-curvature="0"
           id="path95670"
           style="fill:#ee8015;fill-opacity:1;fill-rule:evenodd;stroke:none"
           d="m 4116.84,2076.57 136.35,-4.9 4.92,136.4 -136.38,4.87 -4.89,-136.37" /><path
           inkscape:connector-curvature="0"
           id="path95672"
           style="fill:#e9e7e5;fill-opacity:1;fill-rule:evenodd;stroke:none"
           d="m 4084.97,1584.64 146.53,-47.4 203.33,628.33 -146.54,47.43 -203.32,-628.36" /><path
           inkscape:connector-curvature="0"
           id="path95674"
           style="fill:#93d7cc;fill-opacity:1;fill-rule:evenodd;stroke:none"
           d="m 4117.17,1655.61 129.82,-42.04 41.99,129.85 -129.83,42.02 -41.98,-129.83" /><path
           inkscape:connector-curvature="0"
           id="path95676"
           style="fill:#64c7b5;fill-opacity:1;fill-rule:evenodd;stroke:none"
           d="m 4161.98,1794.15 129.84,-42.03 42.02,129.83 -129.83,42.03 -42.03,-129.83" /><path
           inkscape:connector-curvature="0"
           id="path95678"
           style="fill:#3eb4a8;fill-opacity:1;fill-rule:evenodd;stroke:none"
           d="m 4206.8,1932.7 129.86,-42.01 42.01,129.83 -129.84,42.01 -42.03,-129.83" /><path
           inkscape:connector-curvature="0"
           id="path95680"
           style="fill:#37a594;fill-opacity:1;fill-rule:evenodd;stroke:none"
           d="m 4251.65,2071.27 129.83,-42.02 42.03,129.83 -129.85,42.01 -42.01,-129.82" /><path
           inkscape:connector-curvature="0"
           id="path95682"
           style="fill:#e9e7e5;fill-opacity:1;fill-rule:evenodd;stroke:none"
           d="m 4082.03,1610.63 126.91,-87.26 374.25,544.1 -126.91,87.31 -374.25,-544.15" /><path
           inkscape:connector-curvature="0"
           id="path95684"
           style="fill:#a1c6e5;fill-opacity:1;fill-rule:evenodd;stroke:none"
           d="m 4133.1,1669.45 112.44,-77.34 77.35,112.44 -112.45,77.33 -77.34,-112.43" /><path
           inkscape:connector-curvature="0"
           id="path95686"
           style="fill:#72a4d7;fill-opacity:1;fill-rule:evenodd;stroke:none"
           d="m 4215.63,1789.42 112.46,-77.34 77.34,112.43 -112.45,77.34 -77.35,-112.43" /><path
           inkscape:connector-curvature="0"
           id="path95688"
           style="fill:#4183c9;fill-opacity:1;fill-rule:evenodd;stroke:none"
           d="m 4298.18,1909.38 112.44,-77.3 77.33,112.42 -112.41,77.34 -77.36,-112.46" /><path
           inkscape:connector-curvature="0"
           id="path95690"
           style="fill:#2f65b9;fill-opacity:1;fill-rule:evenodd;stroke:none"
           d="m 4380.71,2029.39 112.42,-77.32 77.35,112.43 -112.42,77.32 -77.35,-112.43" /><path
           inkscape:connector-curvature="0"
           id="path95692"
           style="fill:#49494f;fill-opacity:1;fill-rule:evenodd;stroke:none"
           d="m 4164.79,1617.66 c 7.47,0.29 13.73,-5.48 14.03,-12.91 0.32,-7.46 -5.45,-13.74 -12.92,-14.06 -7.42,-0.31 -13.71,5.48 -14.01,12.91 -0.33,7.46 5.45,13.75 12.9,14.06" /><path
           inkscape:connector-curvature="0"
           id="path95694"
           style="fill:#b8b8b9;fill-opacity:1;fill-rule:evenodd;stroke:none"
           d="m 4165.13,1609.99 c 3.06,0.16 5.7,-2.26 5.81,-5.32 l 4.77,-116.01 c 0.11,-3.06 -2.31,-5.69 -5.37,-5.83 -3.07,-0.12 -5.71,2.31 -5.83,5.35 l -4.77,116.02 c -0.12,3.06 2.31,5.67 5.39,5.79" /><path
           inkscape:connector-curvature="0"
           id="path95696"
           style="fill:#f6bc28;fill-opacity:1;fill-rule:evenodd;stroke:none"
           d="m 1414.31,2171.87 70.83,-151.68 -804.402,-375.7 -70.82,151.64 804.392,375.74" /><path
           inkscape:connector-curvature="0"
           id="path95698"
           style="fill:#f8cd52;fill-opacity:1;fill-rule:evenodd;stroke:none"
           d="m 1469.02,2054.72 16.12,-34.53 -804.402,-375.7 -16.125,34.5 804.407,375.73" /><path
           inkscape:connector-curvature="0"
           id="path95700"
           style="fill:#d39d1c;fill-opacity:1;fill-rule:evenodd;stroke:none"
           d="m 1414.31,2171.87 35.42,-75.84 -804.398,-375.73 -35.414,75.83 804.392,375.74" /><path
           inkscape:connector-curvature="0"
           id="path95702"
           style="fill:#c1821b;fill-opacity:1;fill-rule:evenodd;stroke:none"
           d="m 1414.31,2171.87 17.72,-37.92 -804.409,-375.73 -17.703,37.91 804.392,375.74" /><path
           inkscape:connector-curvature="0"
           id="path95704"
           style="fill:#fef0c1;fill-opacity:1;fill-rule:evenodd;stroke:none"
           d="m 1641.38,2185.55 -156.24,-165.36 -70.83,151.68 z" /><path
           inkscape:connector-curvature="0"
           id="path95706"
           style="fill:#3f3d3c;fill-opacity:1;fill-rule:evenodd;stroke:none"
           d="m 1641.38,2185.55 -51.99,-55.02 -23.58,50.47 z" /><path
           inkscape:connector-curvature="0"
           id="path95708"
           style="fill:#755eb3;fill-opacity:1;fill-rule:evenodd;stroke:none"
           d="m 482.859,1645.35 0.704,-1.51 c 19.359,-41.46 68.667,-59.37 110.125,-40 l 33.015,15.4 -70.844,151.66 -33.004,-15.42 C 481.41,1736.11 463.5,1686.81 482.859,1645.35" /><path
           inkscape:connector-curvature="0"
           id="path95710"
           style="fill:#eddfc3;fill-opacity:1;fill-rule:evenodd;stroke:none"
           d="m 609.918,1796.13 70.82,-151.64 -54.035,-25.25 -70.844,151.66 54.059,25.23" /><path
           inkscape:connector-curvature="0"
           id="path95712"
           style="fill:#ffffff;fill-opacity:1;fill-rule:evenodd;stroke:none"
           d="m 2587.26,3560.26 -92.66,1.59 c -3.81,0.08 -6.96,-2.43 -7.02,-5.61 l -0.08,-3.82 c -0.05,-3.18 3.02,-5.84 6.87,-5.86 l 92.63,-1.62 c 3.82,-0.08 6.96,2.46 7.01,5.64 l 0.07,3.82 c 0.07,3.18 -3,5.81 -6.82,5.86" /><path
           inkscape:connector-curvature="0"
           id="path95714"
           style="fill:#ffffff;fill-opacity:1;fill-rule:evenodd;stroke:none"
           d="m 2586.95,3542.92 -92.64,1.62 c -3.84,0.06 -6.98,-2.46 -7.05,-5.68 l -0.06,-3.79 c -0.06,-3.2 3.01,-5.81 6.84,-5.85 l 92.65,-1.63 c 3.82,-0.07 6.99,2.45 7.07,5.62 l 0.03,3.85 c 0.07,3.18 -3.02,5.81 -6.84,5.86" /><path
           inkscape:connector-curvature="0"
           id="path95716"
           style="fill:#ffffff;fill-opacity:1;fill-rule:evenodd;stroke:none"
           d="m 2586.65,3525.6 -92.64,1.59 c -3.83,0.05 -7,-2.44 -7.06,-5.65 l -0.06,-3.82 c -0.07,-3.18 3.02,-5.8 6.85,-5.88 l 92.65,-1.57 c 3.82,-0.06 7,2.42 7.06,5.6 l 0.06,3.82 c 0.05,3.21 -3.05,5.83 -6.86,5.91" /><path
           inkscape:connector-curvature="0"
           id="path95718"
           style="fill:#ffffff;fill-opacity:1;fill-rule:evenodd;stroke:none"
           d="m 2505.28,3509.65 69.49,-1.2 c -0.2,-11.5 -18.84,-18.83 -35.07,-18.58 -16.22,0.3 -34.61,8.29 -34.42,19.78" /><path
           inkscape:connector-curvature="0"
           id="path95720"
           style="fill:#ffffff;fill-opacity:1;fill-rule:evenodd;stroke:none"
           d="m 2557.16,3652.98 v 0 c -0.2,-6.34 0.18,-12.67 0.68,-18.75 0.9,-11.33 2.5,-22.56 4.59,-33.63 0.48,-2.45 0.96,-4.86 1.48,-7.29 1.35,-6.49 2.71,-13.08 4.63,-19.45 l 2.04,-0.02 c -2.35,7.78 -3.94,16.21 -5.43,24.17 -0.21,1.03 -0.4,2.13 -0.59,3.17 -2.36,12.78 -4.18,25.8 -4.63,39 -0.15,4.03 -0.33,8.47 -0.16,12.98 l 0.05,-0.01 0.01,0.09 c 3.45,0.38 6.89,1.27 9.71,3.13 5.42,3.49 9.28,9.66 11.06,15.8 1.29,4.44 1.7,11.16 -2.59,13.65 -3.69,2.09 -9.4,-0.53 -12.51,-3.53 -3.06,-2.94 -4.75,-7.12 -5.82,-11.07 -1.22,-4.39 -1.92,-8.92 -2.29,-13.47 l -0.06,0.01 0.01,-0.11 -0.55,-0.04 c -3.72,-0.26 -8.22,-0.17 -12.2,0.93 l 0.03,0.03 -0.04,0.01 c 3.72,4.88 6.52,10.88 7.02,16.42 0.4,4.47 -0.8,10.38 -5.33,11.88 -4.57,1.56 -9.52,-2.43 -11.54,-6.75 -2.95,-6.32 -2.73,-13.34 0.8,-18.69 0.83,-1.23 1.8,-2.28 2.88,-3.22 l -0.03,-0.04 0.04,-0.05 c -3.12,-2.86 -6.39,-4.26 -9.43,-4.47 l -0.01,0.03 -0.01,0.02 c -0.03,7.6 -0.2,15.8 -3.11,22.54 -1.08,2.47 -4.95,10.37 -9.08,7.96 -5.25,-3.03 -3.33,-14.4 -2.42,-18.59 1.34,-5.9 4.04,-13.01 9.84,-15.45 l 2.08,-0.69 -0.01,-0.03 h 0.03 c -0.18,-6.22 -0.68,-12.46 -1.51,-18.7 -1.9,-14.23 -5,-28.37 -7.74,-42.54 -0.85,-4.46 -1.68,-8.91 -2.42,-13.37 l 3.07,-0.05 c 0.84,4.79 1.76,9.58 2.73,14.34 2.19,11.06 4.54,22.14 6.16,33.27 1.33,8.92 2.25,17.84 2.38,26.72 l 0.02,0.04 c 3.61,-0.05 7.27,1.36 10.35,3.92 0.95,0.81 1.9,1.69 2.8,2.66 l 0.03,-0.02 0.03,0.01 c 2.82,-1.38 6.05,-2.19 9.22,-2.47 1.76,-0.15 3.7,-0.25 5.68,-0.18 V 3653 Z m 2.94,5.14 v 0 c 0.58,5.73 1.88,11.38 4.66,16.19 2.32,4.02 6.39,7.45 11,7.78 1.25,0.09 3.17,0.25 3.18,-1.37 0.02,-1.5 -0.22,-3.02 -0.64,-4.53 -0.98,-3.4 -2.58,-6.81 -4.73,-9.77 -3.57,-4.84 -8.11,-7.4 -13.43,-8.37 l 0.02,0.09 z m -19.69,2.13 v 0 c -1.4,0.82 -2.6,1.83 -3.54,3.08 -3.91,5.23 -0.54,16.25 6.08,18.88 1.7,0.68 5.66,1.32 6.05,-1.2 0.7,-4.43 -1.58,-9.16 -3.58,-13.13 -1.53,-3.08 -3.19,-5.59 -4.95,-7.62 l -0.04,0.05 z m -14.08,-6.45 c -7.64,1.33 -13.04,10.52 -9.75,22.69 0.9,3.3 3.5,4.9 5.71,2 2.94,-3.87 3.37,-9.1 3.73,-14 0.23,-3.55 0.33,-7.1 0.33,-10.66 h -0.03 l 0.01,-0.03" /><path
           inkscape:connector-curvature="0"
           id="path95722"
           style="fill:#ffffff;fill-opacity:1;fill-rule:evenodd;stroke:none"
           d="m 2645.65,3717.57 v 0 c -30.75,-53.21 -40.8,-85.02 -47.09,-119.05 -0.68,-3.8 -2.81,-15.38 -6.33,-18.97 -1.23,-1.26 -3.61,-2.49 -11.96,-2.37 l -35.4,0.64 -35.4,0.62 c -8.36,0.13 -10.66,1.46 -11.84,2.73 -3.4,3.74 -5.13,15.36 -5.72,19.17 -5.07,34.23 -14.03,66.39 -42.93,120.61 -9.81,18.45 -14.58,37.66 -14.22,57.17 1.07,62.63 52.89,112.67 115.5,111.6 62.64,-1.06 112.7,-52.91 111.63,-115.54 -0.36,-19.51 -5.82,-38.55 -16.24,-56.61 z m -95.18,183.4 c -68.95,1.18 -125.8,-53.73 -126.98,-122.68 -0.4,-22.69 5.61,-43.88 15.57,-62.62 29.67,-55.74 37.26,-86.88 41.74,-116.99 3.76,-25.22 9.46,-31.16 28.47,-31.51 8.08,-0.14 21.33,-0.36 35.39,-0.58 14.09,-0.24 27.34,-0.51 35.4,-0.63 19.02,-0.34 24.93,5.41 29.58,30.49 5.53,29.96 14.16,60.83 45.76,115.53 10.6,18.31 17.33,39.31 17.74,62.03 1.19,68.92 -53.76,125.77 -122.67,126.96" /><path
           inkscape:connector-curvature="0"
           id="path95724"
           style="fill:#ffffff;fill-opacity:1;fill-rule:evenodd;stroke:none"
           d="m 2482.54,3811.37 c -4.87,-3.88 -28,-25.16 -4.23,-63.81 1.69,-2.75 0.82,-6.34 -1.92,-8.02 -0.98,-0.6 -2.06,-0.87 -3.13,-0.85 -1.92,0.01 -3.79,1.01 -4.89,2.78 -28.86,47.04 0.72,74.02 6.95,79 2.52,1.98 6.2,1.56 8.17,-0.96 1.99,-2.5 1.58,-6.17 -0.95,-8.14" /><path
           inkscape:connector-curvature="0"
           id="path95726"
           style="fill:#ffffff;fill-opacity:1;fill-rule:evenodd;stroke:none"
           d="m 2741.57,3785.55 c -1.78,1.9 -4.22,2.94 -6.8,2.99 l -40.83,0.71 c -2.56,0.06 -5.01,-0.92 -6.89,-2.75 -1.85,-1.79 -2.92,-4.18 -2.96,-6.79 -0.05,-2.59 0.94,-5.03 2.73,-6.87 1.79,-1.85 4.21,-2.93 6.79,-2.98 l 40.83,-0.69 c 2.58,-0.02 5,0.92 6.89,2.72 1.86,1.8 2.89,4.17 2.94,6.79 0.05,2.58 -0.91,5.04 -2.7,6.87" /><path
           inkscape:connector-curvature="0"
           id="path95728"
           style="fill:#ffffff;fill-opacity:1;fill-rule:evenodd;stroke:none"
           d="m 2681.64,3838.3 c 1.69,-0.01 3.38,0.39 4.88,1.22 l 35.66,19.94 1.99,1.47 v 0.03 c 3.16,3.04 3.86,7.85 1.73,11.66 -1.26,2.26 -3.35,3.9 -5.8,4.6 -2.51,0.71 -5.13,0.39 -7.38,-0.87 l -35.66,-19.91 -1.98,-1.49 c -3.17,-3.06 -3.87,-7.86 -1.75,-11.7 1.7,-3.01 4.88,-4.91 8.31,-4.95" /><path
           inkscape:connector-curvature="0"
           id="path95730"
           style="fill:#ffffff;fill-opacity:1;fill-rule:evenodd;stroke:none"
           d="m 2655.07,3952.5 c -3.72,2.19 -8.55,1.66 -11.67,-1.4 l -1.61,-1.98 -20.86,-35.18 c -2.73,-4.55 -1.2,-10.54 3.37,-13.27 1.45,-0.84 3.09,-1.31 4.77,-1.35 2.55,-0.03 5.07,0.96 6.9,2.72 l 1.6,2.03 20.87,35.16 c 2.74,4.55 1.2,10.51 -3.37,13.27" /><path
           inkscape:connector-curvature="0"
           id="path95732"
           style="fill:#ffffff;fill-opacity:1;fill-rule:evenodd;stroke:none"
           d="m 2369.26,3869.54 34.95,-21.14 c 1.47,-0.86 3.14,-1.38 4.86,-1.39 2.53,-0.07 5.03,0.95 6.88,2.69 l 1.55,1.97 c 2.75,4.58 1.28,10.52 -3.27,13.31 l -34.96,21.12 c -3.75,2.3 -8.57,1.77 -11.71,-1.32 l -1.55,-1.94 c -2.77,-4.56 -1.31,-10.54 3.25,-13.3" /><path
           inkscape:connector-curvature="0"
           id="path95734"
           style="fill:#ffffff;fill-opacity:1;fill-rule:evenodd;stroke:none"
           d="m 2719.46,3702.55 -34.98,21.15 c -3.75,2.24 -8.54,1.74 -11.71,-1.33 l -1.55,-1.96 c -2.74,-4.56 -1.29,-10.54 3.26,-13.29 l 34.96,-21.15 c 1.47,-0.86 3.14,-1.39 4.83,-1.39 2.54,-0.04 5.07,0.96 6.89,2.71 l 1.58,1.97 c 2.74,4.55 1.25,10.53 -3.28,13.29" /><path
           inkscape:connector-curvature="0"
           id="path95736"
           style="fill:#ffffff;fill-opacity:1;fill-rule:evenodd;stroke:none"
           d="m 2409.43,3725.46 c -2.5,0.72 -5.13,0.39 -7.36,-0.86 l -35.66,-19.92 -2.01,-1.53 c -3.13,-3.01 -3.85,-7.81 -1.72,-11.66 1.7,-3 4.84,-4.91 8.3,-4.98 1.7,-0.02 3.38,0.42 4.86,1.25 l 35.67,19.95 2,1.46 c 3.16,3.05 3.86,7.86 1.73,11.66 -1.25,2.27 -3.33,3.91 -5.81,4.63" /><path
           inkscape:connector-curvature="0"
           id="path95738"
           style="fill:#ffffff;fill-opacity:1;fill-rule:evenodd;stroke:none"
           d="m 2452.69,3956.36 c -1.23,2.27 -3.28,3.89 -5.79,4.63 -2.47,0.72 -5.1,0.46 -7.34,-0.8 l -2.07,-1.54 c -3.13,-3.01 -3.86,-7.77 -1.76,-11.59 l 19.63,-35.85 c 1.66,-3.05 4.85,-4.97 8.33,-5.06 1.68,0.01 3.32,0.43 4.82,1.2 l 2.08,1.52 c 3.09,3.06 3.83,7.82 1.73,11.67 l -19.63,35.82" /><path
           inkscape:connector-curvature="0"
           id="path95740"
           style="fill:#ffffff;fill-opacity:1;fill-rule:evenodd;stroke:none"
           d="m 2549.39,3981.7 c -2.6,0.07 -5.01,-0.9 -6.91,-2.7 -1.85,-1.79 -2.87,-4.22 -2.93,-6.82 l -0.72,-40.84 c -0.07,-5.37 4.18,-9.77 9.54,-9.88 2.56,-0.03 4.98,0.91 6.87,2.74 1.86,1.77 2.89,4.21 2.94,6.77 l 0.71,40.9 c 0.1,5.31 -4.18,9.74 -9.5,9.83" /><path
           inkscape:connector-curvature="0"
           id="path95742"
           style="fill:#ffffff;fill-opacity:1;fill-rule:evenodd;stroke:none"
           d="m 2409.79,3777.63 c 1.83,1.81 2.89,4.2 2.94,6.78 0.05,2.62 -0.93,5.07 -2.71,6.9 -1.8,1.83 -4.21,2.91 -6.82,2.95 l -40.84,0.72 c -2.57,0.05 -5.02,-0.93 -6.87,-2.71 -1.85,-1.8 -2.92,-4.22 -2.95,-6.83 -0.09,-5.34 4.2,-9.76 9.52,-9.82 l 40.83,-0.72 c 2.56,-0.06 5.01,0.93 6.9,2.73" /><path
           inkscape:connector-curvature="0"
           id="path95744"
           style="fill:#ffffff;fill-opacity:1;fill-rule:evenodd;stroke:none"
           d="m 3210.21,3643.25 c -23.18,-5.97 -44.98,-21.48 -59.22,-44.91 -11.78,-19.39 -16.45,-40.91 -14.67,-61.01 -0.49,-24.29 2.13,-60.12 -22.1,-117.47 -5.02,0.35 -10.07,-2 -12.86,-6.62 -4.03,-6.56 -1.96,-15.12 4.64,-19.15 3.37,-2.04 7.28,-2.47 10.82,-1.55 l 80.06,131.73 c -6.22,7.26 -7.5,17.81 -2.3,26.37 6.45,10.6 20.32,13.98 30.92,7.54 10.56,-6.45 13.95,-20.28 7.5,-30.9 -5.38,-8.83 -15.89,-12.55 -25.42,-9.82 l -79.8,-131.27 c 0.71,-3.69 2.92,-7.1 6.4,-9.2 6.54,-4.01 15.09,-1.95 19.14,4.65 2.79,4.62 2.56,10.15 -0.09,14.5 43.79,52.73 79.39,64.57 100.22,77.2 16,8.07 30.33,20.93 40.7,37.94 14.1,23.22 17.93,49.5 12.74,72.7 l 27.91,36.83 c 0,0 12.45,10.98 -0.76,18.97 -13.19,7.98 -63.66,38.73 -83.17,50.56 -17.05,10.28 -22.33,-8.56 -22.33,-8.56 l -18.33,-38.53" /><path
           inkscape:connector-curvature="0"
           id="path95746"
           style="fill:#ffffff;fill-opacity:1;fill-rule:evenodd;stroke:none"
           d="m 3325.5,3643.67 c -2.37,-3.87 -7.45,-5.1 -11.34,-2.76 l -55.19,33.54 c -3.86,2.37 -5.1,7.45 -2.74,11.33 l 24.93,41.06 c 2.37,3.87 7.47,5.12 11.34,2.76 l 55.17,-33.55 c 3.88,-2.35 5.13,-7.45 2.8,-11.32 l -24.97,-41.06" /><path
           inkscape:connector-curvature="0"
           id="path95748"
           style="fill:#ffffff;fill-opacity:1;fill-rule:evenodd;stroke:none"
           d="m 798.789,3062.22 v 0 l -4.531,-3.99 13.387,-15.1 4.519,3.98 z m 10.891,9.67 v 0 l -4.524,-4.01 13.391,-15.1 4.516,3.99 z m 10.894,9.63 v 0 l -4.523,-3.99 13.387,-15.1 4.515,3.99 z m 10.903,9.65 v 0 l -4.524,-3.99 13.379,-15.1 4.523,3.98 z m -1.559,23.71 v 0 l -4.527,-3.99 25.839,-29.16 4.516,3.98 z m 23.34,-4.39 v 0 l -4.52,-4.01 13.387,-15.1 4.508,3.98 z m 10.902,9.63 v 0 l -4.527,-3.99 13.39,-15.1 4.504,3.98 z m 10.899,9.65 v 0 l -4.532,-3.99 13.391,-15.1 4.516,3.98 z m 10.894,9.64 v 0 l -4.527,-3.99 13.387,-15.09 4.503,3.98 z m -1.558,23.72 v 0 l -4.524,-4.01 25.836,-29.14 4.508,3.98 z m 23.339,-4.42 v 0 l -4.511,-3.98 13.386,-15.12 4.5,4 z m 10.903,9.65 v 0 l -4.52,-3.99 13.387,-15.11 4.504,4 z m 10.898,9.66 v 0 l -4.519,-4.01 13.382,-15.08 4.512,3.99 z m 10.895,9.65 v 0 l -4.528,-3.99 13.395,-15.13 4.512,4.01 z m -1.551,23.71 v 0 l -4.527,-4.01 25.843,-29.16 4.496,4 z m 23.332,-4.42 v 0 l -4.516,-3.98 13.395,-15.13 4.508,4.02 z m 10.91,9.66 v 0 l -4.523,-4.02 13.382,-15.1 4.508,4.01 z m 10.883,9.64 v 0 l -4.508,-4 13.387,-15.11 4.512,4.01 z m 10.894,9.65 v 0 l -4.511,-3.99 13.383,-15.12 4.52,4.02 z m -1.543,23.72 v 0 l -4.523,-4.01 25.838,-29.16 4.51,4 z m 23.335,-4.42 v 0 l -4.51,-4 13.38,-15.08 4.49,3.98 z m 10.9,9.65 v 0 l -4.51,-4.01 13.38,-15.09 4.51,4 z m 10.89,9.65 v 0 l -4.51,-4.01 13.39,-15.09 4.49,3.99 z m 10.9,9.65 v 0 l -4.52,-3.98 13.39,-15.13 4.49,4.01 z m -1.54,23.7 v 0 l -4.53,-3.99 25.84,-29.14 4.51,3.98 z m 23.34,-4.39 v 0 l -4.52,-4 13.38,-15.11 4.53,4 z m 10.9,9.65 v 0 l -4.52,-4.02 13.38,-15.1 4.51,4.01 z m 10.89,9.64 v 0 l -4.52,-3.99 13.38,-15.12 4.52,4.01 z m 10.9,9.65 v 0 l -4.52,-4.01 13.37,-15.1 4.54,4.01 z m -1.56,23.72 v 0 l -4.52,-4.02 25.84,-29.16 4.52,4.01 z m 23.34,-4.42 v 0 l -4.51,-4 13.39,-15.11 4.5,4.01 z m 10.9,9.63 v 0 l -4.51,-3.99 13.37,-15.1 4.5,3.99 z m 10.9,9.67 v 0 l -4.52,-4.01 13.38,-15.1 4.52,4.01 z m 10.89,9.65 v 0 l -4.51,-4.01 13.38,-15.1 4.52,4.01 z m -1.55,23.72 v 0 l -4.52,-4.01 25.84,-29.17 4.52,4.01 z m 23.34,-4.44 v 0 l -4.51,-3.99 13.38,-15.1 4.49,4.01 z m 10.89,9.67 v 0 l -4.51,-4.01 13.39,-15.1 4.48,4 z m 10.91,9.65 v 0 l -4.53,-3.99 13.4,-15.12 4.51,4.02 z m 10.89,9.66 v 0 l -4.52,-4.02 13.39,-15.1 4.51,4.01 z m -1.57,23.7 v 0 l -4.5,-4.01 25.83,-29.16 4.5,4 z M 775.438,3066.63 v 0 l -4.532,-3.98 25.836,-29.17 4.524,3.99 z m 482.262,371.86 -475.313,-420.97 -83.27,94.02 475.323,420.95 83.26,-94" /><path
           inkscape:connector-curvature="0"
           id="path95750"
           style="fill:#ffffff;fill-opacity:1;fill-rule:evenodd;stroke:none"
           d="m 1952.93,3769.85 v 0 c 4.13,0.57 6.99,4.29 6.42,8.43 l -0.93,6.61 c -0.57,4.13 -4.2,6.12 -8.32,5.54 l -49.31,-6.78 c -4.09,-0.57 -7.05,-3.48 -6.48,-7.6 l 0.91,-6.6 c 0.57,-4.15 4.31,-6.95 8.41,-6.41 z m -355.23,19.26 v 0 c -2.45,-0.32 -4.16,-2.6 -3.82,-5.04 l 2.04,-14.78 -17.75,-2.43 c -6.59,-0.91 -11.54,-7.49 -10.64,-14.08 l 34.22,-247.99 c 0.91,-6.58 7.35,-10.75 13.94,-9.82 l 401.04,55.32 c 6.59,0.92 10.83,6.55 9.93,13.13 l -34.2,247.99 c -0.92,6.59 -6.64,11.67 -13.25,10.77 l -25.45,-3.51 -1.36,9.88 c -0.57,4.14 -4.34,6.99 -8.44,6.42 l -49.31,-6.81 c -4.11,-0.55 -6.92,-4.32 -6.35,-8.46 l 1.35,-9.86 -233.66,-32.25 -2.03,14.78 c -0.34,2.43 -2.6,4.14 -5.04,3.82 z m 79.77,-147.1 c -9.1,65.92 37.76,126.95 103.5,136.03 65.74,9.07 126.55,-37.12 135.66,-103.04 9.2,-66.69 -36.84,-127.69 -102.57,-136.74 -65.76,-9.08 -127.39,37.03 -136.59,103.75" /><path
           inkscape:connector-curvature="0"
           id="path95752"
           style="fill:#ffffff;fill-opacity:1;fill-rule:evenodd;stroke:none"
           d="m 1717.75,3646.81 v 0 c -5.86,42.51 24.05,83.17 67.34,89.14 42.37,5.83 83.08,-25.07 88.96,-67.58 5.99,-43.42 -24.84,-84.22 -67.2,-90.07 -43.31,-5.95 -83.1,25.11 -89.1,68.51 z m 63.05,120.28 c -61.21,-8.43 -103.39,-64.29 -95.05,-124.7 8.45,-61.35 64.17,-103.66 125.4,-95.23 60.24,8.33 102.45,64.15 93.99,125.5 -8.34,60.45 -64.08,102.74 -124.34,94.43" /><path
           inkscape:connector-curvature="0"
           id="path95754"
           style="fill:#ffffff;fill-opacity:1;fill-rule:evenodd;stroke:none"
           d="m 1789.54,3700.35 v 0 c -23.91,-3.31 -40.6,-25.36 -37.31,-49.25 3.3,-23.9 25.36,-40.63 49.25,-37.32 23.9,3.31 40.6,25.35 37.29,49.25 -3.29,23.9 -25.33,40.61 -49.23,37.32 z m -3.79,27.37 c 39.03,5.39 75.04,-21.87 80.42,-60.91 5.39,-39.01 -21.9,-75.02 -60.92,-80.4 -39.02,-5.4 -75.03,21.9 -80.4,60.89 -5.39,39.03 21.88,75.03 60.9,80.42" /><path
           inkscape:connector-curvature="0"
           id="path95756"
           style="fill:#ffffff;fill-opacity:1;fill-rule:evenodd;stroke:none"
           d="m 3863.32,3334.98 v 0 c 16.59,0.71 34.95,-7.44 41.95,-19.13 7.04,-11.7 -0.92,-22.89 -18.74,-23.94 -17.83,-1.06 -37.78,8.74 -43.55,20.79 -5.75,12.03 3.75,21.55 20.34,22.28 z m -12.1,36.22 v 0 c -5.65,10.12 2.09,17.99 16.59,18.34 14.48,0.34 31.03,-6.78 37.73,-16.69 6.69,-9.88 0.23,-19.09 -15.28,-19.67 -15.53,-0.57 -33.38,7.88 -39.04,18.02 z m -73.26,66.94 v 0 c 4.03,-8.35 -5.79,-15.83 -22.7,-16.05 -16.89,-0.22 -33.43,7.08 -36.36,15.59 -2.91,8.52 7.98,14.91 23.76,14.94 15.79,0.04 31.3,-6.13 35.3,-14.48 z m 1.78,-121.82 v 0 c 21.3,1.03 42.55,-8.31 48.56,-22.14 6.04,-13.85 -6.81,-27.51 -29.99,-29.04 -23.17,-1.56 -46.39,10.07 -50.51,24.43 -4.16,14.34 10.62,25.7 31.94,26.75 z m 159.18,71.05 v 0 c -24.62,32.13 -56.72,53.79 -92.66,69.58 -33.92,14.91 -72.36,23.84 -109.77,24.09 -45.72,0.3 -96.53,-14.89 -57.21,-39.8 20.57,-13.04 34.12,-19.84 28.99,-34.32 -5.14,-14.49 -24.21,-14.78 -48.08,-2.15 -48.62,25.71 -72.08,-8.73 -55.85,-57.19 19.83,-59.3 100.28,-143.71 242.94,-131.63 60.96,5.17 100.39,32.69 114.11,68.84 11.93,31.48 2.15,70.45 -22.47,102.58 z m -240.16,-23.29 c 18.97,0.58 36.55,-7.64 40.22,-19.43 3.66,-11.83 -9.3,-23.03 -29.84,-23.98 -20.54,-0.98 -39.45,9.01 -41.49,21.17 -2.06,12.14 12.16,21.63 31.11,22.24" /><path
           inkscape:connector-curvature="0"
           id="path95758"
           style="fill:#ffffff;fill-opacity:1;fill-rule:evenodd;stroke:none"
           d="m 4082.52,3555.83 c -3.13,-9.31 -59.89,-259.42 -74.16,-322.31 0.99,0.25 2,0.48 3.04,0.68 12.89,2.51 27.55,-0.36 37.96,-8.59 10.64,63.84 52.78,316.43 53.41,326.23 1.23,18.63 -14.3,21.7 -20.25,3.99" /><path
           inkscape:connector-curvature="0"
           id="path95760"
           style="fill:#ffffff;fill-opacity:1;fill-rule:evenodd;stroke:none"
           d="m 3981.87,3190.95 c -4.2,-28.75 12.72,-48.87 -15.1,-79.99 37.34,13.61 88.24,42.93 87.69,88.22 -0.41,34.17 -65.18,42.71 -72.59,-8.23" /><path
           inkscape:connector-curvature="0"
           id="path95762"
           style="fill:#ffffff;fill-opacity:1;fill-rule:evenodd;stroke:none"
           d="M 960.566,2480.34 H 696.211 c -41.273,0 -74.859,33.58 -74.859,74.87 v 187.22 c 0,41.29 33.586,74.86 74.859,74.86 h 264.355 c 41.274,0 74.854,-33.57 74.854,-74.86 v -187.22 c 0,-41.29 -33.58,-74.87 -74.854,-74.87 z M 696.211,2796.5 c -29.816,0 -54.066,-24.26 -54.066,-54.07 v -187.22 c 0,-29.81 24.25,-54.08 54.066,-54.08 h 264.355 c 29.817,0 54.064,24.27 54.064,54.08 v 187.22 c 0,29.81 -24.247,54.07 -54.064,54.07 H 696.211" /><path
           inkscape:connector-curvature="0"
           id="path95764"
           style="fill:#ffffff;fill-opacity:1;fill-rule:evenodd;stroke:none"
           d="m 752.82,2577.77 v 142.1 l 186.926,-71.06 z" /><path
           inkscape:connector-curvature="0"
           id="path95766"
           style="fill:#ffffff;fill-opacity:1;fill-rule:evenodd;stroke:none"
           d="m 4037.51,2712.82 17.18,-49.24 51.15,17.87 c 7.03,-11.2 15.79,-20.87 25.8,-28.88 l -23.55,-48.82 46.97,-22.67 23.55,48.82 c 12.5,-2.84 25.53,-3.67 38.65,-2.21 l 17.86,-51.17 49.24,17.21 -17.85,51.14 c 11.18,7.04 20.85,15.78 28.86,25.8 l 48.82,-23.55 22.68,46.97 -48.85,23.55 c 2.86,12.51 3.7,25.53 2.23,38.64 l 51.17,17.87 -17.21,49.24 -51.14,-17.87 c -7.02,11.17 -15.78,20.88 -25.79,28.88 l 23.55,48.82 -46.96,22.65 -23.58,-48.82 c -12.48,2.86 -25.52,3.69 -38.64,2.23 l -17.86,51.16 -49.24,-17.19 17.86,-51.17 c -11.19,-7.02 -20.86,-15.78 -28.86,-25.8 l -48.83,23.57 -22.66,-46.97 48.83,-23.55 c -2.86,-12.5 -3.69,-25.54 -2.23,-38.64 z m 136.06,79.21 c 36.52,22.62 83.07,0.15 88.12,-42.51 2.54,-21.5 -7.93,-43.21 -26.36,-54.6 -36.52,-22.6 -83.05,-0.13 -88.09,42.51 -2.56,21.5 7.93,43.21 26.33,54.6" /><path
           inkscape:connector-curvature="0"
           id="path95768"
           style="fill:#ffffff;fill-opacity:1;fill-rule:evenodd;stroke:none"
           d="m 4354.61,2764.29 13.65,-39.14 40.66,14.2 c 5.59,-8.9 12.55,-16.59 20.5,-22.95 l -18.72,-38.81 37.35,-18.01 18.71,38.8 c 9.93,-2.26 20.29,-2.92 30.71,-1.76 l 14.2,-40.66 39.14,13.67 -14.19,40.65 c 8.88,5.59 16.57,12.54 22.94,20.51 l 38.8,-18.72 18.03,37.33 -38.83,18.72 c 2.27,9.94 2.95,20.29 1.78,30.71 l 40.66,14.2 -13.67,39.14 -40.65,-14.2 c -5.58,8.88 -12.55,16.59 -20.5,22.95 l 18.73,38.81 -37.34,18 -18.73,-38.81 c -9.92,2.28 -20.29,2.93 -30.72,1.77 l -14.19,40.67 -39.14,-13.67 14.2,-40.66 c -8.9,-5.58 -16.58,-12.54 -22.94,-20.51 l -38.82,18.73 -18,-37.33 38.8,-18.72 c -2.26,-9.94 -2.93,-20.29 -1.77,-30.71 z m 108.14,62.95 c 29.03,17.98 66.02,0.12 70.04,-33.78 2.01,-17.09 -6.31,-34.35 -20.94,-43.4 -29.04,-17.96 -66.03,-0.1 -70.03,33.79 -2.03,17.08 6.31,34.34 20.93,43.39" /></g></g></g></svg>